<?xml version="1.0" encoding="UTF-8" standalone="no"?>
<!-- Created with Inkscape (http://www.inkscape.org/) -->

<svg
   xmlns:dc="http://purl.org/dc/elements/1.1/"
   xmlns:cc="http://creativecommons.org/ns#"
   xmlns:rdf="http://www.w3.org/1999/02/22-rdf-syntax-ns#"
   xmlns:svg="http://www.w3.org/2000/svg"
   xmlns="http://www.w3.org/2000/svg"
   xmlns:xlink="http://www.w3.org/1999/xlink"
   xmlns:sodipodi="http://sodipodi.sourceforge.net/DTD/sodipodi-0.dtd"
   xmlns:inkscape="http://www.inkscape.org/namespaces/inkscape"
   width="320"
   height="240"
   id="svg2"
   sodipodi:version="0.32"
   inkscape:version="0.48.2 r9819"
   version="1.0"
   sodipodi:docname="topokite.pfd.compass.svg"
   inkscape:output_extension="org.inkscape.output.svg.inkscape"
   style="display:inline">
  <defs
     id="defs4">
    <linearGradient
       id="linearGradient3159">
      <stop
         style="stop-color:#0080ff;stop-opacity:1;"
         offset="0"
         id="stop3161" />
      <stop
         id="stop3169"
         offset="0.5"
         style="stop-color:#0080ff;stop-opacity:1;" />
      <stop
         style="stop-color:#804000;stop-opacity:1;"
         offset="0.5"
         id="stop3171" />
      <stop
         style="stop-color:#804000;stop-opacity:1;"
         offset="1"
         id="stop3163" />
    </linearGradient>
    <inkscape:perspective
       sodipodi:type="inkscape:persp3d"
       inkscape:vp_x="0 : 526.18109 : 1"
       inkscape:vp_y="0 : 1000 : 0"
       inkscape:vp_z="744.09448 : 526.18109 : 1"
       inkscape:persp3d-origin="372.04724 : 350.78739 : 1"
       id="perspective10" />
    <linearGradient
       inkscape:collect="always"
       xlink:href="#linearGradient3159"
       id="linearGradient4252"
       gradientUnits="userSpaceOnUse"
       gradientTransform="matrix(0.80495611,0,0,0.80495611,326.49544,390.81394)"
       x1="518.57141"
       y1="617.80591"
       x2="518.57141"
       y2="892.86505" />
    <linearGradient
       inkscape:collect="always"
       xlink:href="#linearGradient3159"
       id="linearGradient6584"
       gradientUnits="userSpaceOnUse"
       gradientTransform="matrix(0.80495611,0,0,1.0705035,-276.64704,-678.32595)"
       x1="518.57141"
       y1="617.80591"
       x2="518.57141"
       y2="892.86505" />
  </defs>
  <sodipodi:namedview
     id="base"
     pagecolor="#ffffff"
     bordercolor="#666666"
     borderopacity="1.0"
     gridtolerance="10000"
     guidetolerance="10"
     objecttolerance="10"
     inkscape:pageopacity="0.0"
     inkscape:pageshadow="2"
     inkscape:zoom="2.0000001"
     inkscape:cx="84.017434"
     inkscape:cy="144.12689"
     inkscape:document-units="px"
     inkscape:current-layer="display"
     showgrid="false"
     inkscape:window-width="1280"
     inkscape:window-height="839"
     inkscape:window-x="1022"
     inkscape:window-y="52"
     inkscape:window-maximized="0" />
  <metadata
     id="metadata7">
    <rdf:RDF>
      <cc:Work
         rdf:about="">
        <dc:format>image/svg+xml</dc:format>
        <dc:type
           rdf:resource="http://purl.org/dc/dcmitype/StillImage" />
        <dc:title />
      </cc:Work>
    </rdf:RDF>
  </metadata>
  <g
     inkscape:groupmode="layer"
     id="compass"
     inkscape:label="compass"
     style="display:inline">
    <path
       sodipodi:type="arc"
       style="fill:#404040;fill-opacity:0.50196078;fill-rule:evenodd;stroke:none;stroke-width:5;marker:none;visibility:visible;display:inline;overflow:visible;enable-background:accumulate"
       id="compass-disk"
       sodipodi:cx="160"
       sodipodi:cy="120"
       sodipodi:rx="112"
       sodipodi:ry="112"
       d="m 272,120 a 112,112 0 1 1 0,-0.0143"
       sodipodi:start="0"
       sodipodi:end="6.2830573"
       sodipodi:open="true" />
    <g
       id="compass-scale">
      <path
         style="fill:#808080;fill-opacity:1;fill-rule:evenodd;stroke:#ffffff;stroke-width:1.18323135;stroke-linecap:square;stroke-linejoin:miter;stroke-miterlimit:4;stroke-opacity:1;stroke-dasharray:none;stroke-dashoffset:0;marker:none;visibility:visible;display:inline;overflow:visible;enable-background:accumulate"
         d="m 160,33.308264 0,88.827506"
         id="path3720"
         sodipodi:nodetypes="cc"
         inkscape:connector-curvature="0" />
      <path
         style="fill:#808080;fill-opacity:1;fill-rule:evenodd;stroke:#ffffff;stroke-width:1.20754719;stroke-linecap:square;stroke-linejoin:miter;stroke-miterlimit:4;stroke-opacity:1;stroke-dasharray:none;stroke-dashoffset:0;marker:none;visibility:visible;display:inline;overflow:visible;enable-background:accumulate"
         d="m 153.86842,32.722338 8.06385,0"
         id="path3724"
         sodipodi:nodetypes="cc"
         inkscape:connector-curvature="0" />
      <path
         inkscape:connector-curvature="0"
         d="m 131.57897,12.189176 0.99633,3.718348 m 8.48485,-5.82027 1.52372,8.641456 m -29.29427,0.03363 1.62687,3.488847 m 7.34527,-7.205228 3.00115,8.245582 m -28.843387,5.119997 2.20798,3.153335 m 5.982517,-8.371258 4.38739,7.599174 m -27.516115,10.050819 2.722016,2.722026 m 4.437963,-9.282935 5.640312,6.721868 m -25.352774,14.676227 3.153335,2.207999 m 2.758582,-9.912547 6.721858,5.640312 M 59.14346,72.4723 l 3.488837,1.626885 m 0.995372,-10.240981 7.599173,4.387385 m -18.804233,22.462313 3.718338,0.996331 M 55.342871,81.446 l 8.245591,3.001145 m -14.61802,25.386385 3.834865,0.33551 m -2.56728,-9.96381 8.641466,1.52372 m -9.987654,27.5391 3.834865,-0.33551 m -4.25847,-9.36662 8.77477,0 m -5.053791,28.85505 3.718338,-0.99632 m -5.82027,-8.48485 8.641466,-1.52373 m 0.03363,29.29425 3.488846,-1.62687 m -7.205227,-7.34527 8.245582,-3.00115 m 5.119996,28.84341 3.153335,-2.20798 m -8.371257,-5.98251 7.599173,-4.38739 m 10.05081,27.51607 2.722026,-2.72202 m -9.282935,-4.43796 6.721868,-5.64031 m 14.676236,25.35277 2.208,-3.15333 m -9.912547,-2.75858 5.640311,-6.72186 m 18.855746,22.41913 1.62688,-3.48883 m -10.24098,-0.99538 4.38738,-7.59917 m 22.46232,18.80422 0.99633,-3.71833 m -10.25823,0.79807 3.00114,-8.24559 m 25.38639,14.61802 0.33551,-3.83486 m -9.96381,2.56728 1.52372,-8.64147 m 27.53911,9.9877 -0.33551,-3.83486 m -9.36663,4.25847 0,-8.77477 m 28.85506,5.05373 -0.99632,-3.71835 m -8.48485,5.82027 -1.52373,-8.64145 m 29.29423,-0.0336 -1.62687,-3.48885 m -7.34527,7.20523 -3.00115,-8.24558 m 28.84341,-5.11995 -2.20798,-3.15334 m -5.98251,8.37126 -4.38739,-7.59917 m 27.51616,-10.05082 -2.72201,-2.72203 m -4.43796,9.28294 -5.64032,-6.72187 m 25.35268,-14.67623 -3.15333,-2.208 m -2.75858,9.91255 -6.72186,-5.64031 m 22.41913,-18.85575 -3.48883,-1.62688 m -0.99538,10.24098 -7.59917,-4.38738 m 18.80422,-22.46232 -3.71833,-0.99633 m 0.79807,10.25823 -8.24559,-3.00114 m 14.61802,-25.38638 -3.83486,-0.33552 m 2.56728,9.96381 -8.64147,-1.52372 m 9.9877,-27.5391 -3.83486,0.33551 m 4.25847,9.36663 -8.77477,0 m 5.05377,-28.855053 -3.71835,0.996322 m 5.82027,8.484841 -8.64145,1.52373 m -0.0336,-29.294265 -3.48885,1.626875 m 7.20523,7.345267 -8.24559,3.001145 m -5.11999,-28.843377 -3.15334,2.20799 m 8.37126,5.982501 -7.59917,4.387385 m -10.05081,-27.516113 -2.72203,2.722016 m 9.28294,4.437963 -6.72187,5.640311 m -14.67624,-25.352773 -2.208,3.153335 m 9.91255,2.758581 -5.64031,6.721858 m -18.85574,-22.419097 -1.62689,3.488837 m 10.24098,0.995372 -4.38738,7.599173 m -22.46232,-18.804233 -0.99633,3.718338 m 10.25824,-0.798076 -3.00115,8.245591 M 170.16645,8.9704542 169.83093,12.805319 m 9.96381,-2.56728 -1.52372,8.641466 m -27.53909,-9.9876443 0.3355,3.8348653 m 9.36663,-4.2584703 0,8.7747703"
         style="fill:#ffffff;fill-opacity:1;stroke:#ffffff;stroke-width:1.34800005;stroke-linecap:square;stroke-linejoin:miter;stroke-miterlimit:4;stroke-opacity:1;stroke-dasharray:none;stroke-dashoffset:0;marker:none;visibility:visible;display:inline;overflow:visible;enable-background:accumulate"
         id="compass-ticks" />
      <path
         id="compass-labels-major"
         style="font-size:14px;font-style:normal;font-variant:normal;font-weight:bold;font-stretch:normal;text-align:start;line-height:125%;letter-spacing:0px;word-spacing:0px;writing-mode:lr-tb;text-anchor:start;fill:#ffffff;fill-opacity:1;stroke:#ffffff;stroke-width:1.10000002;stroke-miterlimit:4;stroke-opacity:1;stroke-dasharray:none;font-family:Lightline Gothic BQ;-inkscape-font-specification:Lightline Gothic BQ Bold"
         d="m 114.5842,35.860004 c 0.26491,-0.152941 0.53649,-0.294377 0.81293,-0.453977 0.23034,-0.133001 0.39161,-0.226101 0.65036,-0.283347 0.87015,-0.195225 1.69224,0.297664 2.14444,1.080891 0.60514,1.048145 0.38798,2.29463 -0.63712,2.88648 -0.78323,0.4522 -1.52813,0.252605 -1.8206,0.145027 -0.17017,-0.05529 -0.31064,-0.112443 -0.61332,-0.290909 l -0.2914,0.506093 c 0.0497,0.03277 0.46977,0.281656 0.80345,0.380798 0.97797,0.310735 1.85385,-0.0874 2.15331,-0.260337 0.41465,-0.239391 1.51636,-1.044411 1.29214,-2.496772 -0.0799,-0.537433 -0.29451,-0.935702 -0.40091,-1.119993 -0.56525,-0.979042 -1.33367,-1.272554 -1.771,-1.311855 -0.33012,-0.03981 -0.83609,0.06802 -0.87729,0.07648 0.0491,-0.07448 0.31003,-0.394003 0.45039,-0.736117 0.24969,-0.604884 0.12761,-1.348354 -0.21154,-1.935777 -0.2394,-0.414656 -0.9646,-1.378137 -2.27518,-1.174343 -0.16482,0.03373 -0.52415,0.102971 -0.90424,0.322421 -1.15182,0.665 -1.26401,1.774087 -1.33298,2.213205 l 0.51488,0.04057 c 0.10792,-0.584459 0.21324,-1.013849 0.62207,-1.449538 0.17894,-0.195453 0.40265,-0.339977 0.48328,-0.386527 0.956,-0.55194 1.75683,-0.01606 2.02188,0.230204 0.063,0.05577 0.26505,0.246269 0.41135,0.499672 0.17955,0.310982 0.2736,0.686698 0.28834,1.031415 -9.5e-4,0.476757 -0.16979,1.142337 -1.14883,1.707577 -0.20732,0.1197 -0.41644,0.209722 -0.63041,0.317899 l 0.266,0.460721 m -5.5116,3.18213 c 0.26491,-0.15295 0.53648,-0.294377 0.81291,-0.453977 0.23037,-0.133 0.39162,-0.2261 0.65036,-0.283347 0.87017,-0.195234 1.69225,0.297664 2.14445,1.080891 0.60515,1.048145 0.388,2.29463 -0.63712,2.88648 -0.78324,0.4522 -1.52813,0.252605 -1.8206,0.145027 -0.17016,-0.05529 -0.31064,-0.112442 -0.61333,-0.290909 l -0.29138,0.506094 c 0.0497,0.03278 0.46975,0.281656 0.80343,0.380798 0.97799,0.310726 1.85385,-0.0874 2.15333,-0.260338 0.41465,-0.2394 1.51634,-1.044411 1.29212,-2.496771 -0.0799,-0.537434 -0.29451,-0.935703 -0.40091,-1.119993 -0.56525,-0.979042 -1.33365,-1.272563 -1.771,-1.311855 -0.3301,-0.03981 -0.83607,0.06802 -0.87728,0.07648 0.0491,-0.07448 0.31003,-0.394003 0.45038,-0.736117 0.24971,-0.604894 0.12762,-1.348354 -0.21153,-1.935777 -0.2394,-0.414656 -0.9646,-1.378137 -2.27519,-1.174343 -0.16481,0.03372 -0.52413,0.102971 -0.90423,0.322421 -1.15182,0.665 -1.264,1.774077 -1.33299,2.213205 l 0.51488,0.04057 c 0.10793,-0.584468 0.21325,-1.013849 0.62208,-1.449538 0.17894,-0.195453 0.40266,-0.339977 0.48328,-0.386527 0.95601,-0.55195 1.75684,-0.01605 2.02188,0.230204 0.0629,0.05577 0.26505,0.246269 0.41135,0.499672 0.17955,0.310982 0.2736,0.686698 0.28833,1.031415 -9.5e-4,0.476757 -0.16977,1.142327 -1.14881,1.707577 -0.20733,0.1197 -0.41644,0.209713 -0.63041,0.317899 l 0.266,0.460721 M 77.569216,71.959206 c 1.536769,0.902614 2.682074,1.179909 3.457482,1.166866 1.167976,-9.5e-4 1.815978,-0.671584 2.035433,-1.051679 0.139649,-0.241879 0.409691,-0.869202 0.211883,-1.643785 -0.23498,-0.94961 -1.16021,-2.113465 -3.083744,-3.224005 -0.264917,-0.15295 -2.013901,-1.193438 -3.522194,-1.081376 -1.082489,0.06612 -1.644526,0.693785 -1.850682,1.050833 -0.2128,0.368581 -0.498399,1.155856 -0.06714,2.11129 0.658395,1.439801 2.588585,2.538837 2.818949,2.671837 m 0.382961,-0.423909 c -1.342753,-0.759886 -2.131202,-1.522252 -2.48683,-2.050072 -0.114679,-0.173745 -0.730752,-1.128334 -0.238638,-1.980683 0.146304,-0.253403 0.539476,-0.748201 1.31843,-0.820658 0.432477,-0.05747 0.9318,0.06185 1.05541,0.08721 1.117381,0.245822 2.004281,0.757882 2.338308,0.950732 0.852341,0.4921 2.080739,1.370251 2.578505,2.210498 0.45347,0.783968 0.291957,1.489315 0.105759,1.811821 -0.192853,0.334029 -0.688385,0.846516 -1.605584,0.839116 -0.661532,0.0019 -1.699608,-0.274816 -3.065388,-1.047993 m -2.881921,4.778833 c 0.15295,-0.264917 0.31742,-0.523184 0.477017,-0.799615 0.133002,-0.230366 0.226102,-0.391619 0.421555,-0.570561 0.655965,-0.604162 1.614354,-0.588354 2.397589,-0.136144 1.048147,0.60514 1.483327,1.793201 0.891475,2.818317 -0.452203,0.783227 -1.197086,0.982832 -1.504166,1.035899 -0.17506,0.03715 -0.325244,0.05795 -0.676619,0.05472 l 7.06e-4,0.583994 c 0.05934,0.0038 0.547657,0.0095 0.886193,-0.07192 1.002338,-0.219897 1.56178,-1.002621 1.734667,-1.302127 0.239394,-0.414647 0.790986,-1.662652 -0.129374,-2.808324 -0.337908,-0.425486 -0.722903,-0.66309 -0.907194,-0.76949 -0.979041,-0.565251 -1.791263,-0.435243 -2.18965,-0.250601 -0.305791,0.130578 -0.690061,0.476947 -0.721523,0.504878 0.0053,-0.08902 0.0715,-0.496252 0.02198,-0.862695 -0.08619,-0.648708 -0.563652,-1.231523 -1.151076,-1.570664 -0.414655,-0.239409 -1.524439,-0.711208 -2.557539,0.120574 -0.12588,0.111625 -0.402441,0.351244 -0.621888,0.731339 -0.665003,1.151818 -0.207615,2.168403 -0.0478,2.583183 l 0.466183,-0.22231 c -0.198773,-0.560119 -0.322256,-0.984637 -0.186041,-1.566368 0.05724,-0.258752 0.178724,-0.495758 0.225273,-0.576384 0.551949,-0.956004 1.513436,-0.892326 1.866106,-0.811585 0.08235,0.01681 0.352666,0.08075 0.606067,0.227059 0.310986,0.17955 0.580297,0.457891 0.765408,0.749055 0.23756,0.413375 0.42414,1.074185 -0.14111,2.053226 -0.119702,0.207328 -0.255785,0.389832 -0.387003,0.59051 l 0.460723,0.266 m -15.2395,47.673902 -1e-6,0.6517 9.310002,-2.0881 2e-6,-0.5586 -8.006609,-1.9684 8.006608,-1.9019 -3e-6,-0.55861 -9.2967,-2.19449 -3e-6,0.6251 c 0.532006,0.1463 1.050707,0.2926 1.582703,0.4123 0.811296,0.18621 1.6359,0.33249 2.460504,0.5187 0.625093,0.1463 1.223597,0.3192 1.848695,0.4655 0.718202,0.1596 1.436397,0.2926 2.167901,0.4256 -0.571902,0.11971 -1.1438,0.2261 -1.715699,0.3591 -0.611802,0.1463 -1.223602,0.3192 -1.8354,0.4655 -0.6384,0.1463 -1.263506,0.2793 -1.901897,0.4256 -0.877803,0.1862 -1.742311,0.4123 -2.620101,0.6384 l -3e-6,0.5719 8.0066,1.9684 -8.006599,1.7423 m 18.982196,42.52419 0.414653,-0.2394 -1.835401,-3.179 2.211483,-1.2768 -0.2926,-0.5068 -2.211482,1.2768 -0.665001,-1.15182 -0.437689,0.2527 0.64505,1.11727 -5.528707,3.192 0.4256,0.73716 7.274093,-0.22211 m -7.037208,-0.29859 5.165472,-2.89015 1.54945,2.68373 -6.714922,0.20642 m 6.608076,6.89692 c -0.522357,0.13265 -1.039846,0.24713 -1.599495,0.15559 -0.259221,-0.05 -0.85212,-0.19912 -1.23117,-0.85565 -0.545295,-0.94447 -0.07153,-1.98589 0.838402,-2.51124 1.243951,-0.7182 2.632348,-0.12225 3.868253,0.31601 0.669135,0.22798 1.01433,0.32047 1.351093,0.37176 0.800702,0.13666 1.631922,0.0867 2.474652,0.0302 l 0.449207,-0.25935 -2.407777,-4.27679 -0.506799,0.2926 2.14795,3.72035 c -1.080219,0.0708 -1.687249,0.0834 -2.716183,-0.18256 -0.399699,-0.1071 -0.79453,-0.23237 -1.184493,-0.3758 -1.036056,-0.3847 -1.921917,-0.74865 -3.019346,-0.46826 -0.380577,0.11222 -0.652144,0.25365 -0.790361,0.33345 -0.932969,0.53865 -1.208317,1.31194 -1.285735,1.70985 -0.09997,0.51844 0.01808,1.09531 0.279207,1.57419 0.2261,0.39162 0.554086,0.69371 0.965776,0.90137 0.841557,0.42023 1.647477,0.24672 1.954077,0.19257 0.164817,-0.0337 0.318117,-0.0608 0.476284,-0.10605 l -0.06354,-0.56226 m 28.304541,32.29012 c 0.29556,-0.0598 0.43426,-0.0871 0.58933,-0.0898 0.23928,-0.0154 0.47677,-9.5e-4 0.72091,0.002 0.29199,-3.5e-4 0.59064,-0.0123 0.9008,-0.0175 l 0.0157,-0.55918 -1.73427,0.10446 4.08975,-7.08365 1.25547,0.72484 0.266,-0.46073 -2.98319,-1.72234 -0.26601,0.46073 1.18637,0.68495 -4.4555,7.71716 0.41466,0.23938 m 8.61718,1.87291 c -0.38605,0.37607 -0.77696,0.73396 -1.30741,0.93451 -0.24947,0.0864 -0.83752,0.25361 -1.49405,-0.12544 -0.94448,-0.5453 -1.05489,-1.68406 -0.52954,-2.59399 0.7182,-1.24396 2.21855,-1.42206 3.50802,-1.66046 0.69346,-0.13712 1.03866,-0.22963 1.35595,-0.35359 0.76176,-0.282 1.45665,-0.74085 2.15822,-1.21117 l 0.25935,-0.4492 -4.22359,-2.49993 -0.29261,0.5068 3.72037,2.14796 c -0.90011,0.60141 -1.4195,0.91585 -2.44358,1.19997 -0.39969,0.10711 -0.80426,0.19605 -1.2137,0.2668 -1.0896,0.18486 -2.03874,0.31262 -2.84895,1.10415 -0.27349,0.28748 -0.43795,0.54575 -0.51775,0.68397 -0.53865,0.93296 -0.39048,1.74033 -0.25855,2.12362 0.17264,0.49898 0.56328,0.93954 1.02889,1.2237 0.39162,0.2261 0.82669,0.32372 1.28707,0.29772 0.93892,-0.0568 1.55012,-0.61008 1.78857,-0.81028 0.12586,-0.11161 0.2451,-0.21171 0.35945,-0.32999 l -0.33618,-0.45515 m 42.0457,10.8471 c 0.2128,0.5719 0.3325,0.8113 0.50537,1.06401 0.77141,1.05072 2.0216,1.07731 2.4206,1.07731 1.5694,0 2.2078,-0.9443 2.4472,-1.5561 0.1463,-0.399 0.1596,-0.69159 0.1596,-0.8645 0,-0.38569 -0.1197,-1.3167 -1.01076,-1.90192 -0.67829,-0.4522 -1.95509,-0.798 -2.0083,-0.8246 -0.6783,-0.1995 -1.2901,-0.3591 -1.7423,-0.9709 -0.13296,-0.18622 -0.33249,-0.5054 -0.3325,-1.0374 0,-0.6384 0.3325,-1.2635 0.8246,-1.6226 0.53201,-0.3857 1.1305,-0.4123 1.3566,-0.41231 0.3458,1e-5 1.4497,0.0931 2.0881,0.95761 0.27929,0.37241 0.50538,0.95761 0.5453,1.0507 l 0.6118,-0.2394 c -0.37241,-0.8246 -0.67829,-1.4497 -1.47629,-1.9019 -0.665,-0.399 -1.29011,-0.399 -1.59601,-0.399 -0.6118,0 -1.06399,0.0931 -1.2901,0.1729 -0.42558,0.14633 -0.71819,0.38569 -0.85121,0.50538 -0.5453,0.4921 -0.83789,1.1837 -0.8379,1.9285 1e-5,0.3857 0.0931,1.4098 1.07733,2.00829 0.4123,0.2527 1.1039,0.5054 2.1413,0.8379 0.4655,0.1463 0.8911,0.2527 1.2901,0.5985 0.532,0.4655 0.59851,1.0108 0.5985,1.2901 0,0.4256 -0.1596,0.7448 -0.2394,0.8911 -0.5054,0.9044 -1.4231,0.9709 -1.75558,0.97092 -0.3059,0 -1.2901,-0.0931 -1.87531,-0.87779 -0.14633,-0.19949 -0.2524,-0.42577 -0.45217,-0.93102 l -0.59851,0.1862 m 48.94635,-14.06224 c -0.004,0.63185 -0.007,1.18615 -0.39159,1.71577 -0.13774,0.18703 -0.31359,0.33463 -0.52092,0.45433 -0.18429,0.1064 -0.56131,0.278 -1.12095,0.18645 -0.78918,-0.1433 -1.32771,-0.67706 -1.72005,-1.35663 -0.3857,-0.66804 -0.71964,-1.56563 -0.52183,-2.34022 0.15709,-0.65891 0.65368,-1.0224 0.861,-1.1421 0.50679,-0.2926 1.16655,-0.32029 1.71028,-0.0967 0.1653,0.0735 0.39353,0.20281 0.73612,0.45039 l 0.32286,-0.47819 c -0.48972,-0.31621 -0.91163,-0.59478 -1.48279,-0.67967 -0.27561,-0.0252 -0.89772,-0.0653 -1.53121,0.30047 -0.41466,0.2394 -0.73491,0.56251 -0.94258,0.9742 -0.51367,0.9723 -0.28197,2.25142 0.25003,3.17287 0.4921,0.85233 1.40645,1.69126 2.37198,1.79419 0.60571,0.065 1.09791,-0.17316 1.29372,-0.28621 0.23036,-0.13301 0.75663,-0.49827 0.98283,-1.19709 0.0553,-0.17018 0.0876,-0.32704 0.11992,-0.4839 l 1.54958,3.08295 -3.05231,1.76225 0.2793,0.48375 3.48999,-2.01495 -2.21374,-4.41952 -0.46964,0.11756 m 6.48722,2.15189 c 0.0961,-0.28582 0.14165,-0.41964 0.21693,-0.55525 0.10627,-0.21494 0.23736,-0.41347 0.3618,-0.62353 0.14569,-0.25305 0.28475,-0.51762 0.4353,-0.78884 l -0.4764,-0.29317 -0.77669,1.55416 -4.08975,-7.08367 1.25549,-0.72485 -0.266,-0.46072 -2.9832,1.72235 0.266,0.46072 1.18637,-0.68494 4.4555,7.71715 0.41465,-0.2394 m 30.728,-35.42603 c 0.37606,0.38605 0.73394,0.77697 0.9345,1.30741 0.0864,0.24947 0.25362,0.83751 -0.12544,1.49404 -0.5453,0.94449 -1.68407,1.05491 -2.594,0.52956 -1.24396,-0.7182 -1.42204,-2.21856 -1.66045,-3.50802 -0.13714,-0.69347 -0.22964,-1.03867 -0.35359,-1.35595 -0.28201,-0.76177 -0.74085,-1.45666 -1.21117,-2.15822 l -0.44921,-0.25935 -2.49992,4.22358 0.5068,0.29261 2.14795,-3.72036 c 0.6014,0.90012 0.91586,1.4195 1.19998,2.44357 0.10709,0.39969 0.19602,0.80426 0.26679,1.2137 0.18486,1.08961 0.3126,2.03874 1.10414,2.84897 0.28748,0.27347 0.54575,0.43794 0.68398,0.51774 0.93296,0.53865 1.74031,0.39048 2.12362,0.25855 0.49897,-0.17264 0.93955,-0.56328 1.22369,-1.0289 0.2261,-0.39161 0.32372,-0.82669 0.29773,-1.28707 -0.0568,-0.93892 -0.61007,-1.55011 -0.81028,-1.78856 -0.11162,-0.12587 -0.21171,-0.24509 -0.32999,-0.35945 l -0.45514,0.33617 m 4.49133,-2.40603 c -0.0597,-0.29555 -0.0871,-0.43425 -0.0898,-0.58933 -0.0154,-0.23927 -9.5e-4,-0.47676 0.002,-0.72091 -3.5e-4,-0.292 -0.0123,-0.59064 -0.0174,-0.90079 l -0.55917,-0.0157 0.10446,1.73427 -7.08366,-4.08976 0.72485,-1.25547 -0.46072,-0.26599 -1.72235,2.98319 0.46072,0.266 0.68495,-1.18637 7.71715,4.4555 0.2394,-0.41465 m 7.39009,-46.68753 0.5586,0 0,-3.3649 3.6309,0 0,4.8013 0.5852,0 0,-5.453 -9.31,0 -1e-5,5.5993 0.55861,0 0,-4.97419 3.9767,-1e-5 0,3.3915 m -7.53602,-48.746436 c 0.13534,-0.723168 0.13083,-0.996988 0.0186,-1.377567 -0.0688,-0.252092 -0.15522,-0.401831 -0.21507,-0.505494 -0.3325,-0.575909 -1.13476,-1.433465 -2.81536,-1.33855 -0.39744,0.02983 -0.79796,0.107483 -1.16703,0.213056 -1.0181,0.311372 -2.12563,0.920085 -2.36751,1.059735 -0.21884,0.12635 -1.75254,0.981122 -2.28164,2.192685 -0.32678,0.710819 -0.30657,1.543817 0.0924,2.234904 0.17955,0.310991 0.66096,0.985215 1.65309,1.134214 1.09447,0.166697 2.03409,-0.360439 2.3566,-0.546639 0.34554,-0.1995 1.45616,-0.856065 1.51288,-2.194206 0.0401,-0.622107 -0.20283,-1.096138 -0.30923,-1.280429 -0.49875,-0.863854 -1.3345,-1.087788 -1.67125,-1.139078 -0.30043,-0.04151 -0.61546,-0.02859 -0.91233,-0.01073 1.0269,-0.562163 1.64579,-0.873411 2.8146,-1.05678 1.19849,-0.185155 1.77548,0.09602 2.19608,0.452124 0.25175,0.22324 0.38297,0.423918 0.45612,0.55062 0.2926,0.506796 0.20544,0.941051 0.10061,1.477658 l 0.53839,0.13453 M 240.861,71.916638 c 0.14665,-0.03857 0.4745,-0.135736 0.86042,-0.158897 0.54101,-0.02052 1.25265,0.121448 1.68477,0.470905 0.16886,0.132867 0.31646,0.308722 0.42286,0.493012 0.24605,0.42618 0.2577,0.818748 0.25201,1.021687 -0.0201,0.656659 -0.33151,1.128201 -0.84936,1.534678 -0.2104,0.167551 -0.44077,0.300561 -0.52139,0.3471 -1.05967,0.611801 -2.46645,0.702202 -3.1381,-0.461129 -0.5985,-1.03663 0.0193,-1.961551 0.23412,-2.254502 0.22145,-0.281429 0.48589,-0.541614 1.05467,-0.992854 M 207.28732,36.992556 c 0.26491,0.15294 0.52319,0.317413 0.79962,0.477013 0.23035,0.13299 0.39162,0.2261 0.57057,0.421562 0.60415,0.655947 0.58834,1.614354 0.13614,2.397591 -0.60515,1.048135 -1.79322,1.483311 -2.81833,0.891461 -0.78322,-0.45219 -0.98283,-1.197104 -1.03589,-1.504163 -0.0372,-0.175027 -0.058,-0.32526 -0.0547,-0.676609 l -0.584,6.93e-4 c -0.004,0.05947 -0.01,0.547657 0.0719,0.886209 0.21989,1.002316 1.00269,1.561732 1.30212,1.734651 0.41465,0.239401 1.66267,0.790999 2.80834,-0.129361 0.42544,-0.337991 0.66309,-0.722922 0.76948,-0.907203 0.56525,-0.979041 0.43524,-1.791272 0.25061,-2.189655 -0.13062,-0.305776 -0.477,-0.690042 -0.50489,-0.721506 0.089,0.0057 0.49623,0.07144 0.86268,0.02195 0.6487,-0.08617 1.23153,-0.563654 1.57067,-1.151077 0.2394,-0.414656 0.7112,-1.524446 -0.12058,-2.557533 -0.11162,-0.125875 -0.35126,-0.402448 -0.73134,-0.621889 -1.15182,-0.665009 -2.16842,-0.207622 -2.58319,-0.04779 l 0.22228,0.466203 c 0.56012,-0.198768 0.98464,-0.322259 1.56638,-0.186048 0.25873,0.05729 0.49574,0.178724 0.57637,0.225274 0.956,0.55195 0.89234,1.513426 0.81158,1.866104 -0.0168,0.08246 -0.0808,0.352668 -0.22705,0.606071 -0.17955,0.310983 -0.4579,0.580298 -0.74906,0.765415 -0.41336,0.237557 -1.07419,0.424128 -2.05323,-0.141113 -0.20732,-0.119709 -0.38984,-0.255797 -0.59051,-0.387011 l -0.266,0.460731 m -49.65264,-17.254745 -1e-5,9.29669 0.66501,0 0,-8.75139 4.58849,8.77799 0.66501,0 0,-9.29669 -0.62511,0 0,8.11299 -4.25599,-8.13959 -1.0374,0"
         inkscape:connector-curvature="0" />
      <path
         style="font-size:10px;font-style:normal;font-variant:normal;font-weight:500;font-stretch:normal;text-align:start;line-height:125%;letter-spacing:0px;word-spacing:0px;writing-mode:lr-tb;text-anchor:start;fill:#ffffff;fill-opacity:1;fill-rule:nonzero;stroke:#ffffff;stroke-width:1.10000002;stroke-linecap:round;stroke-linejoin:round;stroke-miterlimit:4;stroke-opacity:1;stroke-dasharray:none;font-family:Lightline Gothic BQ;-inkscape-font-specification:Lightline Gothic BQ Medium"
         inkscape:connector-curvature="0"
         d="m 144.7088,24.394334 c 0.15689,-0.423178 0.29398,-0.794628 0.68199,-1.055973 0.13814,-0.09186 0.29224,-0.148 0.46064,-0.177688 0.14969,-0.02641 0.44467,-0.0495 0.79794,0.148694 0.49471,0.28899 0.72577,0.778801 0.8231,1.330789 0.0957,0.54263 0.10054,1.226678 -0.22146,1.698258 -0.26642,0.403902 -0.68853,0.526566 -0.85693,0.556253 -0.41165,0.07258 -0.86124,-0.07002 -1.17159,-0.352915 -0.093,-0.08968 -0.21458,-0.232266 -0.38405,-0.482135 l -0.33353,0.242098 c 0.25146,0.331873 0.46658,0.621927 0.82922,0.818435 0.17884,0.08427 0.5866,0.26314 1.10117,0.172406 0.3368,-0.05937 0.6307,-0.198028 0.87067,-0.423624 0.58231,-0.527127 0.73928,-1.44229 0.6073,-2.190738 -0.12207,-0.692322 -0.53085,-1.478789 -1.15377,-1.783749 -0.3907,-0.191567 -0.77923,-0.152 -0.93828,-0.123956 -0.18711,0.03296 -0.62958,0.149597 -0.95214,0.563398 -0.0787,0.1007 -0.1387,0.198094 -0.1987,0.295488 l -0.28693,-2.447856 2.47926,-0.437161 -0.0693,-0.392939 -2.83477,0.499842 0.4062,3.507248 0.34395,0.03581 m -4.19723,0.460332 c 0.21518,-0.0379 0.43201,-0.0665 0.65654,-0.106124 0.18712,-0.03297 0.3181,-0.05605 0.50575,-0.03126 0.63176,0.08151 1.06314,0.613206 1.17531,1.249392 0.15012,0.851362 -0.30015,1.63496 -1.13281,1.781773 -0.63618,0.112176 -1.08739,-0.203766 -1.25742,-0.347425 -0.1007,-0.07876 -0.18104,-0.151363 -0.34061,-0.345097 l -0.31922,0.268508 c 0.0253,0.03411 0.2465,0.30381 0.44625,0.451877 0.58052,0.447488 1.26568,0.394203 1.50893,0.35131 0.3368,-0.05937 1.27293,-0.330562 1.47725,-1.360181 0.0776,-0.380257 0.0309,-0.700008 0.005,-0.84969 -0.14022,-0.795235 -0.58427,-1.179976 -0.86822,-1.313185 -0.21186,-0.10735 -0.57781,-0.158574 -0.60753,-0.162982 0.0512,-0.038 0.30435,-0.188717 0.48213,-0.384056 0.31539,-0.345012 0.41507,-0.873848 0.33094,-1.350995 -0.0594,-0.336804 -0.31078,-1.160663 -1.24024,-1.344051 -0.11887,-0.01767 -0.37696,-0.0589 -0.6857,-0.0048 -0.93557,0.164968 -1.28181,0.88199 -1.43539,1.159884 l 0.33567,0.153035 c 0.21522,-0.36594 0.39081,-0.628415 0.77166,-0.820971 0.16786,-0.0875 0.35332,-0.129827 0.41882,-0.141379 0.77652,-0.136923 1.18313,0.418409 1.30086,0.648461 0.0286,0.05282 0.11774,0.230052 0.15403,0.435879 0.0446,0.252595 0.0159,0.527753 -0.0584,0.762736 -0.11726,0.319713 -0.39303,0.725258 -1.18826,0.865488 -0.1684,0.02964 -0.33075,0.03905 -0.50081,0.05937 l 0.066,0.374233 m -12.86802,4.700553 0.11697,0.321375 2.46387,-0.896771 0.62385,1.71399 0.39278,-0.142956 -0.62384,-1.714009 0.89271,-0.32491 -0.12347,-0.339235 -0.86593,0.315181 -1.55961,-4.285003 -0.57133,0.207955 -0.74601,5.144383 m 1.08291,-4.913172 1.39232,3.992042 -2.08001,0.757065 0.68769,-4.749107 m -4.71876,4.993029 c 0.20533,-0.07467 0.4139,-0.140505 0.62814,-0.218519 0.17855,-0.06498 0.30353,-0.110438 0.49264,-0.118608 0.63631,-0.02945 1.15346,0.419273 1.37441,1.026314 0.29568,0.812373 -0.0117,1.662243 -0.8062,1.951423 -0.60704,0.220942 -1.10626,-0.01187 -1.29866,-0.123794 -0.11284,-0.06004 -0.20456,-0.117629 -0.39535,-0.280706 l -0.26775,0.319855 c 0.0309,0.02917 0.29552,0.256396 0.51794,0.367527 0.64941,0.339881 1.31491,0.168425 1.54701,0.08398 0.32138,-0.116964 1.19619,-0.546583 1.21861,-1.596038 0.0105,-0.38798 -0.0911,-0.694745 -0.14306,-0.837587 -0.27617,-0.758793 -0.7803,-1.06058 -1.08306,-1.14247 -0.22728,-0.06897 -0.59658,-0.05586 -0.62661,-0.05501 0.0438,-0.04626 0.26696,-0.238706 0.40812,-0.461947 0.25068,-0.394535 0.25702,-0.932653 0.0913,-1.38794 -0.11696,-0.321366 -0.5076,-1.089061 -1.45478,-1.108261 -0.12013,0.0028 -0.38147,0.0076 -0.67611,0.11439 -0.8927,0.324919 -1.10919,1.091179 -1.21218,1.391512 l 0.35715,0.09244 c 0.14841,-0.397746 0.27576,-0.686726 0.61738,-0.942495 0.15012,-0.115311 0.32541,-0.189202 0.3879,-0.211945 0.74095,-0.269686 1.23782,0.206597 1.39371,0.412709 0.0373,0.04703 0.1559,0.206112 0.22737,0.402505 0.0877,0.241034 0.1073,0.51699 0.0749,0.761292 -0.0599,0.335236 -0.26111,0.782506 -1.01992,1.05868 -0.16068,0.05852 -0.31894,0.09589 -0.48288,0.145436 l 0.12997,0.357095 M 97.697328,43.305205 c -0.158104,-0.350987 -0.302819,-0.700815 -0.307843,-1.105848 0.003,-0.188537 0.03437,-0.624102 0.449186,-0.972173 0.596749,-0.500726 1.388071,-0.296647 1.870486,0.278284 0.659503,0.785954 0.412493,1.836511 0.257504,2.760253 -0.07737,0.498978 -0.09962,0.753265 -0.09393,0.996522 0.0032,0.580184 0.141379,1.158705 0.285679,1.744504 l 0.23815,0.283822 2.7098,-2.224188 -0.26869,-0.320207 -2.35061,1.9724 c -0.18378,-0.751089 -0.26794,-1.176528 -0.20847,-1.933307 0.0258,-0.294443 0.0649,-0.587727 0.11743,-0.879824 0.14211,-0.77652 0.28824,-1.444798 -0.0451,-2.181998 -0.12615,-0.253792 -0.25932,-0.427272 -0.33259,-0.514596 -0.494629,-0.589475 -1.072732,-0.687258 -1.362242,-0.69236 -0.377096,-0.0057 -0.768232,0.14858 -1.072713,0.391666 -0.247432,0.207613 -0.419246,0.475798 -0.514268,0.79116 -0.191215,0.6441 0.0308,1.189486 0.106921,1.398448 0.04417,0.111748 0.08223,0.216229 0.133676,0.321869 l 0.387606,-0.114456 m -2.176915,3.724067 c 0.167381,-0.140448 0.340868,-0.273619 0.515526,-0.420176 0.145548,-0.122132 0.247432,-0.207622 0.422343,-0.279984 0.587883,-0.245271 1.227302,-5.13e-4 1.642543,0.494352 0.555689,0.662245 0.55754,1.565989 -0.09015,2.109465 -0.494865,0.415245 -1.043606,0.367232 -1.262684,0.327836 -0.126561,-0.01786 -0.232455,-0.04057 -0.467517,-0.128564 l -0.1422,0.392151 c 0.03897,0.01691 0.365383,0.139859 0.612399,0.168207 0.726496,0.09729 1.293221,-0.291403 1.482428,-0.450215 0.261987,-0.21983 0.937114,-0.922735 0.599242,-1.916577 -0.122888,-0.368135 -0.323228,-0.62168 -0.420931,-0.738112 -0.519051,-0.618583 -1.095982,-0.729752 -1.408494,-0.703143 -0.237146,0.01302 -0.579685,0.151601 -0.607631,0.162612 0.02534,-0.05852 0.16922,-0.315609 0.225513,-0.573677 0.100626,-0.456465 -0.07746,-0.964307 -0.3889,-1.335453 -0.219833,-0.261991 -0.849469,-0.849784 -1.746102,-0.543865 -0.111749,0.04417 -0.355929,0.137427 -0.596082,0.33896 -0.727741,0.610641 -0.669095,1.404717 -0.663152,1.722169 l 0.367216,-0.03534 c 0.0034,-0.424526 0.02425,-0.739632 0.257794,-1.096822 0.101633,-0.159686 0.241075,-0.289085 0.292017,-0.331835 0.604026,-0.506835 1.233822,-0.229226 1.450812,-0.08882 0.0512,0.03144 0.216989,0.140362 0.35133,0.300466 0.164875,0.196488 0.277638,0.449112 0.330757,0.689766 0.05831,0.335521 0.02226,0.824619 -0.59632,1.343671 -0.130994,0.109915 -0.266922,0.199167 -0.404023,0.301805 l 0.244261,0.291099 m -10.818264,5.876453 c 0.0053,0.215308 0.0074,0.316284 -0.01,0.425695 -0.01883,0.170221 -0.05831,0.335512 -0.09052,0.506911 -0.03597,0.205437 -0.06467,0.416993 -0.09947,0.635816 l 0.391394,0.08037 0.141633,-1.23291 4.475613,3.755492 -0.665606,0.793241 0.291097,0.244254 1.581579,-1.884847 -0.291097,-0.244264 -0.628968,0.749569 -4.875871,-4.091327 -0.219834,0.261981 m -0.961421,6.392446 c 0.14045,-0.167381 0.288177,-0.328653 0.434731,-0.50331 0.122131,-0.14554 0.207622,-0.247428 0.367309,-0.349059 0.536363,-0.343634 1.208568,-0.213626 1.703433,0.201609 0.662246,0.555693 0.821001,1.445387 0.27752,2.093078 -0.415241,0.494865 -0.963982,0.542868 -1.186571,0.542118 -0.127725,0.0048 -0.235976,4.18e-4 -0.482741,-0.04541 l -0.07194,0.410884 c 0.04133,0.0099 0.384117,0.07429 0.632304,0.05928 0.73235,-0.0304 1.22296,-0.511584 1.381727,-0.700805 0.219834,-0.261982 0.762644,-1.071448 0.257328,-1.991514 -0.184945,-0.341211 -0.426271,-0.556111 -0.54271,-0.653809 -0.618579,-0.519051 -1.20605,-0.528342 -1.509195,-0.447877 -0.231299,0.05387 -0.544561,0.249935 -0.570156,0.265667 0.0148,-0.06204 0.111843,-0.340195 0.122468,-0.604124 0.01983,-0.46701 -0.243745,-0.936196 -0.614891,-1.247625 -0.261989,-0.21984 -0.984128,-0.689368 -1.814017,-0.232399 -0.102386,0.06289 -0.326654,0.197154 -0.528167,0.437314 -0.610648,0.727738 -0.415001,1.499565 -0.354025,1.811165 l 0.355506,-0.09857 c -0.07035,-0.418655 -0.104552,-0.732602 0.06342,-1.124914 0.07236,-0.174904 0.18721,-0.326562 0.229955,-0.377511 0.506839,-0.604019 1.175279,-0.439973 1.413348,-0.339406 0.05588,0.02204 0.238063,0.100538 0.398166,0.234887 0.196492,0.164882 0.351408,0.394079 0.445511,0.621861 0.115686,0.320283 0.165113,0.808212 -0.353938,1.426795 -0.109917,0.130996 -0.22828,0.242507 -0.345475,0.367384 l 0.291096,0.244255 M 71.39167,86.940339 c 0.46109,-0.266893 0.608846,-0.395086 0.77124,-0.619049 0.08445,-0.120906 0.147789,-0.2394 0.199777,-0.382223 0.126718,-0.348156 0.238109,-1.015293 -0.303026,-1.77839 -0.451901,-0.619429 -1.110831,-1.031121 -1.781149,-1.355973 -0.263743,-0.13643 -0.551839,-0.261507 -0.837505,-0.365484 -0.571332,-0.207946 -1.270107,-0.371289 -1.864249,-0.294358 -0.304382,0.03069 -1.186611,0.205371 -1.521345,1.124477 -0.04549,0.124982 -0.127539,0.378195 -0.109782,0.718276 0.01289,0.297863 0.09154,0.49838 0.142669,0.607953 0.337424,0.739508 1.214707,1.079029 1.434635,1.169193 0.955197,0.347662 1.651671,0.04512 1.986963,-0.237234 0.307688,-0.262067 0.432767,-0.550154 0.484753,-0.692996 0.233942,-0.642751 -0.0037,-1.184185 -0.118087,-1.397678 -0.128988,-0.228922 -0.403228,-0.530927 -0.432438,-0.561783 0.724702,0.314317 1.52082,0.654636 2.087985,1.235124 0.149298,0.145321 0.534707,0.558562 0.547505,1.190017 0.0056,0.234574 -0.05451,0.455326 -0.07725,0.517807 -0.146213,0.401727 -0.414912,0.556672 -0.802126,0.759459 l 0.191442,0.362862 m -2.647931,-4.279741 c 0.221536,0.141284 0.333518,0.222481 0.41222,0.311781 0.283994,0.275234 0.564672,0.781783 0.580787,1.181923 0.0088,0.225635 -0.04962,0.386327 -0.08212,0.475599 -0.129968,0.357086 -0.372705,0.551807 -0.486362,0.641858 -0.49926,0.343985 -1.056014,0.262703 -1.612748,0.07011 -0.232104,-0.08446 -0.400898,-0.176244 -0.474743,-0.223345 -0.387082,-0.241984 -0.709178,-0.662502 -0.781286,-1.103254 -0.03809,-0.256481 0.03748,-0.491844 0.06998,-0.581106 0.04549,-0.124982 0.19574,-0.454461 0.529389,-0.676751 0.593421,-0.380494 1.322219,-0.216363 1.510521,-0.178087 0.113627,0.02118 0.223994,0.0512 0.334372,0.08132 m -2.883382,6.810968 c -0.312415,-0.224913 -0.612653,-0.455506 -0.81952,-0.803757 -0.09166,-0.164787 -0.282285,-0.557679 -0.09708,-1.066518 0.266433,-0.732022 1.053786,-0.95094 1.759025,-0.69426 0.964126,0.350921 1.275491,1.384236 1.603134,2.261703 0.18248,0.470801 0.290361,0.702164 0.416915,0.909977 0.292854,0.500868 0.701794,0.932776 1.119661,1.367943 l 0.348156,0.12672 1.234659,-3.2811 -0.392791,-0.142966 -1.049488,2.88345 c -0.534707,-0.558562 -0.820308,-0.884925 -1.147197,-1.570046 -0.124919,-0.267881 -0.23765,-0.541434 -0.338213,-0.820667 -0.265186,-0.743546 -0.472773,-1.395351 -1.130063,-1.867111 -0.23614,-0.156712 -0.438214,-0.240369 -0.545339,-0.279367 -0.723094,-0.263178 -1.272635,-0.0588 -1.525907,0.08151 -0.329581,0.183331 -0.591024,0.512791 -0.733168,0.875549 -0.110473,0.303515 -0.125178,0.62167 -0.04979,0.942295 0.156452,0.65341 0.621417,1.014733 0.791818,1.157632 0.09412,0.07467 0.179329,0.146148 0.276706,0.211917 l 0.27848,-0.292923 m -1.643698,11.453525 c 0.131612,0.6213 0.259912,1.09731 0.818534,1.48522 0.301053,0.20741 0.597135,0.27892 0.728116,0.30201 0.598763,0.10558 1.039536,-0.0965 1.223296,-0.20894 0.647122,-0.38752 0.83358,-1.11673 0.873172,-1.34125 0.06599,-0.37423 0.04391,-0.85081 -0.07446,-1.218962 -0.186631,-0.582749 -0.669857,-0.851248 -0.865783,-0.943664 -0.133739,-0.06213 -0.317551,-0.113876 -0.467244,-0.140277 -0.449061,-0.07913 -0.926188,6.84e-4 -1.286039,0.236408 -0.306491,0.206416 -0.545296,0.521227 -0.774733,0.8377 -0.176165,-0.532693 -0.314367,-0.952565 -0.809698,-1.261771 -0.27022,-0.1634 -0.511828,-0.215659 -0.624095,-0.235448 -0.383575,-0.06764 -0.666988,0.0076 -0.809507,0.05025 -0.858454,0.273078 -1.047112,1.069415 -1.096602,1.350083 -0.04949,0.280681 -0.164376,1.205781 0.587987,1.753241 0.291698,0.20578 0.604843,0.28994 0.735821,0.31303 0.34616,0.061 0.61856,-0.007 0.740727,-0.043 0.548102,-0.15414 0.790193,-0.4877 1.10051,-0.93461 m 0.238231,-0.42103 c 0.101238,-0.13648 0.193123,-0.27462 0.294363,-0.41112 0.117195,-0.172253 0.212377,-0.329117 0.374701,-0.483777 0.322995,-0.299972 0.803963,-0.456333 1.253026,-0.377141 0.32745,0.05776 1.00769,0.303088 1.160242,1.188528 0.04127,0.2581 0.01437,0.46556 -0.0038,0.56848 -0.07094,0.40229 -0.288265,0.75947 -0.375199,0.86955 -0.40495,0.54597 -1.091766,0.50204 -1.297589,0.46576 -0.355507,-0.0627 -0.613091,-0.24316 -0.706105,-0.31744 -0.499187,-0.39671 -0.594472,-0.89584 -0.699667,-1.50284 m -0.317552,-0.11386 c -0.260239,0.43645 -0.51553,0.84481 -1.025099,1.054 -0.217921,0.0869 -0.435282,0.11621 -0.669172,0.075 -0.776513,-0.13692 -1.188263,-0.86549 -1.05794,-1.604582 0.08579,-0.486495 0.376856,-0.878911 0.837445,-1.029211 0.214621,-0.06821 0.460056,-0.09253 0.684594,-0.05291 0.299383,0.05282 0.515128,0.196945 0.600435,0.260215 0.426544,0.316378 0.517954,0.727994 0.563105,0.909598 0.02531,0.12987 0.04127,0.2581 0.06667,0.38796 m -2.160057,5.74001 c -0.346714,-0.16725 -0.682445,-0.34221 -0.946641,-0.64925 -0.118888,-0.14636 -0.374837,-0.50019 -0.280808,-1.03346 0.135273,-0.76717 0.872662,-1.11948 1.611751,-0.98915 1.010412,0.17816 1.496489,1.14171 1.971519,1.94896 0.261461,0.43196 0.407877,0.64107 0.568594,0.82374 0.375381,0.44241 0.853118,0.79675 1.340191,1.15274 l 0.364871,0.0643 0.646148,-3.44564 -0.41165,-0.0726 -0.532841,3.02188 c -0.623567,-0.45723 -0.96151,-0.72904 -1.402403,-1.34698 -0.169532,-0.24213 -0.32806,-0.49194 -0.475581,-0.74948 -0.390263,-0.68619 -0.707892,-1.29206 -1.437114,-1.6425 -0.259757,-0.11333 -0.473299,-0.16063 -0.585566,-0.18043 -0.7578,-0.13361 -1.26351,0.16308 -1.48857,0.34524 -0.292737,0.2378 -0.493002,0.60764 -0.569993,0.98957 -0.05609,0.31809 -0.01532,0.63397 0.114594,0.93663 0.267542,0.61632 0.788183,0.8914 0.98081,1.00254 0.105663,0.0572 0.201983,0.11279 0.309304,0.16065 l 0.223382,-0.33682 m -1.304942,27.05341 c -0.267517,0.45232 -0.331381,0.63722 -0.349031,0.92008 -0.01544,0.18601 0.006,0.30763 0.02086,0.39183 0.08248,0.46779 0.411468,1.23938 1.562689,1.58624 0.274048,0.077 0.56186,0.1228 0.835366,0.14211 0.759436,0.0397 1.651525,-0.0983 1.847994,-0.13293 0.177758,-0.0313 1.416007,-0.23038 2.06713,-0.91435 0.392984,-0.39727 0.582923,-0.96132 0.483944,-1.52266 -0.04455,-0.2526 -0.202954,-0.82276 -0.832473,-1.16514 -0.6939,-0.37927 -1.453359,-0.255 -1.715319,-0.20881 -0.280669,0.0495 -1.186521,0.21886 -1.551506,1.10318 -0.17891,0.40776 -0.131636,0.78528 -0.105242,0.93497 0.123725,0.70168 0.62997,1.05615 0.843479,1.17285 0.191497,0.10129 0.406112,0.16955 0.609722,0.23012 -0.826598,0.12646 -1.318043,0.18417 -2.147353,0.0217 -0.84967,-0.16852 -1.16826,-0.4982 -1.363576,-0.83998 -0.114437,-0.21134 -0.153487,-0.37809 -0.171633,-0.481 -0.07258,-0.41165 0.092,-0.68184 0.293463,-1.0164 l -0.328511,-0.22182 m 4.445703,2.39946 c -0.107862,-0.01 -0.351652,-0.0248 -0.616345,-0.10355 -0.368146,-0.11837 -0.811117,-0.38753 -1.015789,-0.72766 -0.08088,-0.13044 -0.13699,-0.28454 -0.163385,-0.43423 -0.06104,-0.34616 0.02705,-0.6125 0.08045,-0.74733 0.173962,-0.43582 0.498136,-0.67626 0.945015,-0.82259 0.182164,-0.0611 0.369278,-0.094 0.434767,-0.1056 0.860721,-0.15177 1.827045,0.13123 1.993661,1.07616 0.148468,0.842 -0.49217,1.31189 -0.707915,1.45604 -0.217394,0.1348 -0.458451,0.24483 -0.95046,0.40876 m -1.748757,4.96297 c -0.383017,-0.0386 -0.758329,-0.0882 -1.111607,-0.28632 -0.16178,-0.0969 -0.523307,-0.34183 -0.617338,-0.8751 -0.135271,-0.76717 0.437144,-1.35043 1.176241,-1.48075 1.010412,-0.17816 1.796719,0.56103 2.519205,1.15713 0.393435,0.31648 0.602536,0.4629 0.816045,0.5796 0.504052,0.28733 1.074162,0.45692 1.653625,0.62484 l 0.364871,-0.0643 -0.571302,-3.45884 -0.411649,0.0726 0.53284,3.02188 c -0.742351,-0.21638 -1.152872,-0.35622 -1.778526,-0.7861 -0.242116,-0.16954 -0.476529,-0.35008 -0.703234,-0.54162 -0.601428,-0.51133 -1.107109,-0.97202 -1.912216,-1.05192 -0.282862,-0.0177 -0.499693,0.0109 -0.611961,0.0308 -0.757808,0.13361 -1.131539,0.58538 -1.280711,0.83355 -0.193756,0.32357 -0.255451,0.7396 -0.197171,1.12482 0.05609,0.3181 0.202434,0.60098 0.428032,0.84095 0.462201,0.48766 1.045531,0.56808 1.264551,0.60664 0.118867,0.0177 0.228378,0.0369 0.345595,0.0452 l 0.09472,-0.39292 m 4.945477,10.88117 c -0.443992,-0.081 -0.833601,-0.15154 -1.158355,-0.48827 -0.114477,-0.1201 -0.196494,-0.2621 -0.25498,-0.42279 -0.05198,-0.14284 -0.125931,-0.42932 0.0079,-0.81164 0.198693,-0.53737 0.640945,-0.84997 1.167643,-1.04167 0.51777,-0.18847 1.190583,-0.31203 1.710914,-0.0768 0.444023,0.19222 0.638121,0.58662 0.696607,0.74731 0.142959,0.39279 0.0806,0.86031 -0.144114,1.21506 -0.0722,0.10717 -0.191472,0.25167 -0.408119,0.46195 l 0.296334,0.28641 c 0.283172,-0.30525 0.531455,-0.56749 0.662015,-0.95874 0.05189,-0.19075 0.157274,-0.62339 -0.02143,-1.11436 -0.116968,-0.32138 -0.304539,-0.58673 -0.56838,-0.78389 -0.620235,-0.48192 -1.548749,-0.47759 -2.262916,-0.21766 -0.660605,0.24043 -1.364136,0.77958 -1.556299,1.44598 -0.120812,0.41804 -0.01437,0.7938 0.04086,0.94555 0.06499,0.17855 0.256655,0.59405 0.720173,0.83985 0.112844,0.06 0.219174,0.1022 0.32551,0.14436 l -2.360851,0.70764 -0.861036,-2.36568 -0.374943,0.13644 0.984506,2.70491 3.383429,-1.00906 -0.02445,-0.34493 m -0.01796,5.00592 c -0.383897,0.0285 -0.762117,0.0448 -1.144438,-0.0889 -0.176146,-0.0674 -0.574713,-0.24575 -0.759919,-0.7546 -0.266433,-0.73202 0.196004,-1.40581 0.901242,-1.66251 0.964125,-0.35091 1.866844,0.24051 2.681867,0.7021 0.442414,0.24335 0.673762,0.35123 0.904291,0.42908 0.546291,0.19545 1.137186,0.26346 1.737006,0.3282 l 0.34816,-0.12669 -1.163243,-3.30709 -0.392792,0.14296 1.049489,2.88345 c -0.768647,-0.0842 -1.197214,-0.15061 -1.888012,-0.46533 -0.267876,-0.12491 -0.530077,-0.26199 -0.7866,-0.41126 -0.681082,-0.39913 -1.259079,-0.76501 -2.06583,-0.7039 -0.281633,0.0317 -0.490204,0.0975 -0.597335,0.13649 -0.723094,0.26318 -1.012698,0.77298 -1.116509,1.04328 -0.134627,0.3523 -0.123141,0.77272 0.0011,1.14199 0.110472,0.30351 0.303717,0.55668 0.567557,0.75383 0.53986,0.39999 1.128293,0.3779 1.350681,0.37782 0.12013,-0.003 0.231325,-0.003 0.348197,-0.0155 l 0.02504,-0.40339 m 15.840593,24.7245 c -0.14045,-0.16738 -0.273621,-0.34088 -0.420176,-0.51553 -0.122131,-0.14555 -0.20762,-0.24743 -0.279979,-0.42234 -0.245267,-0.58789 -5.1e-4,-1.22731 0.494348,-1.64255 0.662247,-0.55568 1.565994,-0.55753 2.10947,0.0902 0.415241,0.49486 0.367233,1.0436 0.327836,1.26268 -0.01781,0.12656 -0.04057,0.23246 -0.128564,0.46752 l 0.392151,0.1422 c 0.0169,-0.0389 0.139856,-0.36539 0.168211,-0.6124 0.09727,-0.7265 -0.291445,-1.29321 -0.450218,-1.48243 -0.219833,-0.26199 -0.922747,-0.93711 -1.91658,-0.59925 -0.368139,0.1229 -0.621678,0.32323 -0.738116,0.42094 -0.618575,0.51904 -0.729745,1.09598 -0.703141,1.4085 0.01297,0.23714 0.151576,0.57968 0.162618,0.60762 -0.05848,-0.0254 -0.315611,-0.16922 -0.573669,-0.2255 -0.456475,-0.10064 -0.964316,0.0774 -1.335458,0.38889 -0.261986,0.21983 -0.849784,0.84946 -0.543868,1.74611 0.04417,0.11175 0.137444,0.35591 0.338955,0.59607 0.610647,0.72774 1.40473,0.66909 1.72218,0.66315 l -0.03531,-0.36722 c -0.424512,-0.004 -0.739626,-0.0242 -1.096812,-0.25778 -0.159688,-0.10164 -0.289094,-0.24108 -0.33184,-0.29202 -0.506839,-0.60403 -0.229209,-1.23383 -0.08885,-1.45082 0.03145,-0.0512 0.140361,-0.21698 0.300465,-0.35133 0.19649,-0.16488 0.44911,-0.27764 0.689769,-0.33076 0.335516,-0.0583 0.824614,-0.0222 1.343665,0.59632 0.109917,0.131 0.199171,0.26693 0.301812,0.40403 l 0.291096,-0.24426 m 2.120035,4.7878 c -0.350997,0.15807 -0.700812,0.30281 -1.10584,0.30785 -0.188548,-0.003 -0.624109,-0.0344 -0.972179,-0.44919 -0.500731,-0.59675 -0.296625,-1.38808 0.278282,-1.87048 0.785961,-0.6595 1.836527,-0.41248 2.760257,-0.25751 0.498968,0.0773 0.753262,0.0996 0.996515,0.094 0.580192,-0.003 1.158702,-0.14141 1.7445,-0.2857 l 0.283818,-0.23815 -2.224181,-2.70979 -0.320207,0.26869 1.972394,2.3506 c -0.751082,0.18376 -1.176525,0.26794 -1.933301,0.20848 -0.294441,-0.0258 -0.587721,-0.0649 -0.879826,-0.11744 -0.776516,-0.14211 -1.444794,-0.28824 -2.18199,0.0451 -0.253787,0.12617 -0.427278,0.25932 -0.514606,0.3326 -0.589466,0.49462 -0.687251,1.07273 -0.692351,1.36223 -0.006,0.37709 0.14857,0.76824 0.391657,1.07272 0.207621,0.24743 0.475803,0.41925 0.791161,0.51427 0.644103,0.19121 1.189494,-0.0308 1.39845,-0.10692 0.111747,-0.0442 0.216235,-0.0822 0.321886,-0.13364 l -0.11444,-0.38763 m 9.193364,8.80911 c -0.318205,0.21665 -0.63758,0.41992 -1.035583,0.4952 -0.186177,0.0299 -0.620599,0.0745 -1.035409,-0.27355 -0.596749,-0.50073 -0.533166,-1.31547 -0.05076,-1.89038 0.659501,-0.78596 1.736986,-0.72515 2.673608,-0.73292 0.504817,-0.0104 0.759118,-0.0327 0.997691,-0.0806 0.570883,-0.10356 1.116555,-0.34044 1.668392,-0.58428 l 0.238154,-0.28381 -2.660944,-2.2824 -0.268684,0.32022 2.350606,1.97239 c -0.70776,0.31141 -1.112124,0.46816 -1.867727,0.54102 -0.294443,0.0257 -0.590059,0.0382 -0.886852,0.0371 -0.789397,-0.005 -1.472897,-0.033 -2.141006,0.42333 -0.22803,0.16832 -0.375756,0.32959 -0.449035,0.41691 -0.494625,0.58948 -0.490532,1.17577 -0.445282,1.46177 0.05958,0.3724 0.279715,0.73076 0.571984,0.98841 0.247431,0.20761 0.541374,0.33025 0.868443,0.36906 0.667521,0.0765 1.166077,-0.23686 1.358635,-0.34814 0.102386,-0.0629 0.198662,-0.11856 0.293778,-0.18753 L 95.4508,194.7548 m 3.482355,2.92205 c -0.318204,0.21665 -0.637578,0.41992 -1.035584,0.49519 -0.186176,0.0299 -0.620598,0.0745 -1.035407,-0.27354 -0.596749,-0.50073 -0.533166,-1.31547 -0.05076,-1.8904 0.659501,-0.78596 1.736988,-0.72513 2.67361,-0.7329 0.504817,-0.0105 0.759116,-0.0327 0.997696,-0.0805 0.57088,-0.10356 1.11655,-0.34045 1.66839,-0.58428 l 0.23816,-0.28383 -2.660952,-2.28239 -0.268686,0.3202 2.350608,1.9724 c -0.70776,0.31142 -1.11212,0.46817 -1.867728,0.54102 -0.294443,0.0258 -0.590058,0.0382 -0.886851,0.0371 -0.789399,-0.005 -1.472898,-0.033 -2.141007,0.42334 -0.228032,0.16829 -0.375758,0.32956 -0.449035,0.4169 -0.494625,0.58947 -0.490533,1.17576 -0.445282,1.46176 0.05958,0.37241 0.279715,0.73077 0.571983,0.98841 0.247432,0.20762 0.541375,0.33026 0.868443,0.36907 0.667521,0.0765 1.166078,-0.23686 1.358636,-0.34813 0.102386,-0.0629 0.198662,-0.11857 0.293779,-0.18754 l -0.18001,-0.36187 m 27.069032,13.53806 c 0.44432,-1.19298 0.49732,-2.03301 0.39197,-2.57684 -0.1458,-0.82142 -0.69765,-1.19413 -0.99225,-1.30135 -0.18746,-0.0682 -0.66224,-0.18038 -1.18258,0.0548 -0.63883,0.28308 -1.34277,1.07827 -1.88539,2.5691 -0.0748,0.20532 -0.5897,1.56467 -0.32379,2.61176 0.18077,0.75326 0.69201,1.07076 0.96875,1.17148 0.28566,0.10398 0.87489,0.20723 1.49348,-0.21462 0.93115,-0.64173 1.46483,-2.1358 1.52982,-2.31435 m -0.3457,-0.21681 c -0.36798,1.03879 -0.80645,1.68797 -1.13364,2.00361 -0.10799,0.10219 -0.70308,0.65397 -1.36368,0.41353 -0.19638,-0.0714 -0.59322,-0.28668 -0.74078,-0.82566 -0.0941,-0.29707 -0.072,-0.66313 -0.0695,-0.75321 0.0343,-0.8165 0.28451,-1.50389 0.37874,-1.76278 0.24044,-0.66061 0.70581,-1.63362 1.23512,-2.08798 0.49522,-0.41623 1.01143,-0.39009 1.26138,-0.29911 0.25888,0.0942 0.68086,0.37925 0.78942,1.02533 0.0835,0.46511 0.0175,1.22965 -0.35698,2.28629 m 3.67721,2.96606 c -0.22491,0.31241 -0.4555,0.61265 -0.80376,0.81952 -0.16479,0.0917 -0.55768,0.28229 -1.06652,0.0971 -0.73202,-0.26643 -0.95093,-1.05379 -0.69425,-1.75903 0.35092,-0.96412 1.38422,-1.27549 2.2617,-1.60313 0.47081,-0.18249 0.70216,-0.29036 0.90998,-0.41692 0.50087,-0.29286 0.93277,-0.70179 1.36794,-1.11966 l 0.12671,-0.34816 -3.28109,-1.23465 -0.14297,0.39278 2.88345,1.0495 c -0.55857,0.5347 -0.88493,0.8203 -1.57005,1.1472 -0.26788,0.12489 -0.54143,0.23765 -0.82067,0.33821 -0.74353,0.26519 -1.39534,0.47277 -1.8671,1.13006 -0.15671,0.23614 -0.24038,0.43822 -0.27937,0.54534 -0.26318,0.72309 -0.0588,1.27264 0.0815,1.52591 0.18333,0.32958 0.51279,0.59102 0.87554,0.73316 0.30353,0.11048 0.62168,0.12518 0.94231,0.0498 0.65342,-0.15641 1.01473,-0.62141 1.15763,-0.79182 0.0747,-0.0941 0.14615,-0.17933 0.21192,-0.2767 l -0.29293,-0.27848 m 13.37337,-1.46075 c -0.34291,-0.40774 -0.49482,-0.53099 -0.74357,-0.65204 -0.13374,-0.0621 -0.26142,-0.10396 -0.41112,-0.13036 -0.36486,-0.0643 -1.0412,-0.0581 -1.69875,0.60724 -0.53153,0.5526 -0.82255,1.27301 -1.02606,1.98955 -0.0885,0.28343 -0.16172,0.58887 -0.21451,0.88824 -0.10558,0.59877 -0.1451,1.31529 0.0338,1.88705 0.0831,0.29441 0.40794,1.13305 1.37158,1.30297 0.13097,0.0231 0.39458,0.0599 0.72642,-0.0166 0.2911,-0.0644 0.47489,-0.17673 0.57395,-0.24607 0.66967,-0.46071 0.8517,-1.38361 0.9023,-1.61586 0.17651,-1.00106 -0.24238,-1.63442 -0.57866,-1.91559 -0.31152,-0.2575 -0.61696,-0.33065 -0.76665,-0.35704 -0.6736,-0.11879 -1.16552,0.20937 -1.35593,0.359 -0.20305,0.16677 -0.45285,0.48928 -0.47816,0.52342 0.1837,-0.76829 0.38059,-1.6114 0.85378,-2.27075 0.11719,-0.17226 0.45723,-0.62358 1.07687,-0.74583 0.23002,-0.0464 0.45787,-0.0254 0.52336,-0.0139 0.421,0.0742 0.62025,0.31196 0.8872,0.65807 l 0.3241,-0.25154 m -3.75492,3.35087 c 0.10068,-0.2427 0.1612,-0.36708 0.23548,-0.46011 0.22173,-0.32747 0.67185,-0.69184 1.06311,-0.77719 0.22073,-0.0476 0.38907,-0.0182 0.48262,-0.002 0.37423,0.066 0.60815,0.27122 0.71657,0.36752 0.42546,0.43194 0.44204,0.99436 0.34912,1.57606 -0.0429,0.24325 -0.10395,0.42541 -0.13751,0.50632 -0.17108,0.42321 -0.52929,0.81344 -0.95082,0.96099 -0.24597,0.0821 -0.49086,0.0485 -0.58444,0.0319 -0.13098,-0.0231 -0.48154,-0.11385 -0.75839,-0.40383 -0.47776,-0.51835 -0.44264,-1.26458 -0.43771,-1.45664 9.5e-4,-0.11557 0.0115,-0.22949 0.0219,-0.34341 m 5.44354,3.29431 c 0.1838,-0.11228 0.27019,-0.16458 0.37364,-0.20422 0.15683,-0.0689 0.31973,-0.11724 0.48426,-0.1751 0.1959,-0.0716 0.39345,-0.15252 0.60036,-0.23176 l -0.12607,-0.37916 -1.13854,0.4938 1.01453,-5.75374 1.01977,0.17981 0.066,-0.37422 -2.42311,-0.42727 -0.066,0.37424 0.96363,0.1699 -1.10526,6.26831 0.3368,0.0594 m 28.95391,0.50033 3.44289,-0.60708 -0.071,-0.40229 -3.01253,0.53118 1.325,-6.60035 -0.47714,0.0842 -1.26007,6.69502 0.0528,0.29938 m 6.12838,-1.05166 c 0.13431,-0.16837 0.1976,-0.24706 0.28126,-0.31969 0.12384,-0.1183 0.26034,-0.21955 0.39518,-0.33014 0.15961,-0.13426 0.31757,-0.27787 0.48489,-0.42313 l -0.24815,-0.31316 -0.901,0.85341 -1.01453,-5.75373 1.01977,-0.17982 -0.066,-0.37422 -2.42312,0.42725 0.0659,0.37424 0.96365,-0.16992 1.10526,6.2683 0.33681,-0.0594 m 10.70679,-3.13534 c 0.49191,0.18491 0.68509,0.21569 0.96672,0.18396 0.18587,-0.017 0.30197,-0.059 0.38227,-0.0885 0.44636,-0.16244 1.1491,-0.62045 1.29078,-1.81441 0.0283,-0.28326 0.0234,-0.57464 -0.005,-0.84734 -0.0927,-0.75479 -0.38356,-1.60937 -0.4518,-1.79684 -0.0617,-0.16961 -0.47277,-1.35449 -1.2594,-1.87694 -0.45949,-0.31803 -1.04795,-0.40714 -1.58357,-0.21219 -0.24104,0.0878 -0.77502,0.34274 -1.00289,1.02215 -0.25301,0.74922 9.5e-4,1.47556 0.0922,1.72552 0.0975,0.26781 0.42158,1.13049 1.35584,1.33637 0.43263,0.10538 0.79621,-0.007 0.93904,-0.0587 0.66953,-0.24368 0.93072,-0.80379 1.00857,-1.03433 0.0665,-0.20617 0.0965,-0.42939 0.12074,-0.64041 0.26808,0.79207 0.41025,1.26604 0.39431,2.11095 -0.0184,0.86603 -0.28777,1.23702 -0.59043,1.48871 -0.18826,0.1494 -0.3457,0.21682 -0.4439,0.25256 -0.3928,0.14296 -0.68744,0.0278 -1.05192,-0.11251 l -0.16141,0.36204 m 1.59103,-4.79483 c 0.009,0.10794 0.0367,0.35062 0.005,0.62497 -0.0526,0.3831 -0.2408,0.86609 -0.54022,1.12671 -0.11441,0.10227 -0.25642,0.18432 -0.39926,0.23631 -0.33029,0.12026 -0.6079,0.0797 -0.74994,0.0505 -0.45941,-0.0956 -0.75251,-0.37312 -0.9742,-0.78781 -0.0918,-0.16879 -0.15675,-0.34735 -0.1795,-0.40983 -0.29892,-0.82129 -0.18803,-1.82208 0.71361,-2.15024 0.80343,-0.29244 1.37743,0.25688 1.55686,0.44432 0.1705,0.19068 0.32072,0.40897 0.5676,0.86503 m 4.48173,3.16078 c 0.10301,-0.18914 0.15168,-0.27763 0.22146,-0.36368 0.10141,-0.13801 0.21825,-0.26141 0.33184,-0.39374 0.13388,-0.15993 0.2645,-0.32879 0.40405,-0.5009 l -0.29876,-0.26532 -0.73911,0.99691 -1.99825,-5.49015 0.97305,-0.35417 -0.13001,-0.35708 -2.31211,0.84155 0.13001,0.35707 0.91949,-0.33466 2.17695,5.98115 0.32139,-0.11696 m 25.35919,-19.74448 -0.21984,-0.26199 -2.00856,1.6854 -1.17245,-1.39727 -0.3202,0.26869 1.17244,1.39726 -0.72774,0.61065 0.23205,0.27654 0.70591,-0.59233 2.93111,3.49317 0.46575,-0.39082 -1.05847,-5.0893 m 0.66281,4.98725 -2.67372,-3.27509 1.69564,-1.42281 0.97808,4.6979 m 4.15198,-3.09947 c 0.0321,-0.21297 0.0476,-0.31277 0.0837,-0.41751 0.0481,-0.16437 0.11568,-0.32028 0.17716,-0.48348 0.0711,-0.19608 0.13609,-0.39943 0.20836,-0.60889 l -0.37148,-0.14713 -0.35358,1.18958 -3.75549,-4.47562 0.79324,-0.66561 -0.24425,-0.29109 -1.88486,1.58158 0.24426,0.29109 0.74958,-0.62897 4.09134,4.87588 0.26199,-0.21983 m 7.26418,-11.99286 c -0.14045,0.16738 -0.28817,0.32865 -0.43474,0.50331 -0.12211,0.14555 -0.20761,0.24744 -0.3673,0.34907 -0.53637,0.34362 -1.20857,0.21362 -1.70343,-0.20162 -0.66224,-0.55568 -0.821,-1.44538 -0.27752,-2.09307 0.41524,-0.49487 0.96398,-0.54288 1.18657,-0.54212 0.12772,-0.005 0.23597,-4.1e-4 0.48273,0.0454 l 0.0719,-0.41089 c -0.0413,-0.01 -0.38412,-0.0743 -0.63231,-0.0593 -0.73235,0.0304 -1.22296,0.51159 -1.38172,0.70081 -0.21983,0.26198 -0.76264,1.07146 -0.25733,1.99152 0.18494,0.3412 0.42627,0.5561 0.54271,0.6538 0.61858,0.51905 1.20605,0.52835 1.50919,0.44788 0.2313,-0.0539 0.54457,-0.24994 0.57016,-0.26566 -0.0148,0.062 -0.11183,0.34019 -0.12246,0.6041 -0.0199,0.46702 0.24369,0.93623 0.61488,1.24765 0.26199,0.21983 0.98414,0.68936 1.81402,0.2324 0.10239,-0.0629 0.32666,-0.19716 0.52816,-0.43732 0.61066,-0.72775 0.41502,-1.49958 0.35404,-1.81116 l -0.35551,0.0986 c 0.07,0.41873 0.10457,0.73259 -0.0635,1.12492 -0.0724,0.17491 -0.18721,0.32656 -0.22996,0.3775 -0.50683,0.60403 -1.17527,0.43999 -1.41334,0.33941 -0.0559,-0.022 -0.23807,-0.10056 -0.39818,-0.2349 -0.19648,-0.16487 -0.3514,-0.39407 -0.4455,-0.62185 -0.1157,-0.32028 -0.16508,-0.80822 0.35393,-1.42679 0.10993,-0.131 0.22829,-0.24251 0.34548,-0.3674 l -0.2911,-0.24425 m 4.88267,-0.57226 c -0.006,-0.21531 -0.008,-0.31628 0.01,-0.42569 0.0188,-0.17022 0.0583,-0.33551 0.0905,-0.50691 0.0359,-0.20544 0.0647,-0.41699 0.0995,-0.63581 l -0.39139,-0.0804 -0.14165,1.2329 -4.47561,-3.7555 0.66561,-0.79323 -0.2911,-0.24425 -1.58157,1.88485 0.29109,0.24426 0.62897,-0.74959 4.87587,4.09135 0.21983,-0.26198 m 15.50288,-26.45362 c -0.0787,-0.20051 -0.11514,-0.29467 -0.13625,-0.40343 -0.0406,-0.1664 -0.0599,-0.33522 -0.0884,-0.50727 -0.0365,-0.20536 -0.0817,-0.41399 -0.12399,-0.6315 l -0.39528,0.0583 0.28854,1.20699 -5.49014,-1.99825 0.35416,-0.97304 -0.35708,-0.12997 -0.84155,2.31211 0.35709,0.12996 0.33466,-0.91948 5.98115,2.17696 0.11697,-0.32138 m 1.55479,-4.27175 c -0.0787,-0.2005 -0.11514,-0.29466 -0.13625,-0.40342 -0.0406,-0.16641 -0.0599,-0.33522 -0.0884,-0.50727 -0.0365,-0.20536 -0.0817,-0.41399 -0.12399,-0.6315 l -0.39528,0.0583 0.28855,1.20699 -5.49016,-1.99826 0.35417,-0.97304 -0.35708,-0.12996 -0.84154,2.3121 0.35708,0.12997 0.33467,-0.91949 5.98114,2.17696 0.11697,-0.32137 m 0.28002,-15.2584 c -1.25201,-0.23041 -2.08849,-0.13674 -2.60576,0.0615 -0.78362,0.28627 -1.05484,0.89441 -1.10927,1.20315 -0.0346,0.19646 -0.0626,0.68351 0.25933,1.15509 0.38972,0.57998 1.29507,1.13513 2.85747,1.41062 0.21519,0.038 1.64329,0.30906 2.6283,-0.13465 0.71042,-0.30882 0.93433,-0.86742 0.98547,-1.15745 0.0528,-0.29938 0.0522,-0.89758 -0.47072,-1.43352 -0.79368,-0.80556 -2.35773,-1.07169 -2.54484,-1.10469 m -0.15349,0.37809 c 1.08691,0.18201 1.80238,0.50109 2.17003,0.7685 0.11942,0.0886 0.76612,0.57883 0.64405,1.27115 -0.0364,0.20584 -0.17932,0.63399 -0.68448,0.8729 -0.27625,0.14422 -0.64056,0.18607 -0.72971,0.19928 -0.81005,0.10801 -1.53044,-0.0191 -1.80176,-0.0669 -0.69231,-0.12207 -1.73136,-0.4114 -2.27074,-0.85377 -0.4959,-0.41543 -0.5598,-0.92833 -0.51361,-1.19028 0.0479,-0.27132 0.25524,-0.73636 0.87267,-0.95548 0.44353,-0.16299 1.20793,-0.23074 2.31354,-0.0454 m 3.91991,-2.37175 c -0.11229,-0.18379 -0.16458,-0.27018 -0.20422,-0.37364 -0.0689,-0.15682 -0.11724,-0.31972 -0.1751,-0.48425 -0.0716,-0.1959 -0.15253,-0.39345 -0.23177,-0.60037 l -0.37915,0.12608 0.4938,1.13855 -5.75373,-1.01453 0.1798,-1.01978 -0.37423,-0.066 -0.42725,2.42312 0.37422,0.066 0.16992,-0.96365 6.2683,1.10528 0.0594,-0.3368 m -3.80703,-32.48112 c -0.33617,-0.5388 -0.61952,-0.94223 -1.27713,-1.11567 -0.35385,-0.092 -0.65653,-0.0578 -0.7875,-0.0348 -0.59877,0.10557 -0.94387,0.44618 -1.07817,0.61456 -0.47556,0.58547 -0.40137,1.33447 -0.36178,1.559 0.066,0.37423 0.24973,0.81451 0.48688,1.11997 0.3747,0.48378 0.9206,0.57081 1.13633,0.59065 0.14693,0.0127 0.33735,-0.002 0.48704,-0.028 0.44907,-0.0792 0.87009,-0.31741 1.12769,-0.66187 0.21742,-0.29879 0.33414,-0.6763 0.44151,-1.05215 0.34774,0.4403 0.6212,0.78759 1.19242,0.90874 0.30981,0.0612 0.55471,0.0276 0.66698,0.008 0.38359,-0.0676 0.6241,-0.23545 0.74353,-0.32404 0.71329,-0.55022 0.61819,-1.36306 0.56871,-1.64373 -0.0495,-0.28066 -0.25794,-1.18927 -1.15217,-1.4464 -0.34449,-0.0936 -0.66753,-0.0656 -0.79851,-0.0425 -0.34616,0.0611 -0.57896,0.21784 -0.68133,0.29377 -0.46232,0.33233 -0.57574,0.72855 -0.7145,1.25463 m -0.0799,0.47712 c -0.0485,0.16289 -0.0876,0.32413 -0.13601,0.48702 -0.0512,0.20196 -0.087,0.38191 -0.18663,0.58276 -0.20093,0.39235 -0.59941,0.70377 -1.04847,0.78296 -0.32746,0.0578 -1.05058,0.0598 -1.49677,-0.72003 -0.12709,-0.2284 -0.17274,-0.43257 -0.19089,-0.53548 -0.071,-0.4023 0.0111,-0.81228 0.0552,-0.94545 0.19381,-0.65155 0.85422,-0.84517 1.06004,-0.88146 0.35552,-0.0627 0.65928,0.0188 0.77209,0.0568 0.60478,0.20205 0.86501,0.63849 1.17147,1.17289 m 0.33735,-0.002 c 0.0953,-0.49912 0.1955,-0.97019 0.60278,-1.34104 0.17503,-0.15628 0.36931,-0.25805 0.6032,-0.2993 0.77652,-0.13691 1.41261,0.40689 1.54294,1.14599 0.0858,0.48649 -0.0535,0.95479 -0.43493,1.25357 -0.17832,0.13755 -0.40067,0.24428 -0.6252,0.28388 -0.29939,0.0528 -0.55142,-0.009 -0.65323,-0.0391 -0.50902,-0.15141 -0.7357,-0.50695 -0.84025,-0.66215 -0.0682,-0.11337 -0.12709,-0.2284 -0.19531,-0.34178 m -0.89022,-15.924224 -1.19571,-3.285166 -0.38385,0.139745 1.04623,2.874519 -6.73016,-0.158726 0.16575,0.455278 6.81212,0.07837 0.28566,-0.104006 m -21.5291,-30.239077 c 0.44496,-0.07552 0.8352,-0.142452 1.25549,0.0626 0.14865,0.07372 0.27429,0.179094 0.38421,0.31008 0.0977,0.116442 0.26516,0.360373 0.2702,0.765387 -0.003,0.572926 -0.31159,1.017944 -0.74095,1.378222 -0.4221,0.354179 -1.01207,0.700406 -1.58147,0.657333 -0.48299,-0.02878 -0.80029,-0.333003 -0.9102,-0.463989 -0.26868,-0.320207 -0.36999,-0.780862 -0.28015,-1.191082 0.0313,-0.1254 0.0939,-0.301976 0.2255,-0.573676 l -0.37642,-0.167799 c -0.16169,0.383715 -0.30531,0.715046 -0.29418,1.127356 0.0165,0.196992 0.0654,0.639587 0.40128,1.039841 0.21983,0.261982 0.48685,0.447184 0.80221,0.542194 0.74766,0.240739 1.61869,-0.08094 2.20089,-0.569421 0.53852,-0.451877 1.01524,-1.199128 0.96788,-1.89107 -0.0294,-0.434131 -0.25797,-0.750832 -0.36179,-0.874551 -0.12213,-0.14554 -0.44434,-0.47043 -0.96397,-0.542868 -0.12657,-0.01786 -0.24092,-0.02109 -0.35528,-0.02442 l 1.97645,-1.472424 1.61821,1.928519 0.30566,-0.256471 -1.85025,-2.205064 -2.83428,2.105409 0.14096,0.31578 m -13.77528,-12.187047 -0.21982,0.261991 2.00857,1.685395 -1.17245,1.39726 0.3202,0.268689 1.17246,-1.39727 0.72773,0.610651 0.23205,-0.276536 -0.70591,-0.592334 2.93112,-3.493169 -0.46576,-0.390811 -4.82819,1.926134 m 4.7964,-1.518765 -2.76106,3.201814 -1.69563,-1.422806 4.45669,-1.779008 M 192.36792,27.341462 c 0.22492,-0.312417 0.45551,-0.612655 0.80377,-0.819508 0.16479,-0.09168 0.55768,-0.282293 1.06653,-0.09709 0.73201,0.266437 0.95093,1.053787 0.69424,1.759029 -0.35091,0.964127 -1.38423,1.275489 -2.2617,1.603135 -0.4708,0.182476 -0.70216,0.290367 -0.90997,0.416917 -0.50087,0.292847 -0.93279,0.701793 -1.36795,1.11966 l -0.12672,0.348156 3.28111,1.234658 0.14295,-0.392796 -2.88344,-1.049484 c 0.55855,-0.534708 0.88493,-0.820316 1.57005,-1.147201 0.26788,-0.124887 0.54143,-0.237643 0.82067,-0.33821 0.74352,-0.265192 1.39534,-0.472767 1.8671,-1.130063 0.15672,-0.236141 0.24038,-0.438216 0.27936,-0.545338 0.26319,-0.723092 0.0588,-1.272629 -0.0815,-1.525909 -0.18333,-0.329574 -0.51279,-0.591023 -0.87555,-0.733172 -0.30351,-0.110475 -0.62168,-0.125162 -0.9423,-0.04978 -0.65342,0.156408 -1.01472,0.621414 -1.15762,0.791816 -0.0747,0.09415 -0.14615,0.179331 -0.21192,0.276706 l 0.29291,0.278474 m -14.72608,-5.688458 c -0.1838,0.112281 -0.27019,0.164588 -0.37364,0.204212 -0.15683,0.06887 -0.31973,0.117249 -0.48426,0.175104 -0.1959,0.07154 -0.39345,0.152523 -0.60037,0.231762 l 0.12609,0.379155 1.13854,-0.493791 -1.01453,5.753741 -1.01978,-0.179816 -0.0659,0.374224 2.42312,0.427263 0.066,-0.374224 -0.96364,-0.169917 1.10528,-6.2683 -0.3368,-0.05937"
         id="compass-labels-minor" />
    </g>
  </g>
  <g
     inkscape:groupmode="layer"
     id="origin"
     inkscape:label="origin"
     style="display:inline">
    <rect
       style="fill:none;stroke:#aa0000;stroke-width:1.99430394;stroke-miterlimit:4;stroke-opacity:1;stroke-dasharray:none;display:inline"
       id="rect6862"
       width="322.20142"
       height="241.96362"
       x="-0.99684024"
       y="-1"
       rx="24.16379"
       ry="0" />
  </g>
  <g
     inkscape:groupmode="layer"
     id="targets"
     inkscape:label="targets"
     style="display:none" />
  <g
     inkscape:groupmode="layer"
     id="display"
     inkscape:label="display">
    <path
       sodipodi:type="arc"
       style="fill:none;stroke:#ffffff;stroke-width:1.32664454;stroke-linecap:round;stroke-miterlimit:4;stroke-opacity:1;stroke-dasharray:none;display:inline"
       id="path4084"
       sodipodi:cx="91.216766"
       sodipodi:cy="43.070774"
       sodipodi:rx="66.821587"
       sodipodi:ry="66.821587"
       d="m 158.03835,43.070774 a 66.821587,66.821587 0 1 1 0,-0.0086"
       sodipodi:start="0"
       sodipodi:end="6.2830573"
       sodipodi:open="true"
       transform="matrix(0.88192425,0,0,0.88192425,79.553722,82.01484)" />
    <path
       style="fill:#00ff00;fill-opacity:1;stroke:#00ff00;stroke-width:1px;stroke-linecap:butt;stroke-linejoin:miter;stroke-opacity:1"
       d="m 150.43696,116.43526 9.54594,-8.66206 9.45755,8.66206 z"
       id="compass-display-heading"
       inkscape:connector-curvature="0"
       sodipodi:nodetypes="cccc" />
    <path
       style="fill:none;stroke:#00ff00;stroke-width:2;stroke-linecap:butt;stroke-linejoin:miter;stroke-miterlimit:4;stroke-opacity:1;stroke-dasharray:none"
       d="m 159.9829,121.64801 -0.24999,-9.63325"
       id="compass-display-heading-line"
       inkscape:connector-curvature="0"
       sodipodi:nodetypes="cc" />
    <path
       style="fill:#ffffff;fill-opacity:0.81666667;stroke:#ffffff;stroke-width:1.01637864;stroke-linecap:butt;stroke-linejoin:miter;stroke-miterlimit:4;stroke-opacity:1;stroke-dasharray:none;display:inline"
       d="M 133.02292,130.36912 160,106.52014 l 26.97708,23.84898 -3.07792,3.11074 -10.13904,-8.55452 -6.15584,4.92532 -3.80214,-2.50587 -3.44003,3.54279 -3.80214,-3.54279 -3.80214,2.33305 -6.15584,-4.7525 -10.32009,8.55452 z"
       id="compass-display-body"
       inkscape:connector-curvature="0"
       sodipodi:nodetypes="ccccccccccccc" />
    <path
       id="compass-control"
       style="font-size:medium;font-style:normal;font-variant:normal;font-weight:normal;font-stretch:normal;text-indent:0;text-align:start;text-decoration:none;line-height:normal;letter-spacing:normal;word-spacing:normal;text-transform:none;direction:ltr;block-progression:tb;writing-mode:lr-tb;text-anchor:start;baseline-shift:baseline;color:#000000;fill:none;stroke:#ff00ff;stroke-width:2;stroke-miterlimit:4;stroke-opacity:1;stroke-dasharray:none;marker:none;visibility:visible;display:inline;overflow:visible;enable-background:accumulate;font-family:Sans;-inkscape-font-specification:Sans"
       d="m 166.64553,178.96627 0.15362,14.57633 c 0.21707,0.0144 -13.60084,0.10132 -13.60084,0.10132 l 0.13303,-14.50088 m 13.29987,-118.276047 0.15361,-14.57633 4.47659,4.154994 -11.43815,-11.30975 -11.08468,11.511427 4.4454,-4.457995 0.13303,14.500878 m 6.50621,-30.17059 0,9.015616 M 160,193.50773 l 0,14.14214"
       inkscape:connector-curvature="0" />
  </g>
  <g
     inkscape:groupmode="layer"
     id="layer5"
     inkscape:label="labels"
     style="display:inline">
    <text
       xml:space="preserve"
       style="font-size:12px;font-style:normal;font-variant:normal;font-weight:normal;font-stretch:normal;text-align:start;line-height:125%;letter-spacing:0px;word-spacing:0px;writing-mode:lr-tb;text-anchor:start;fill:#00ff00;fill-opacity:1;stroke:none;display:inline;font-family:Sans;-inkscape-font-specification:Sans"
       x="210.50725"
       y="43.623985"
       id="text3978"
       sodipodi:linespacing="125%"
       transform="scale(0.82879725,1.2065677)"><tspan
         sodipodi:role="line"
         id="tspan3980"
         x="210.50725"
         y="43.623985"
         style="font-size:12px;font-style:normal;font-variant:normal;font-weight:500;font-stretch:normal;text-align:start;line-height:125%;writing-mode:lr-tb;text-anchor:start;fill:#00ff00;fill-opacity:1;font-family:Lightline Gothic BQ;-inkscape-font-specification:Lightline Gothic BQ Medium">MAG</tspan></text>
    <text
       transform="scale(0.82879725,1.2065677)"
       sodipodi:linespacing="125%"
       id="gps-indicator"
       y="43.745354"
       x="154.82999"
       style="font-size:12px;font-style:normal;font-variant:normal;font-weight:normal;font-stretch:normal;text-align:start;line-height:125%;letter-spacing:0px;word-spacing:0px;writing-mode:lr-tb;text-anchor:start;fill:#00ff00;fill-opacity:1;stroke:none;display:inline;font-family:Sans;-inkscape-font-specification:Sans"
       xml:space="preserve"><tspan
         style="font-size:12px;font-style:normal;font-variant:normal;font-weight:500;font-stretch:normal;text-align:start;line-height:125%;writing-mode:lr-tb;text-anchor:start;fill:#00ff00;fill-opacity:1;font-family:Lightline Gothic BQ;-inkscape-font-specification:Lightline Gothic BQ Medium"
         y="43.745354"
         x="154.82999"
         id="tspan3219"
         sodipodi:role="line">GPS</tspan></text>
    <path
       inkscape:connector-curvature="0"
       style="fill:#000000;fill-opacity:0.62222224;fill-rule:evenodd;stroke:#ffffff;stroke-width:1.15031052;stroke-linecap:square;stroke-linejoin:miter;stroke-miterlimit:4;stroke-opacity:1;stroke-dashoffset:0;marker:none;visibility:visible;display:inline;overflow:visible;enable-background:accumulate"
       d="m 174.50583,37.530007 0.17678,-17.552097 -9.50334,0 -5.1275,-6.048761 -5.1275,6.048761 -9.50334,0 -0.10355,17.62532 z"
       id="path3960"
       sodipodi:nodetypes="cccccccc" />
    <text
       xml:space="preserve"
       style="font-size:13.62171936000000017px;font-style:normal;font-variant:normal;font-weight:500;font-stretch:normal;text-align:center;line-height:125%;letter-spacing:0px;word-spacing:0px;writing-mode:lr-tb;text-anchor:middle;fill:#ff00ff;fill-opacity:1;stroke:#ffffff;display:inline;font-family:Lightline Gothic BQ;-inkscape-font-specification:Lightline Gothic BQ Medium;stroke-opacity:1"
       x="181.5992"
       y="29.772425"
       id="compass-value"
       sodipodi:linespacing="125%"
       transform="scale(0.88094605,1.1351433)"><tspan
         sodipodi:role="line"
         id="tspan6866"
         x="181.5992"
         y="29.772425"
         style="font-size:13.62171936000000017px;font-style:normal;font-variant:normal;font-weight:500;font-stretch:normal;text-align:center;line-height:125%;writing-mode:lr-tb;text-anchor:middle;fill:#ffffff;fill-opacity:1;font-family:Lightline Gothic BQ;-inkscape-font-specification:Lightline Gothic BQ Medium;stroke:#ffffff;stroke-opacity:1">230</tspan></text>
  </g>
</svg>
