<?xml version="1.0" encoding="UTF-8" standalone="no"?>
<!-- Created with Inkscape (http://www.inkscape.org/) -->

<svg
   xmlns:dc="http://purl.org/dc/elements/1.1/"
   xmlns:cc="http://creativecommons.org/ns#"
   xmlns:rdf="http://www.w3.org/1999/02/22-rdf-syntax-ns#"
   xmlns:svg="http://www.w3.org/2000/svg"
   xmlns="http://www.w3.org/2000/svg"
   xmlns:xlink="http://www.w3.org/1999/xlink"
   xmlns:sodipodi="http://sodipodi.sourceforge.net/DTD/sodipodi-0.dtd"
   xmlns:inkscape="http://www.inkscape.org/namespaces/inkscape"
   width="320"
   height="240"
   id="pfd-svg"
   sodipodi:version="0.32"
   inkscape:version="0.48.2 r9819"
   version="1.0"
   sodipodi:docname="topokite.pfd.svg"
   inkscape:output_extension="org.inkscape.output.svg.inkscape"
   style="display:inline"
   class="pfd-svg">
  <defs
     id="defs4">
    <linearGradient
       id="linearGradient3105">
      <stop
         id="stop3107"
         offset="0"
         style="stop-color:#0080ff;stop-opacity:1;" />
      <stop
         style="stop-color:#0080ff;stop-opacity:1;"
         offset="0.5"
         id="stop3109" />
      <stop
         id="stop3111"
         offset="0.5"
         style="stop-color:#804000;stop-opacity:1;" />
      <stop
         id="stop3113"
         offset="1"
         style="stop-color:#804000;stop-opacity:1;" />
    </linearGradient>
    <linearGradient
       id="linearGradient3159">
      <stop
         style="stop-color:#0080ff;stop-opacity:1;"
         offset="0"
         id="stop3161" />
      <stop
         id="stop3169"
         offset="0.5"
         style="stop-color:#0080ff;stop-opacity:1;" />
      <stop
         style="stop-color:#804000;stop-opacity:1;"
         offset="0.5"
         id="stop3171" />
      <stop
         style="stop-color:#804000;stop-opacity:1;"
         offset="1"
         id="stop3163" />
    </linearGradient>
    <inkscape:perspective
       sodipodi:type="inkscape:persp3d"
       inkscape:vp_x="0 : 526.18109 : 1"
       inkscape:vp_y="0 : 1000 : 0"
       inkscape:vp_z="744.09448 : 526.18109 : 1"
       inkscape:persp3d-origin="372.04724 : 350.78739 : 1"
       id="perspective10" />
    <linearGradient
       inkscape:collect="always"
       xlink:href="#linearGradient3159"
       id="linearGradient4252"
       gradientUnits="userSpaceOnUse"
       gradientTransform="matrix(0.80495611,0,0,0.80495611,326.49544,390.81394)"
       x1="518.57141"
       y1="617.80591"
       x2="518.57141"
       y2="892.86505" />
  </defs>
  <sodipodi:namedview
     id="base"
     pagecolor="#ffffff"
     bordercolor="#666666"
     borderopacity="1.0"
     gridtolerance="10000"
     guidetolerance="10"
     objecttolerance="10"
     inkscape:pageopacity="0.0"
     inkscape:pageshadow="2"
     inkscape:zoom="1.4142137"
     inkscape:cx="140.60824"
     inkscape:cy="319.82894"
     inkscape:document-units="px"
     inkscape:current-layer="targets"
     showgrid="false"
     inkscape:window-width="1091"
     inkscape:window-height="1091"
     inkscape:window-x="815"
     inkscape:window-y="7"
     inkscape:window-maximized="0" />
  <metadata
     id="metadata7">
    <rdf:RDF>
      <cc:Work
         rdf:about="">
        <dc:format>image/svg+xml</dc:format>
        <dc:type
           rdf:resource="http://purl.org/dc/dcmitype/StillImage" />
        <dc:title />
      </cc:Work>
    </rdf:RDF>
  </metadata>
  <g
     inkscape:groupmode="layer"
     id="bg"
     inkscape:label="bg"
     style="display:none"
     sodipodi:insensitive="true">
    <rect
       style="fill:#626262;fill-opacity:1;stroke:none;display:inline"
       id="rect3897"
       width="81.355873"
       height="1435.9003"
       x="220.88503"
       y="-703.00671" />
    <rect
       y="-702.52142"
       x="5.1907277"
       height="1435.9003"
       width="81.355873"
       id="rect3890"
       style="fill:#626262;fill-opacity:1;stroke:none;display:inline" />
  </g>
  <g
     inkscape:groupmode="layer"
     id="horizon"
     inkscape:label="horizon"
     style="display:inline">
    <rect
       style="fill:#0100ff;fill-opacity:0.49803922;stroke:none"
       id="horizon-sky"
       width="544.47217"
       height="310.41986"
       x="-112.23608"
       y="-191.21986"
       rx="0" />
    <rect
       rx="0"
       y="120.69914"
       x="-112.23608"
       height="310.41986"
       width="544.47217"
       id="horizon-land"
       style="fill:#401f00;fill-opacity:0.5;stroke:none" />
    <path
       style="fill:none;stroke:#ffffff;stroke-width:1.20754719;stroke-linecap:butt;stroke-linejoin:miter;stroke-miterlimit:4;stroke-opacity:1;stroke-dasharray:none;stroke-dashoffset:0;marker:none;visibility:visible;display:inline;overflow:visible;enable-background:accumulate"
       d="m 130.12499,-20.54683 59.75,0 -59.75,0 z m 22.875,8.78125 14,0 -14,0 z m -7.5,8.7812497 29,0 -29,0 z m 7.5,8.7812503 14,0 -14,0 z m -22.875,8.78125 59.75,0 -59.75,0 z m 22.875,8.78125 14,0 -14,0 z m -7.5,8.78125 29,0 -29,0 z m 7.5,8.78125 14,0 -14,0 z m -22.875,8.78125 59.75,0 -59.75,0 z m 22.875,8.78125 14,0 -14,0 z m -7.5,8.8125 29,0 -29,0 z m 7.5,8.78125 14,0 -14,0 z m -22.875,8.78125 59.75,0 -59.75,0 z m 22.875,8.78125 14,0 -14,0 z m -7.5,8.78125 29,0 -29,0 z m 7.5,8.78125 14,0 -14,0 z m -103.093733,8.78125 220.187483,0 -220.187482,0 z m 103.093733,8.78125 14,0 -14,0 z m -7.5,8.78125 29,0 -29,0 z m 7.5,8.78125 14,0 -14,0 z m -22.875,8.8125 59.75,0 -59.75,0 z m 22.875,8.78125 14,0 -14,0 z m -7.5,8.78125 29,0 -29,0 z m 7.5,8.78125 14,0 -14,0 z m -22.875,8.78125 59.75,0 -59.75,0 z m 22.875,8.78126 14,0 -14,0 z m -7.5,8.7812 29,0 -29,0 z m 7.5,8.7813 14,0 -14,0 z m -22.875,8.7812 59.75,0 -59.75,0 z m 22.875,8.7813 14,0 -14,0 z m -7.5,8.7812 29,0 -29,0 z m 7.5,8.8124 14,0 -14,0 z m -22.875,8.7813 59.75,0 -59.75,0 z"
       id="horizon-grid"
       inkscape:connector-curvature="0" />
    <path
       id="horizon-scale-labels"
       style="font-size:20px;font-style:normal;font-variant:normal;font-weight:bold;font-stretch:normal;text-align:center;line-height:125%;writing-mode:lr-tb;text-anchor:middle;fill:#ffffff;fill-opacity:1;stroke:#ffffff;stroke-width:1.10000002;stroke-miterlimit:4;stroke-opacity:1;stroke-dasharray:none;font-family:Letter Gothic Std;-inkscape-font-specification:Letter Gothic Std Bold"
       d="m 114.99068,53.04671 c 0.0289,-0.5467 0.16427,-1.0171 0.40603,-1.4113 0.24176,-0.3942 0.56125,-0.765 0.95848,-1.1124 l 0.62791,-0.5676 c 0.46666,-0.3884 0.90087,-0.81 1.30263,-1.2649 0.40175,-0.4548 0.61558,-1.0032 0.6415,-1.6452 -0.0111,-0.6634 -0.21535,-1.1781 -0.61282,-1.5442 -0.39749,-0.366 -0.92176,-0.5517 -1.57281,-0.5569 -0.77987,0.015 -1.37861,0.2596 -1.79621,0.7335 -0.4176,0.474 -0.64804,1.0868 -0.69131,1.8385 l 0.90565,0 c 0.0201,-0.4875 0.15496,-0.9072 0.40452,-1.2589 0.24956,-0.3516 0.63798,-0.5358 1.16527,-0.5524 0.41307,0.01 0.73106,0.1301 0.95395,0.3728 0.22288,0.2428 0.33559,0.5693 0.33811,0.9796 -0.0315,0.4934 -0.24327,0.9497 -0.63546,1.3691 -0.39221,0.4193 -0.7761,0.7761 -1.15169,1.0701 -0.68653,0.5568 -1.21533,1.1188 -1.58639,1.6861 -0.37107,0.5673 -0.55874,1.3134 -0.56301,2.2384 l 0,0.3864 4.86635,0 0,-0.7607 -3.9607,0 z m 11.27372,-3.5864 c 0.0154,-0.4511 -0.0167,-1.0274 -0.0962,-1.729 -0.0795,-0.7015 -0.29846,-1.3333 -0.65698,-1.8954 -0.35854,-0.562 -0.94874,-0.8592 -1.77061,-0.8917 -0.67408,0.02 -1.18929,0.231 -1.54563,0.6343 -0.35636,0.4033 -0.60289,0.8812 -0.73962,1.4336 -0.13673,0.5523 -0.2127,1.0619 -0.22792,1.5286 -0.0152,0.4667 -0.0187,0.7733 -0.0106,0.9196 -0.0158,0.3751 0.0145,0.9157 0.0908,1.6217 0.0763,0.706 0.29354,1.3557 0.65162,1.949 0.35809,0.5934 0.95186,0.9085 1.78133,0.9455 0.83708,-0.033 1.43443,-0.3342 1.79207,-0.9025 0.35763,-0.5683 0.57305,-1.2037 0.64626,-1.9061 0.0732,-0.7025 0.10166,-1.2717 0.0854,-1.7076 l 0,0 z m -4.14183,0 c -0.0118,-0.3048 0.001,-0.751 0.0385,-1.3385 0.0374,-0.5876 0.17009,-1.1295 0.39803,-1.6257 0.22794,-0.4963 0.62181,-0.76 1.18159,-0.7912 0.44779,-0.036 0.82615,0.205 1.13509,0.723 0.30892,0.518 0.46992,1.5288 0.48301,3.0324 -0.005,1.05 -0.086,1.8468 -0.2424,2.3905 -0.15639,0.5437 -0.35705,0.9103 -0.60198,1.0997 -0.24494,0.1895 -0.50284,0.2779 -0.77372,0.2652 -0.53697,-0.026 -0.9201,-0.268 -1.14939,-0.7267 -0.22928,-0.4587 -0.36733,-0.9792 -0.41413,-1.5613 -0.0468,-0.5821 -0.065,-1.0713 -0.0546,-1.4674 l 0,0 z m 72.51433,3.5864 c 0.0289,-0.5467 0.16428,-1.0171 0.40603,-1.4113 0.24176,-0.3942 0.56125,-0.765 0.95848,-1.1124 l 0.62792,-0.5676 c 0.46666,-0.3884 0.90086,-0.81 1.30262,-1.2649 0.40175,-0.4548 0.61559,-1.0032 0.64151,-1.6452 -0.0111,-0.6634 -0.21536,-1.1781 -0.61283,-1.5442 -0.39748,-0.366 -0.92175,-0.5517 -1.57281,-0.5569 -0.77986,0.015 -1.3786,0.2596 -1.7962,0.7335 -0.41761,0.474 -0.64804,1.0868 -0.69131,1.8385 l 0.90565,0 c 0.0201,-0.4875 0.15496,-0.9072 0.40452,-1.2589 0.24955,-0.3516 0.63797,-0.5358 1.16527,-0.5524 0.41307,0.01 0.73105,0.1301 0.95395,0.3728 0.22288,0.2428 0.33559,0.5693 0.33811,0.9796 -0.0315,0.4934 -0.24327,0.9497 -0.63547,1.3691 -0.3922,0.4193 -0.77609,0.7761 -1.15168,1.0701 -0.68654,0.5568 -1.21533,1.1188 -1.58639,1.6861 -0.37107,0.5673 -0.55874,1.3134 -0.56302,2.2384 l 0,0.3864 4.86636,0 0,-0.7607 -3.96071,0 z m 11.27372,-3.5864 c 0.0153,-0.4511 -0.0167,-1.0274 -0.0962,-1.729 -0.0795,-0.7015 -0.29846,-1.3333 -0.65699,-1.8954 -0.35854,-0.562 -0.94874,-0.8592 -1.77059,-0.8917 -0.67409,0.02 -1.18931,0.231 -1.54565,0.6343 -0.35635,0.4033 -0.60288,0.8812 -0.73961,1.4336 -0.13673,0.5523 -0.21271,1.0619 -0.22792,1.5286 -0.0152,0.4667 -0.0187,0.7733 -0.0106,0.9196 -0.0158,0.3751 0.0145,0.9157 0.0908,1.6217 0.0763,0.706 0.29353,1.3557 0.65162,1.949 0.35808,0.5934 0.95186,0.9085 1.78134,0.9455 0.83706,-0.033 1.43442,-0.3342 1.79206,-0.9025 0.35763,-0.5683 0.57305,-1.2037 0.64625,-1.9061 0.0732,-0.7025 0.10166,-1.2717 0.0854,-1.7076 l 0,0 z m -4.14183,0 c -0.0118,-0.3048 0.001,-0.751 0.0385,-1.3385 0.0374,-0.5876 0.1701,-1.1295 0.39804,-1.6257 0.22793,-0.4963 0.6218,-0.76 1.1816,-0.7912 0.44778,-0.036 0.82614,0.205 1.13507,0.723 0.30892,0.518 0.46993,1.5288 0.48301,3.0324 -0.005,1.05 -0.086,1.8468 -0.2424,2.3905 -0.15638,0.5437 -0.35704,0.9103 -0.60197,1.0997 -0.24494,0.1895 -0.50285,0.2779 -0.77371,0.2652 -0.53699,-0.026 -0.92012,-0.268 -1.1494,-0.7267 -0.22929,-0.4587 -0.36733,-0.9792 -0.41414,-1.5613 -0.0468,-0.5821 -0.065,-1.0713 -0.0546,-1.4674 l 0,0 z m -84.92455,30.92324 -2.60827,0.82112 0,0.68829 1.70262,-0.51923 0,7.20896 -1.63017,0 0,0.76074 4.09353,0 0,-0.76074 -1.55771,0 0,-8.19914 z m 9.26922,4.61277 c 0.0154,-0.4511 -0.0167,-1.02744 -0.0962,-1.729 -0.0795,-0.70156 -0.29846,-1.33335 -0.65698,-1.89538 -0.35854,-0.56202 -0.94874,-0.85928 -1.77061,-0.89179 -0.67408,0.0196 -1.18929,0.23101 -1.54563,0.63433 -0.35636,0.40334 -0.60289,0.88119 -0.73962,1.43357 -0.13673,0.55239 -0.2127,1.06194 -0.22792,1.52866 -0.0152,0.46673 -0.0187,0.77327 -0.0106,0.91961 -0.0158,0.37509 0.0145,0.91564 0.0908,1.62167 0.0763,0.70604 0.29354,1.35572 0.65162,1.94905 0.35809,0.59333 0.95186,0.90848 1.78133,0.94545 0.83708,-0.0334 1.43443,-0.33424 1.79207,-0.90252 0.35763,-0.56828 0.57305,-1.20365 0.64626,-1.90611 0.0732,-0.70245 0.10166,-1.27163 0.0854,-1.70754 l 0,0 z m -4.14183,0 c -0.0118,-0.30486 10e-4,-0.75105 0.0385,-1.33857 0.0374,-0.58751 0.17009,-1.12941 0.39803,-1.62569 0.22794,-0.49628 0.62181,-0.76 1.18159,-0.79116 0.44779,-0.036 0.82615,0.20504 1.13509,0.72301 0.30892,0.51799 0.46992,1.52879 0.48301,3.03241 -0.005,1.04996 -0.086,1.84678 -0.2424,2.39046 -0.15639,0.5437 -0.35705,0.91028 -0.60198,1.09975 -0.24494,0.18948 -0.50284,0.27789 -0.77372,0.26521 -0.53697,-0.0258 -0.9201,-0.26804 -1.14939,-0.72675 -0.22928,-0.45872 -0.36733,-0.97914 -0.41413,-1.5613 -0.0468,-0.58214 -0.065,-1.07127 -0.0546,-1.46737 l 0,0 z m 74.51884,-4.61277 -2.60828,0.82112 0,0.68829 1.70263,-0.51923 0,7.20896 -1.63017,0 0,0.76074 4.09353,0 0,-0.76074 -1.55771,0 0,-8.19914 z m 9.26921,4.61277 c 0.0153,-0.4511 -0.0167,-1.02744 -0.0962,-1.729 -0.0795,-0.70156 -0.29846,-1.33335 -0.65699,-1.89538 -0.35854,-0.56202 -0.94874,-0.85928 -1.77059,-0.89179 -0.67409,0.0196 -1.18931,0.23101 -1.54565,0.63433 -0.35635,0.40334 -0.60288,0.88119 -0.73961,1.43357 -0.13673,0.55239 -0.21271,1.06194 -0.22792,1.52866 -0.0152,0.46673 -0.0187,0.77327 -0.0106,0.91961 -0.0158,0.37509 0.0145,0.91564 0.0908,1.62167 0.0763,0.70604 0.29353,1.35572 0.65162,1.94905 0.35808,0.59333 0.95186,0.90848 1.78134,0.94545 0.83706,-0.0334 1.43442,-0.33424 1.79206,-0.90252 0.35763,-0.56828 0.57305,-1.20365 0.64625,-1.90611 0.0732,-0.70245 0.10166,-1.27163 0.0854,-1.70754 l 0,0 z m -4.14183,0 c -0.0118,-0.30486 0.001,-0.75105 0.0385,-1.33857 0.0374,-0.58751 0.1701,-1.12941 0.39804,-1.62569 0.22793,-0.49628 0.6218,-0.76 1.1816,-0.79116 0.44778,-0.036 0.82614,0.20504 1.13507,0.72301 0.30892,0.51799 0.46993,1.52879 0.48301,3.03241 -0.005,1.04996 -0.086,1.84678 -0.2424,2.39046 -0.15638,0.5437 -0.35704,0.91028 -0.60197,1.09975 -0.24494,0.18948 -0.50285,0.27789 -0.77371,0.26521 -0.53699,-0.0258 -0.92012,-0.26804 -1.1494,-0.72675 -0.22929,-0.45872 -0.36733,-0.97914 -0.41414,-1.5613 -0.0468,-0.58214 -0.065,-1.07127 -0.0546,-1.46737 l 0,0 z m -84.77361,65.74937 -2.60827,0.8211 0,0.6883 1.70262,-0.5192 0,7.209 -1.63017,0 0,0.7607 4.09353,0 0,-0.7607 -1.55771,0 0,-8.1992 z m 9.26922,4.6128 c 0.0154,-0.4511 -0.0167,-1.0274 -0.0962,-1.729 -0.0795,-0.7016 -0.29846,-1.3334 -0.65698,-1.8954 -0.35854,-0.562 -0.94874,-0.8593 -1.77061,-0.8918 -0.67408,0.02 -1.18929,0.231 -1.54563,0.6344 -0.35636,0.4033 -0.60289,0.8811 -0.73962,1.4335 -0.13673,0.5524 -0.2127,1.062 -0.22792,1.5287 -0.0152,0.4667 -0.0187,0.7732 -0.0106,0.9196 -0.0158,0.3751 0.0145,0.9157 0.0908,1.6217 0.0763,0.706 0.29354,1.3557 0.65162,1.9491 0.35809,0.5933 0.95186,0.9084 1.78133,0.9454 0.83708,-0.033 1.43443,-0.3342 1.79207,-0.9025 0.35763,-0.5683 0.57305,-1.2037 0.64626,-1.9061 0.0732,-0.7025 0.10166,-1.2717 0.0854,-1.7076 l 0,0 z m -4.14183,0 c -0.0118,-0.3049 10e-4,-0.7511 0.0385,-1.3386 0.0374,-0.5875 0.17009,-1.1294 0.39803,-1.6257 0.22794,-0.4962 0.62181,-0.76 1.18159,-0.7911 0.44779,-0.036 0.82615,0.205 1.13509,0.723 0.30892,0.518 0.46992,1.5288 0.48301,3.0324 -0.005,1.05 -0.086,1.8468 -0.2424,2.3905 -0.15639,0.5437 -0.35705,0.9103 -0.60198,1.0997 -0.24494,0.1895 -0.50284,0.2779 -0.77372,0.2653 -0.53697,-0.026 -0.9201,-0.2681 -1.14939,-0.7268 -0.22928,-0.4587 -0.36733,-0.9791 -0.41413,-1.5613 -0.0468,-0.5821 -0.065,-1.0713 -0.0546,-1.4674 l 0,0 z m 74.51884,-4.6128 -2.60828,0.8211 0,0.6883 1.70263,-0.5192 0,7.209 -1.63017,0 0,0.7607 4.09353,0 0,-0.7607 -1.55771,0 0,-8.1992 z m 9.26921,4.6128 c 0.0153,-0.4511 -0.0167,-1.0274 -0.0962,-1.729 -0.0795,-0.7016 -0.29846,-1.3334 -0.65699,-1.8954 -0.35854,-0.562 -0.94874,-0.8593 -1.77059,-0.8918 -0.67409,0.02 -1.18931,0.231 -1.54565,0.6344 -0.35635,0.4033 -0.60288,0.8811 -0.73961,1.4335 -0.13673,0.5524 -0.21271,1.062 -0.22792,1.5287 -0.0152,0.4667 -0.0187,0.7732 -0.0106,0.9196 -0.0158,0.3751 0.0145,0.9157 0.0908,1.6217 0.0763,0.706 0.29353,1.3557 0.65162,1.9491 0.35808,0.5933 0.95186,0.9084 1.78134,0.9454 0.83706,-0.033 1.43442,-0.3342 1.79206,-0.9025 0.35763,-0.5683 0.57305,-1.2037 0.64625,-1.9061 0.0732,-0.7025 0.10166,-1.2717 0.0854,-1.7076 l 0,0 z m -4.14183,0 c -0.0118,-0.3049 0.001,-0.7511 0.0385,-1.3386 0.0374,-0.5875 0.1701,-1.1294 0.39804,-1.6257 0.22793,-0.4962 0.6218,-0.76 1.1816,-0.7911 0.44778,-0.036 0.82614,0.205 1.13507,0.723 0.30892,0.518 0.46993,1.5288 0.48301,3.0324 -0.005,1.05 -0.086,1.8468 -0.2424,2.3905 -0.15638,0.5437 -0.35704,0.9103 -0.60197,1.0997 -0.24494,0.1895 -0.50285,0.2779 -0.77371,0.2653 -0.53699,-0.026 -0.92012,-0.2681 -1.1494,-0.7268 -0.22929,-0.4587 -0.36733,-0.9791 -0.41414,-1.5613 -0.0468,-0.5821 -0.065,-1.0713 -0.0546,-1.4674 l 0,0 z m -86.62717,38.7675 c 0.0289,-0.5467 0.16427,-1.0171 0.40603,-1.4113 0.24176,-0.3942 0.56125,-0.765 0.95848,-1.1124 l 0.62791,-0.5676 c 0.46666,-0.3884 0.90087,-0.81 1.30263,-1.2649 0.40175,-0.4548 0.61558,-1.0032 0.6415,-1.6452 -0.0111,-0.6634 -0.21535,-1.1781 -0.61282,-1.5442 -0.39749,-0.366 -0.92176,-0.5517 -1.57281,-0.5569 -0.77987,0.015 -1.37861,0.2596 -1.79621,0.7335 -0.4176,0.474 -0.64804,1.0868 -0.69131,1.8385 l 0.90565,0 c 0.0201,-0.4875 0.15496,-0.9072 0.40452,-1.2589 0.24956,-0.3516 0.63798,-0.5358 1.16527,-0.5524 0.41307,0.01 0.73106,0.1301 0.95395,0.3728 0.22288,0.2428 0.33559,0.5693 0.33811,0.9796 -0.0315,0.4934 -0.24327,0.9497 -0.63546,1.3691 -0.39221,0.4193 -0.7761,0.7761 -1.15169,1.0701 -0.68653,0.5568 -1.21533,1.1188 -1.58639,1.6861 -0.37107,0.5673 -0.55874,1.3134 -0.56301,2.2384 l 0,0.3864 4.86635,0 0,-0.7607 -3.9607,0 z m 11.27372,-3.5864 c 0.0154,-0.4511 -0.0167,-1.0274 -0.0962,-1.729 -0.0795,-0.7015 -0.29846,-1.3333 -0.65698,-1.8954 -0.35854,-0.562 -0.94874,-0.8592 -1.77061,-0.8917 -0.67408,0.02 -1.18929,0.231 -1.54563,0.6343 -0.35636,0.4033 -0.60289,0.8812 -0.73962,1.4336 -0.13673,0.5523 -0.2127,1.0619 -0.22792,1.5286 -0.0152,0.4667 -0.0187,0.7733 -0.0106,0.9196 -0.0158,0.3751 0.0145,0.9157 0.0908,1.6217 0.0763,0.706 0.29354,1.3557 0.65162,1.949 0.35809,0.5934 0.95186,0.9085 1.78133,0.9455 0.83708,-0.033 1.43443,-0.3342 1.79207,-0.9025 0.35763,-0.5683 0.57305,-1.2037 0.64626,-1.9061 0.0732,-0.7025 0.10166,-1.2717 0.0854,-1.7076 l 0,0 z m -4.14183,0 c -0.0118,-0.3048 0.001,-0.751 0.0385,-1.3385 0.0374,-0.5876 0.17009,-1.1295 0.39803,-1.6257 0.22794,-0.4963 0.62181,-0.76 1.18159,-0.7912 0.44779,-0.036 0.82615,0.205 1.13509,0.723 0.30892,0.518 0.46992,1.5288 0.48301,3.0324 -0.005,1.05 -0.086,1.8468 -0.2424,2.3905 -0.15639,0.5437 -0.35705,0.9103 -0.60198,1.0997 -0.24494,0.1895 -0.50284,0.2779 -0.77372,0.2652 -0.53697,-0.026 -0.9201,-0.268 -1.14939,-0.7267 -0.22928,-0.4587 -0.36733,-0.9792 -0.41413,-1.5613 -0.0468,-0.5821 -0.065,-1.0713 -0.0546,-1.4674 l 0,0 z m 72.51433,3.5864 c 0.0289,-0.5467 0.16428,-1.0171 0.40603,-1.4113 0.24176,-0.3942 0.56125,-0.765 0.95848,-1.1124 l 0.62792,-0.5676 c 0.46666,-0.3884 0.90086,-0.81 1.30262,-1.2649 0.40175,-0.4548 0.61559,-1.0032 0.64151,-1.6452 -0.0111,-0.6634 -0.21536,-1.1781 -0.61283,-1.5442 -0.39748,-0.366 -0.92175,-0.5517 -1.57281,-0.5569 -0.77986,0.015 -1.3786,0.2596 -1.7962,0.7335 -0.41761,0.474 -0.64804,1.0868 -0.69131,1.8385 l 0.90565,0 c 0.0201,-0.4875 0.15496,-0.9072 0.40452,-1.2589 0.24955,-0.3516 0.63797,-0.5358 1.16527,-0.5524 0.41307,0.01 0.73105,0.1301 0.95395,0.3728 0.22288,0.2428 0.33559,0.5693 0.33811,0.9796 -0.0315,0.4934 -0.24327,0.9497 -0.63547,1.3691 -0.3922,0.4193 -0.77609,0.7761 -1.15168,1.0701 -0.68654,0.5568 -1.21533,1.1188 -1.58639,1.6861 -0.37107,0.5673 -0.55874,1.3134 -0.56302,2.2384 l 0,0.3864 4.86636,0 0,-0.7607 -3.96071,0 z m 11.27372,-3.5864 c 0.0153,-0.4511 -0.0167,-1.0274 -0.0962,-1.729 -0.0795,-0.7015 -0.29846,-1.3333 -0.65699,-1.8954 -0.35854,-0.562 -0.94874,-0.8592 -1.77059,-0.8917 -0.67409,0.02 -1.18931,0.231 -1.54565,0.6343 -0.35635,0.4033 -0.60288,0.8812 -0.73961,1.4336 -0.13673,0.5523 -0.21271,1.0619 -0.22792,1.5286 -0.0152,0.4667 -0.0187,0.7733 -0.0106,0.9196 -0.0158,0.3751 0.0145,0.9157 0.0908,1.6217 0.0763,0.706 0.29353,1.3557 0.65162,1.949 0.35808,0.5934 0.95186,0.9085 1.78134,0.9455 0.83706,-0.033 1.43442,-0.3342 1.79206,-0.9025 0.35763,-0.5683 0.57305,-1.2037 0.64625,-1.9061 0.0732,-0.7025 0.10166,-1.2717 0.0854,-1.7076 l 0,0 z m -4.14183,0 c -0.0118,-0.3048 0.001,-0.751 0.0385,-1.3385 0.0374,-0.5876 0.1701,-1.1295 0.39804,-1.6257 0.22793,-0.4963 0.6218,-0.76 1.1816,-0.7912 0.44778,-0.036 0.82614,0.205 1.13507,0.723 0.30892,0.518 0.46993,1.5288 0.48301,3.0324 -0.005,1.05 -0.086,1.8468 -0.2424,2.3905 -0.15638,0.5437 -0.35704,0.9103 -0.60197,1.0997 -0.24494,0.1895 -0.50285,0.2779 -0.77371,0.2652 -0.53699,-0.026 -0.92012,-0.268 -1.1494,-0.7267 -0.22929,-0.4587 -0.36733,-0.9792 -0.41414,-1.5613 -0.0468,-0.5821 -0.065,-1.0713 -0.0546,-1.4674 l 0,0 z"
       inkscape:connector-curvature="0" />
    <path
       style="fill:none;stroke:#ffffff;stroke-width:2;stroke-linecap:butt;stroke-linejoin:miter;stroke-miterlimit:4;stroke-opacity:1;stroke-dasharray:none"
       d="m -135.01493,119.86264 c 590.02986,1.03548 590.02986,-0.51759 590.02986,-0.51759 l 0,0 0,0.51759"
       id="horizon-level"
       inkscape:connector-curvature="0"
       sodipodi:nodetypes="cccc" />
  </g>
  <g
     inkscape:groupmode="layer"
     id="roll"
     inkscape:label="roll"
     style="display:inline">
    <path
       id="roll-scale"
       style="fill:#ffffff;fill-opacity:1;fill-rule:evenodd;stroke:#ffffff;stroke-width:1.50800002;stroke-linecap:square;stroke-linejoin:miter;stroke-miterlimit:4;stroke-opacity:1;stroke-dasharray:none;stroke-dashoffset:0;marker:none;visibility:visible;display:inline;overflow:visible;enable-background:accumulate"
       d="m 84.691438,71.629176 11.46277,6.61805 m 7.976942,-19.00749 3.73898,3.73899 m 8.65043,-23.17871 6.61804,11.46278 m 9.83821,-10.39979 1.8085,4.96884 m 11.49465,-8.53341 0.9182,5.20739 m 88.1104,29.1233 -11.46277,6.61804 m -7.97694,-19.00747 -3.73899,3.73898 m -8.65045,-23.17868 -6.61804,11.46277 m -9.8382,-10.39978 -1.80852,4.96883 m -11.49464,-8.53339 -0.91821,5.20739 m -6.62966,-6.6884 -6.17216,6.17216 -6.17216,-6.17216 12.34432,0 z"
       inkscape:connector-curvature="0" />
  </g>
  <g
     inkscape:groupmode="layer"
     id="speed"
     inkscape:label="speed"
     style="display:inline">
    <path
       inkscape:connector-curvature="0"
       d="m 70.124645,-505.09646 -3.46756,0 m 3.46756,24.99623 -5.5155,0 m 5.5155,25.004 -3.46756,0 m 3.46756,24.99623 -5.5155,0 m 5.61514,-274.58606 -3.46756,0 m 3.46756,24.85999 -5.5155,0 m 5.5155,24.86772 -3.46756,0 m 3.46756,24.85999 -5.5155,0 m 5.51597,25.00213 -3.46756,0 m 3.46756,24.99623 -5.5155,0 m 5.5155,25.004 -3.46756,0 m 3.46756,24.99623 -5.5155,0 m 5.41539,325.00331 -3.46756,0 m 3.46756,24.99623 -5.5155,0 m 5.5155,25.004 -3.46756,0 m 3.46756,24.99623 -5.5155,0 m 5.61514,-274.58606 -3.46756,0 m 3.46756,24.85999 -5.5155,0 m 5.5155,24.86772 -3.46756,0 m 3.46756,24.85999 -5.5155,0 m 5.51597,25.00213 -3.46756,0 m 3.46756,24.99623 -5.5155,0 m 5.5155,25.004 -3.46756,0 m 3.46756,24.99623 -5.5155,0 m 5.41539,325.003312 -3.46756,0 m 3.46756,24.996228 -5.5155,0 m 5.5155,25.004 -3.46756,0 m 3.46756,24.99623 -5.5155,0 m 5.61514,-274.58606 -3.46756,0 m 3.46756,24.85999 -5.5155,0 m 5.5155,24.867721 -3.46756,0 m 3.46756,24.859988 -5.5155,0 m 5.51597,25.0021325 -3.46756,0 m 3.46756,24.9962305 -5.5155,0 m 5.5155,25.004 -3.46756,0 m 3.46756,24.99623 -5.5155,0"
       style="fill:#ff00ff;fill-opacity:1;fill-rule:evenodd;stroke:#ffffff;stroke-width:1.20000005;stroke-linecap:square;stroke-linejoin:miter;stroke-miterlimit:4;stroke-opacity:1;stroke-dasharray:none;stroke-dashoffset:0;marker:none;visibility:visible;display:inline;overflow:visible;enable-background:accumulate"
       id="speed-ticks" />
    <path
       inkscape:connector-curvature="0"
       d="m 56.186528,-381.089 c -0.013,1.742 0.312001,2.847 0.702,3.497 0.572,0.988 1.456001,1.209 1.885,1.209 0.273,0 0.936001,-0.078 1.495,-0.624 0.688999,-0.663 1.222,-2.015 1.222,-4.186 0,-0.299 0.026,-2.288 -0.806,-3.51 -0.584999,-0.884 -1.391,-1.053 -1.794,-1.053 -0.415999,0 -1.222,0.143 -1.82,0.975 -0.896999,1.261 -0.884,3.432 -0.884,3.692 m 0.546,0.117 c -0.013,-1.508 0.247,-2.548 0.52,-3.107 0.091,-0.182 0.598001,-1.17 1.56,-1.17 0.286,0 0.897001,0.091 1.339,0.715 0.26,0.338 0.403,0.819 0.442,0.936 0.338,1.066 0.338,2.067 0.338,2.444 0,0.962 -0.143,2.431 -0.611,3.263 -0.441999,0.767 -1.118,0.975 -1.482,0.975 -0.376999,0 -1.053,-0.169 -1.495,-0.949 -0.325,-0.559 -0.598,-1.573 -0.611,-3.107 m -4.127703,-4.719 c -0.221,0.195 -0.325,0.286 -0.455,0.364 -0.195,0.13 -0.403,0.234 -0.611,0.351 -0.247,0.143 -0.494,0.299 -0.754,0.455 l 0.26,0.481 1.417,-0.936 0,7.995 -1.417,0 0,0.52 3.367,0 0,-0.52 -1.339,0 0,-8.71 -0.468,0 m 4.010701,58.59648 c 0.559,0.468 0.793001,0.598 1.157,0.702 0.195,0.052 0.377001,0.078 0.585,0.078 0.507,0 1.417001,-0.169 2.145,-1.222 0.585,-0.871 0.806,-1.911 0.91,-2.925 0.052,-0.403 0.078,-0.832 0.078,-1.248 0,-0.832 -0.117,-1.807 -0.494,-2.535 -0.181999,-0.377 -0.819001,-1.43 -2.158,-1.43 -0.181999,0 -0.546,0.013 -0.975,0.195 -0.376999,0.156 -0.598,0.351 -0.715,0.468 -0.792999,0.78 -0.819,2.067 -0.832,2.392 0,1.391 0.715001,2.145 1.235,2.444 0.481,0.273 0.910001,0.299 1.118,0.299 0.935999,0 1.521001,-0.559 1.742,-0.806 0.234,-0.273 0.494,-0.767 0.52,-0.819 -0.065,1.079 -0.13,2.262 -0.611,3.263 -0.117,0.26 -0.468,0.949 -1.274,1.261 -0.298999,0.117 -0.611,0.143 -0.702,0.143 -0.584999,0 -0.91,-0.273 -1.352,-0.676 l -0.377,0.416 m 4.264,-5.408 c -0.078,0.351 -0.13,0.533 -0.208,0.676 -0.220999,0.494 -0.741,1.092 -1.248,1.3 -0.285999,0.117 -0.52,0.117 -0.65,0.117 -0.519999,0 -0.884,-0.221 -1.053,-0.325 -0.675999,-0.481 -0.832,-1.235 -0.845,-2.041 0,-0.338 0.039,-0.598 0.065,-0.715 0.13,-0.611 0.520001,-1.222 1.053,-1.521 0.312,-0.169 0.65,-0.182 0.78,-0.182 0.182,0 0.676001,0.039 1.118,0.364 0.767,0.585 0.897,1.599 0.936,1.859 0.026,0.156 0.039,0.312 0.052,0.468 m -2.703997,51.36201 c -0.806,0.325 -1.417001,0.611 -1.807,1.456 -0.208,0.455 -0.234,0.871 -0.234,1.053 0,0.832 0.377,1.378 0.572,1.599 0.675999,0.78 1.703,0.858 2.015,0.858 0.519999,0 1.157,-0.143 1.625,-0.39 0.740999,-0.39 0.988,-1.105 1.066,-1.391 0.052,-0.195 0.078,-0.455 0.078,-0.663 0,-0.624 -0.221001,-1.248 -0.624,-1.677 -0.351,-0.364 -0.832001,-0.611 -1.313,-0.845 0.675999,-0.364 1.209,-0.65 1.508,-1.391 0.155999,-0.403 0.169,-0.741 0.169,-0.897 0,-0.533 -0.169,-0.897 -0.26,-1.079 -0.572,-1.092 -1.690001,-1.157 -2.08,-1.157 -0.39,0 -1.664001,0.065 -2.223,1.209 -0.208,0.442 -0.247,0.884 -0.247,1.066 0,0.481 0.156,0.832 0.234,0.988 0.337999,0.702 0.845,0.949 1.521,1.261 m 0.624,0.221 c 0.207999,0.104 0.416,0.195 0.624,0.299 0.259999,0.117 0.494,0.208 0.741,0.39 0.480999,0.364 0.806,0.975 0.806,1.599 0,0.455 -0.169002,1.43 -1.326,1.846 -0.338,0.117 -0.624001,0.13 -0.767,0.13 -0.559,0 -1.092001,-0.208 -1.261,-0.299 -0.832,-0.416 -0.936,-1.352 -0.936,-1.638 0,-0.494 0.182,-0.884 0.26,-1.027 0.415999,-0.767 1.066,-1.014 1.859,-1.3 m 0.078,-0.455 c -0.65,-0.247 -1.261001,-0.494 -1.664,-1.131 -0.169,-0.273 -0.26,-0.559 -0.26,-0.884 0,-1.079 0.884001,-1.807 1.911,-1.807 0.675999,0 1.274,0.299 1.586,0.884 0.142999,0.273 0.234,0.598 0.234,0.91 0,0.416 -0.143,0.741 -0.208,0.871 -0.325,0.65 -0.858001,0.871 -1.092,0.975 -0.169,0.065 -0.338001,0.117 -0.507,0.182 m 2.612998,45.96052 -4.784,0 0,0.559 4.186,0 -3.354,8.58 0.663,0 3.289,-8.723 0,-0.416 m -0.285998,50.71845 c -0.545999,-0.468 -0.78,-0.598 -1.157,-0.689 -0.247,-0.065 -0.416,-0.065 -0.533,-0.065 -0.649999,0 -1.768001,0.26 -2.509,1.729 -0.169,0.351 -0.299,0.728 -0.39,1.092 -0.234,1.01399 -0.26,2.249 -0.26,2.522 0,0.247 -0.026,1.963 0.741,3.003 0.442,0.62399 1.157001,1.014 1.937,1.014 0.351,0 1.157001,-0.078 1.768,-0.845 0.675999,-0.845 0.689,-1.898 0.689,-2.262 0,-0.39 -0.013,-1.65101 -1.118,-2.353 -0.506999,-0.338 -1.027,-0.364 -1.235,-0.364 -0.974999,0 -1.573,0.598 -1.781,0.858 -0.182,0.234 -0.325,0.507 -0.455,0.767 0.026,-1.144 0.065,-1.82001 0.481,-2.899 0.429,-1.105 0.949001,-1.456 1.456,-1.638 0.312,-0.104 0.546,-0.117 0.689,-0.117 0.572,0 0.897001,0.286 1.3,0.637 l 0.377,-0.39 m -4.29,5.421 c 0.039,-0.143 0.117,-0.468 0.286,-0.806 0.247,-0.468 0.715001,-1.001 1.222,-1.196 0.195,-0.078 0.416,-0.117 0.624,-0.117 0.481,0 0.819,0.182 0.988,0.286 0.546,0.338 0.793,0.832 0.884,1.469 0.039,0.26 0.039,0.52 0.039,0.611 0,1.19599 -0.611001,2.431 -1.924,2.431 -1.169999,0 -1.651,-0.975 -1.794,-1.3 -0.13,-0.325 -0.221,-0.67601 -0.325,-1.378 m 0.324999,48.89851 c 0.312,-0.533 0.585,-1.001 1.17,-1.261 0.208,-0.091 0.429,-0.13 0.663,-0.13 0.208,0 0.611,0.039 1.04,0.39 0.597999,0.507 0.793,1.222 0.793,1.989 0,0.754 -0.156001,1.677 -0.702,2.236 -0.455,0.481 -1.053,0.546 -1.287,0.546 -0.572,0 -1.144001,-0.299 -1.495,-0.754 -0.104,-0.143 -0.234,-0.364 -0.403,-0.741 l -0.507,0.247 c 0.26,0.507 0.481,0.949 0.923,1.3 0.221,0.156 0.728001,0.494 1.443,0.494 0.467999,0 0.897,-0.117 1.274,-0.364 0.909999,-0.572 1.339,-1.768 1.339,-2.808 0,-0.962 -0.364001,-2.119 -1.131,-2.678 -0.481,-0.351 -1.014,-0.39 -1.235,-0.39 -0.26,0 -0.884001,0.052 -1.417,0.533 -0.13,0.117 -0.234,0.234 -0.338,0.351 l 0.195,-3.367 3.445,0 0,-0.546 -3.939,0 -0.286,4.823 0.455,0.13 m -1.208998,51.407514 0,0.468 3.588,0 0,2.496 0.572,0 0,-2.496 1.3,0 0,-0.494 -1.261,0 0,-6.24 -0.832,0 -3.367,6.266 m 3.692,-5.811 -0.078,5.785 -3.029,0 3.107,-5.785 m -1.651003,54.22201 c 0.298999,0 0.598,0.013 0.91,0.013 0.259999,0 0.442,0 0.689,0.078 0.831999,0.259999 1.287,1.079001 1.287,1.963 0,1.182998 -0.793001,2.132 -1.95,2.132 -0.883999,0 -1.417,-0.533001 -1.612,-0.767 -0.117,-0.13 -0.208,-0.247001 -0.377,-0.546 l -0.494,0.286 c 0.026,0.052 0.26,0.468 0.494,0.715 0.675999,0.740999 1.612,0.832 1.95,0.832 0.467999,0 1.794,-0.143002 2.314,-1.482 0.195,-0.494 0.208,-0.936001 0.208,-1.144 0,-1.104999 -0.507001,-1.729001 -0.858,-1.976 -0.26,-0.195 -0.741,-0.351 -0.78,-0.364 0.078,-0.039 0.455,-0.182001 0.741,-0.403 0.506999,-0.39 0.767,-1.079001 0.767,-1.742 0,-0.468 -0.143001,-1.638001 -1.352,-2.106 -0.156,-0.052 -0.494001,-0.169 -0.923,-0.169 -1.299999,0 -1.937001,0.884 -2.21,1.222 l 0.416,0.286 c 0.376999,-0.442 0.676,-0.754001 1.235,-0.923 0.246999,-0.078 0.507,-0.091 0.598,-0.091 1.078999,0 1.495,0.845 1.599,1.183 0.026,0.078 0.104,0.338 0.104,0.624 0,0.350999 -0.104,0.715 -0.26,1.014 -0.234,0.402999 -0.702001,0.884 -1.807,0.884 -0.234,0 -0.455001,-0.026 -0.689,-0.039 l 0,0.52 m -0.858,48.092497 c 0.143,-0.507 0.299,-1.001001 0.65,-1.43 0.169,-0.195 0.585001,-0.624 1.326,-0.624 1.065999,0 1.716,0.910001 1.716,1.937 0,1.403998 -1.183001,2.288001 -2.158,3.12 -0.519999,0.454999 -0.767,0.702 -0.975,0.962 -0.506999,0.610999 -0.871,1.339001 -1.235,2.08 l 0,0.507 4.797,0.052 0,-0.572 -4.199,0 c 0.468,-0.948999 0.754001,-1.469001 1.482,-2.21 0.286,-0.286 0.585,-0.559 0.897,-0.819 0.831999,-0.688999 1.573,-1.261001 1.872,-2.327 0.091,-0.377 0.104,-0.676 0.104,-0.832 0,-1.052999 -0.52,-1.664 -0.819,-1.924 -0.39,-0.338 -0.936001,-0.52 -1.469,-0.533 -0.442,0 -0.858,0.13 -1.235,0.377 -0.766999,0.506999 -1.014,1.274 -1.118,1.56 -0.052,0.156 -0.104,0.299 -0.143,0.455 l 0.507,0.221 m 2.470003,47.455512 c -0.221,0.195 -0.325,0.286 -0.455,0.364 -0.195,0.13 -0.403,0.234 -0.611,0.351 -0.247,0.143 -0.494,0.299 -0.754,0.455 l 0.26,0.481 1.417,-0.936 0,7.995 -1.417,0 0,0.52 3.367,0 0,-0.52 -1.339,0 0,-8.71 -0.468,0 M 56.186528,119.661 c -0.013,1.742 0.312001,2.847 0.702,3.497 0.572,0.988 1.456001,1.209 1.885,1.209 0.273,0 0.936001,-0.078 1.495,-0.624 0.688999,-0.663 1.222,-2.015 1.222,-4.186 0,-0.299 0.026,-2.288 -0.806,-3.51 -0.584999,-0.884 -1.391,-1.053 -1.794,-1.053 -0.415999,0 -1.222,0.143 -1.82,0.975 -0.896999,1.261 -0.884,3.432 -0.884,3.692 m 0.546,0.117 c -0.013,-1.508 0.247,-2.548 0.52,-3.107 0.091,-0.182 0.598001,-1.17 1.56,-1.17 0.286,0 0.897001,0.091 1.339,0.715 0.26,0.338 0.403,0.819 0.442,0.936 0.338,1.066 0.338,2.067 0.338,2.444 0,0.962 -0.143,2.431 -0.611,3.263 -0.441999,0.767 -1.118,0.975 -1.482,0.975 -0.376999,0 -1.053,-0.169 -1.495,-0.949 -0.325,-0.559 -0.598,-1.573 -0.611,-3.107"
       id="speed-labels"
       style="font-size:13px;font-style:normal;font-variant:normal;font-weight:500;font-stretch:normal;text-align:start;line-height:125%;letter-spacing:0px;word-spacing:0px;writing-mode:lr-tb;text-anchor:start;fill:#ffffff;fill-opacity:1;stroke:#ffffff;stroke-width:1.10000002;stroke-miterlimit:4;stroke-opacity:1;stroke-dasharray:none;font-family:Lightline Gothic BQ;-inkscape-font-specification:Lightline Gothic BQ Medium" />
  </g>
  <g
     inkscape:groupmode="layer"
     id="alt-scale"
     inkscape:label="alt-scale"
     style="display:inline">
    <path
       id="alt-ticks-major"
       style="fill:#ff00ff;fill-opacity:1;fill-rule:evenodd;stroke:#ffffff;stroke-width:1.10000002;stroke-linecap:square;stroke-linejoin:miter;stroke-miterlimit:4;stroke-opacity:1;stroke-dasharray:none;stroke-dashoffset:0;marker:none;visibility:visible;display:inline;overflow:visible;enable-background:accumulate"
       d="m 249.56611,-455.39646 3.46756,0 m -3.46756,24.99623 5.5155,0 m -5.5155,25.004 3.46756,0 m -3.46756,24.99623 5.5155,0 m -5.61514,-274.58606 3.46756,0 m -3.46756,24.85999 5.5155,0 m -5.5155,24.86772 3.46756,0 m -3.46756,24.85999 5.5155,0 m -5.51597,25.00213 3.46756,0 M 249.466,-530.4 l 5.5155,0 m -5.5155,25.004 3.46756,0 m -3.46756,24.99623 5.5155,0 m -5.41539,325.00331 3.46756,0 m -3.46756,24.99623 5.5155,0 m -5.5155,25.004 3.46756,0 m -3.46756,24.99623 5.5155,0 m -5.61514,-274.58606 3.46756,0 m -3.46756,24.85999 5.5155,0 m -5.5155,24.86772 3.46756,0 m -3.46756,24.85999 5.5155,0 m -5.51597,25.00213 3.46756,0 M 249.466,-230.4 l 5.5155,0 m -5.5155,25.004 3.46756,0 m -3.46756,24.99623 5.5155,0 m -5.41539,325.00331 3.46756,0 m -3.46756,24.99623 5.5155,0 m -5.5155,25.004 3.46756,0 m -3.46756,24.99623 5.5155,0 m -5.61514,-274.586062 3.46756,0 m -3.46756,24.85999 5.5155,0 m -5.5155,24.867721 3.46756,0 m -3.46756,24.859988 5.5155,0 m -5.51597,25.002133 3.46756,0 M 249.466,69.6 l 5.5155,0 m -5.5155,25.004 3.46756,0 m -3.46756,24.99623 5.5155,0"
       inkscape:connector-curvature="0" />
    <path
       style="font-size:13px;font-style:normal;font-variant:normal;font-weight:500;font-stretch:normal;text-align:start;line-height:125%;letter-spacing:0px;word-spacing:0px;writing-mode:lr-tb;text-anchor:start;fill:#ffffff;fill-opacity:1;stroke:#ffffff;stroke-width:1.10000002;stroke-miterlimit:4;stroke-opacity:1;stroke-dasharray:none;font-family:Lightline Gothic BQ;-inkscape-font-specification:Lightline Gothic BQ Medium"
       inkscape:connector-curvature="0"
       d="m 268.86779,-481.2222 c -0.013,1.742 0.312,2.847 0.702,3.497 0.572,0.988 1.456,1.209 1.885,1.209 0.273,0 0.936,-0.078 1.495,-0.624 0.689,-0.663 1.222,-2.015 1.222,-4.186 0,-0.299 0.026,-2.288 -0.806,-3.51 -0.585,-0.884 -1.391,-1.053 -1.794,-1.053 -0.416,0 -1.222,0.143 -1.82,0.975 -0.897,1.261 -0.884,3.432 -0.884,3.692 m 0.546,0.117 c -0.013,-1.508 0.247,-2.548 0.52,-3.107 0.091,-0.182 0.598,-1.17 1.56,-1.17 0.286,0 0.897,0.091 1.339,0.715 0.26,0.338 0.403,0.819 0.442,0.936 0.338,1.066 0.338,2.067 0.338,2.444 0,0.962 -0.143,2.431 -0.611,3.263 -0.442,0.767 -1.118,0.975 -1.482,0.975 -0.377,0 -1.053,-0.169 -1.495,-0.949 -0.325,-0.559 -0.598,-1.573 -0.611,-3.107 m -6.11671,-2.093 c 0.143,-0.507 0.299,-1.001 0.65,-1.43 0.169,-0.195 0.585,-0.624 1.326,-0.624 1.066,0 1.716,0.91 1.716,1.937 0,1.404 -1.183,2.288 -2.158,3.12 -0.52,0.455 -0.767,0.702 -0.975,0.962 -0.507,0.611 -0.871,1.339 -1.235,2.08 l 0,0.507 4.797,0.052 0,-0.572 -4.199,0 c 0.468,-0.949 0.754,-1.469 1.482,-2.21 0.286,-0.286 0.585,-0.559 0.897,-0.819 0.832,-0.689 1.573,-1.261 1.872,-2.327 0.091,-0.377 0.104,-0.676 0.104,-0.832 0,-1.053 -0.52,-1.664 -0.819,-1.924 -0.39,-0.338 -0.936,-0.52 -1.469,-0.533 -0.442,0 -0.858,0.13 -1.235,0.377 -0.767,0.507 -1.014,1.274 -1.118,1.56 -0.052,0.156 -0.104,0.299 -0.143,0.455 l 0.507,0.221 m -4.2317,-2.626 c -0.221,0.195 -0.325,0.286 -0.455,0.364 -0.195,0.13 -0.403,0.234 -0.611,0.351 -0.247,0.143 -0.494,0.299 -0.754,0.455 l 0.26,0.481 1.417,-0.936 0,7.995 -1.417,0 0,0.52 3.367,0 0,-0.52 -1.339,0 0,-8.71 -0.468,0 m 9.80241,54.65925 c -0.013,1.742 0.312,2.847 0.702,3.497 0.572,0.988 1.456,1.209 1.885,1.209 0.273,0 0.936,-0.078 1.495,-0.624 0.689,-0.663 1.222,-2.015 1.222,-4.186 0,-0.299 0.026,-2.288 -0.806,-3.51 -0.585,-0.884 -1.391,-1.053 -1.794,-1.053 -0.416,0 -1.222,0.143 -1.82,0.975 -0.897,1.261 -0.884,3.432 -0.884,3.692 m 0.546,0.117 c -0.013,-1.508 0.247,-2.548 0.52,-3.107 0.091,-0.182 0.598,-1.17 1.56,-1.17 0.286,0 0.897,0.091 1.339,0.715 0.26,0.338 0.403,0.819 0.442,0.936 0.338,1.066 0.338,2.067 0.338,2.444 0,0.962 -0.143,2.431 -0.611,3.263 -0.442,0.767 -1.118,0.975 -1.482,0.975 -0.377,0 -1.053,-0.169 -1.495,-0.949 -0.325,-0.559 -0.598,-1.573 -0.611,-3.107 m -4.12771,-4.719 c -0.221,0.195 -0.325,0.286 -0.455,0.364 -0.195,0.13 -0.403,0.234 -0.611,0.351 -0.247,0.143 -0.494,0.299 -0.754,0.455 l 0.26,0.481 1.417,-0.936 0,7.995 -1.417,0 0,0.52 3.367,0 0,-0.52 -1.339,0 0,-8.71 -0.468,0 m -6.2207,0 c -0.221,0.195 -0.325,0.286 -0.455,0.364 -0.195,0.13 -0.403,0.234 -0.611,0.351 -0.247,0.143 -0.494,0.299 -0.754,0.455 l 0.26,0.481 1.417,-0.936 0,7.995 -1.417,0 0,0.52 3.367,0 0,-0.52 -1.339,0 0,-8.71 -0.468,0 m 9.80241,54.65925 c -0.013,1.742 0.312,2.847 0.702,3.497 0.572,0.988 1.456,1.209 1.885,1.209 0.273,0 0.936,-0.078 1.495,-0.624 0.689,-0.663 1.222,-2.015 1.222,-4.186 0,-0.299 0.026,-2.288 -0.806,-3.51 -0.585,-0.884 -1.391,-1.053 -1.794,-1.053 -0.416,0 -1.222,0.143 -1.82,0.975 -0.897,1.261 -0.884,3.432 -0.884,3.692 m 0.546,0.117 c -0.013,-1.508 0.247,-2.548 0.52,-3.107 0.091,-0.182 0.598,-1.17 1.56,-1.17 0.286,0 0.897,0.091 1.339,0.715 0.26,0.338 0.403,0.819 0.442,0.936 0.338,1.066 0.338,2.067 0.338,2.444 0,0.962 -0.143,2.431 -0.611,3.263 -0.442,0.767 -1.118,0.975 -1.482,0.975 -0.377,0 -1.053,-0.169 -1.495,-0.949 -0.325,-0.559 -0.598,-1.573 -0.611,-3.107 m -6.76671,-0.117 c -0.013,1.742 0.312,2.847 0.702,3.497 0.572,0.988 1.456,1.209 1.885,1.209 0.273,0 0.936,-0.078 1.495,-0.624 0.689,-0.663 1.222,-2.015 1.222,-4.186 0,-0.299 0.026,-2.288 -0.806,-3.51 -0.585,-0.884 -1.391,-1.053 -1.794,-1.053 -0.416,0 -1.222,0.143 -1.82,0.975 -0.897,1.261 -0.884,3.432 -0.884,3.692 m 0.546,0.117 c -0.013,-1.508 0.247,-2.548 0.52,-3.107 0.091,-0.182 0.598,-1.17 1.56,-1.17 0.286,0 0.897,0.091 1.339,0.715 0.26,0.338 0.403,0.819 0.442,0.936 0.338,1.066 0.338,2.067 0.338,2.444 0,0.962 -0.143,2.431 -0.611,3.263 -0.442,0.767 -1.118,0.975 -1.482,0.975 -0.377,0 -1.053,-0.169 -1.495,-0.949 -0.325,-0.559 -0.598,-1.573 -0.611,-3.107 m -4.1277,-4.719 c -0.221,0.195 -0.325,0.286 -0.455,0.364 -0.195,0.13 -0.403,0.234 -0.611,0.351 -0.247,0.143 -0.494,0.299 -0.754,0.455 l 0.26,0.481 1.417,-0.936 0,7.995 -1.417,0 0,0.52 3.367,0 0,-0.52 -1.339,0 0,-8.71 -0.468,0 m 4.42671,54.64631 c -0.013,1.742 0.312,2.84701 0.702,3.497 0.57199,0.988 1.456,1.209 1.885,1.209 0.27299,0 0.936,-0.078 1.495,-0.624 0.68899,-0.66299 1.222,-2.015 1.222,-4.186 0,-0.29899 0.026,-2.288 -0.806,-3.51 -0.585,-0.88399 -1.39101,-1.053 -1.794,-1.053 -0.416,0 -1.22201,0.14301 -1.82,0.975 -0.897,1.261 -0.884,3.43201 -0.884,3.692 m 0.546,0.117 c -0.013,-1.50799 0.247,-2.548 0.52,-3.107 0.091,-0.182 0.598,-1.17 1.56,-1.17 0.28599,0 0.897,0.091 1.339,0.715 0.25999,0.338 0.403,0.819 0.442,0.936 0.33799,1.066 0.338,2.06701 0.338,2.444 0,0.962 -0.14301,2.43101 -0.611,3.263 -0.442,0.767 -1.11801,0.975 -1.482,0.975 -0.377,0 -1.05301,-0.169 -1.495,-0.949 -0.325,-0.55899 -0.598,-1.573 -0.611,-3.107 m -6.49371,3.835 c 0.559,0.468 0.793,0.598 1.157,0.702 0.195,0.052 0.377,0.078 0.585,0.078 0.507,0 1.417,-0.169 2.145,-1.222 0.585,-0.87099 0.806,-1.911 0.91,-2.925 0.052,-0.40299 0.078,-0.832 0.078,-1.248 0,-0.83199 -0.117,-1.807 -0.494,-2.535 -0.182,-0.37699 -0.819,-1.43 -2.158,-1.43 -0.182,0 -0.546,0.013 -0.975,0.195 -0.377,0.156 -0.598,0.351 -0.715,0.468 -0.793,0.78 -0.819,2.06701 -0.832,2.392 0,1.391 0.715,2.14501 1.235,2.444 0.481,0.273 0.91,0.299 1.118,0.299 0.936,0 1.521,-0.559 1.742,-0.806 0.234,-0.27299 0.494,-0.767 0.52,-0.819 -0.065,1.079 -0.13,2.26201 -0.611,3.263 -0.117,0.26 -0.468,0.94901 -1.274,1.261 -0.299,0.117 -0.611,0.143 -0.702,0.143 -0.585,0 -0.91,-0.273 -1.352,-0.676 l -0.377,0.416 m 4.264,-5.408 c -0.078,0.351 -0.13,0.533 -0.208,0.676 -0.221,0.494 -0.741,1.09201 -1.248,1.3 -0.286,0.117 -0.52,0.117 -0.65,0.117 -0.52,0 -0.884,-0.221 -1.053,-0.325 -0.676,-0.48099 -0.832,-1.235 -0.845,-2.041 0,-0.33799 0.039,-0.598 0.065,-0.715 0.13,-0.61099 0.52,-1.222 1.053,-1.521 0.312,-0.169 0.65,-0.182 0.78,-0.182 0.182,0 0.676,0.039 1.118,0.364 0.767,0.585 0.897,1.59901 0.936,1.859 0.026,0.156 0.039,0.312 0.052,0.468 m 1.72271,51.51976 c -0.013,1.74199 0.312,2.847 0.702,3.497 0.572,0.988 1.456,1.209 1.885,1.209 0.273,0 0.936,-0.078 1.495,-0.624 0.689,-0.663 1.222,-2.01501 1.222,-4.186 0,-0.299 0.026,-2.28801 -0.806,-3.51 -0.585,-0.884 -1.391,-1.053 -1.794,-1.053 -0.416,0 -1.222,0.143 -1.82,0.975 -0.897,1.26099 -0.884,3.432 -0.884,3.692 m 0.546,0.117 c -0.013,-1.508 0.247,-2.548 0.52,-3.107 0.091,-0.182 0.598,-1.17 1.56,-1.17 0.286,0 0.897,0.091 1.339,0.715 0.26,0.338 0.403,0.819 0.442,0.936 0.338,1.06599 0.338,2.067 0.338,2.444 0,0.962 -0.143,2.431 -0.611,3.263 -0.442,0.767 -1.118,0.975 -1.482,0.975 -0.377,0 -1.053,-0.169 -1.495,-0.949 -0.325,-0.559 -0.598,-1.57301 -0.611,-3.107 m -4.79071,-0.312 c -0.806,0.325 -1.417,0.611 -1.807,1.456 -0.208,0.455 -0.234,0.871 -0.234,1.053 0,0.832 0.377,1.378 0.572,1.599 0.676,0.78 1.703,0.858 2.015,0.858 0.52,0 1.157,-0.143 1.625,-0.39 0.741,-0.39 0.988,-1.105 1.066,-1.391 0.052,-0.195 0.078,-0.455 0.078,-0.663 0,-0.624 -0.221,-1.248 -0.624,-1.677 -0.351,-0.364 -0.832,-0.611 -1.313,-0.845 0.676,-0.364 1.209,-0.65 1.508,-1.391 0.156,-0.403 0.169,-0.741 0.169,-0.897 0,-0.533 -0.169,-0.897 -0.26,-1.079 -0.572,-1.092 -1.69,-1.157 -2.08,-1.157 -0.39,0 -1.664,0.065 -2.223,1.209 -0.208,0.442 -0.247,0.884 -0.247,1.066 0,0.481 0.156,0.832 0.234,0.988 0.338,0.702 0.845,0.949 1.521,1.261 m 0.624,0.221 c 0.208,0.104 0.416,0.195 0.624,0.299 0.26,0.117 0.494,0.208 0.741,0.39 0.481,0.364 0.806,0.975 0.806,1.599 0,0.455 -0.169,1.43 -1.326,1.846 -0.338,0.117 -0.624,0.13 -0.767,0.13 -0.559,0 -1.092,-0.208 -1.261,-0.299 -0.832,-0.416 -0.936,-1.352 -0.936,-1.638 0,-0.494 0.182,-0.884 0.26,-1.027 0.416,-0.767 1.066,-1.014 1.859,-1.3 m 0.078,-0.455 c -0.65,-0.247 -1.261,-0.494 -1.664,-1.131 -0.169,-0.273 -0.26,-0.559 -0.26,-0.884 0,-1.079 0.884,-1.807 1.911,-1.807 0.676,0 1.274,0.299 1.586,0.884 0.143,0.273 0.234,0.598 0.234,0.91 0,0.416 -0.143,0.741 -0.208,0.871 -0.325,0.65 -0.858,0.871 -1.092,0.975 -0.169,0.065 -0.338,0.117 -0.507,0.182 m 3.3347,50.49275 c -0.013,1.742 0.312,2.847 0.702,3.497 0.572,0.988 1.456,1.209 1.885,1.209 0.273,0 0.936,-0.078 1.495,-0.624 0.689,-0.663 1.222,-2.015 1.222,-4.186 0,-0.299 0.026,-2.288 -0.806,-3.51 -0.585,-0.884 -1.391,-1.053 -1.794,-1.053 -0.416,0 -1.222,0.143 -1.82,0.975 -0.897,1.261 -0.884,3.432 -0.884,3.692 m 0.546,0.117 c -0.013,-1.508 0.247,-2.548 0.52,-3.107 0.091,-0.182 0.598,-1.17 1.56,-1.17 0.286,0 0.897,0.091 1.339,0.715 0.26,0.338 0.403,0.819 0.442,0.936 0.338,1.066 0.338,2.067 0.338,2.444 0,0.962 -0.143,2.431 -0.611,3.263 -0.442,0.767 -1.118,0.975 -1.482,0.975 -0.377,0 -1.053,-0.169 -1.495,-0.949 -0.325,-0.559 -0.598,-1.573 -0.611,-3.107 m -1.8397,-4.68 -4.784,0 0,0.559 4.186,0 -3.354,8.58 0.663,0 3.289,-8.723 0,-0.416 m 1.2937,54.60076 c -0.013,1.742 0.312,2.847 0.702,3.497 0.572,0.988 1.456,1.209 1.885,1.209 0.273,0 0.936,-0.078 1.495,-0.624 0.689,-0.663 1.222,-2.015 1.222,-4.186 0,-0.299 0.026,-2.288 -0.806,-3.51 -0.585,-0.884 -1.391,-1.053 -1.794,-1.053 -0.416,0 -1.222,0.143 -1.82,0.975 -0.897,1.261 -0.884,3.432 -0.884,3.692 m 0.546,0.117 c -0.013,-1.508 0.247,-2.548 0.52,-3.107 0.091,-0.182 0.598,-1.17 1.56,-1.17 0.286,0 0.897,0.091 1.339,0.715 0.26,0.338 0.403,0.819 0.442,0.936 0.338,1.066 0.338,2.067 0.338,2.444 0,0.962 -0.143,2.431 -0.611,3.263 -0.442,0.767 -1.118,0.975 -1.482,0.975 -0.377,0 -1.053,-0.169 -1.495,-0.949 -0.325,-0.559 -0.598,-1.573 -0.611,-3.107 m -1.7747,-3.978 c -0.546,-0.468 -0.78,-0.598 -1.157,-0.689 -0.247,-0.065 -0.416,-0.065 -0.533,-0.065 -0.65,0 -1.76801,0.26 -2.509,1.729 -0.169,0.351 -0.299,0.728 -0.39,1.092 -0.234,1.014 -0.26,2.249 -0.26,2.522 0,0.247 -0.026,1.963 0.741,3.003 0.442,0.624 1.157,1.014 1.937,1.014 0.351,0 1.157,-0.078 1.768,-0.845 0.67599,-0.845 0.689,-1.898 0.689,-2.262 0,-0.39 -0.013,-1.651 -1.118,-2.353 -0.507,-0.338 -1.027,-0.364 -1.235,-0.364 -0.975,0 -1.573,0.598 -1.781,0.858 -0.182,0.234 -0.325,0.507 -0.455,0.767 0.026,-1.144 0.065,-1.82 0.481,-2.899 0.429,-1.105 0.949,-1.456 1.456,-1.638 0.312,-0.104 0.546,-0.117 0.689,-0.117 0.572,0 0.897,0.286 1.3,0.637 l 0.377,-0.39 m -4.29,5.421 c 0.039,-0.143 0.117,-0.468 0.286,-0.806 0.247,-0.468 0.715,-1.001 1.222,-1.196 0.195,-0.078 0.416,-0.117 0.624,-0.117 0.481,0 0.819,0.182 0.988,0.286 0.546,0.338 0.793,0.832 0.884,1.469 0.039,0.26 0.039,0.52 0.039,0.611 0,1.196 -0.61101,2.431 -1.924,2.431 -1.17,0 -1.651,-0.975 -1.794,-1.3 -0.13,-0.325 -0.221,-0.676 -0.325,-1.378 m 5.5317,48.51677 c -0.013,1.742 0.312,2.847 0.702,3.497 0.572,0.988 1.456,1.209 1.885,1.209 0.273,0 0.936,-0.078 1.495,-0.624 0.689,-0.663 1.222,-2.015 1.222,-4.186 0,-0.299 0.026,-2.288 -0.806,-3.51 -0.585,-0.884 -1.391,-1.053 -1.794,-1.053 -0.416,0 -1.222,0.143 -1.82,0.975 -0.897,1.261 -0.884,3.432 -0.884,3.692 m 0.546,0.117 c -0.013,-1.508 0.247,-2.548 0.52,-3.107 0.091,-0.182 0.598,-1.17 1.56,-1.17 0.286,0 0.897,0.091 1.339,0.715 0.26,0.338 0.403,0.819 0.442,0.936 0.338,1.066 0.338,2.067 0.338,2.444 0,0.962 -0.143,2.431 -0.611,3.263 -0.442,0.767 -1.118,0.975 -1.482,0.975 -0.377,0 -1.053,-0.169 -1.495,-0.949 -0.325,-0.559 -0.598,-1.573 -0.611,-3.107 m -5.9087,0.273 c 0.312,-0.533 0.585,-1.001 1.17,-1.261 0.208,-0.091 0.429,-0.13 0.663,-0.13 0.208,0 0.611,0.039 1.04,0.39 0.598,0.507 0.793,1.222 0.793,1.989 0,0.754 -0.156,1.677 -0.702,2.236 -0.455,0.481 -1.053,0.546 -1.287,0.546 -0.572,0 -1.144,-0.299 -1.495,-0.754 -0.104,-0.143 -0.234,-0.364 -0.403,-0.741 l -0.507,0.247 c 0.26,0.507 0.481,0.949 0.923,1.3 0.221,0.156 0.728,0.494 1.443,0.494 0.468,0 0.897,-0.117 1.274,-0.364 0.91,-0.572 1.339,-1.768 1.339,-2.808 0,-0.962 -0.364,-2.119 -1.131,-2.678 -0.481,-0.351 -1.014,-0.39 -1.235,-0.39 -0.26,0 -0.884,0.052 -1.417,0.533 -0.13,0.117 -0.234,0.234 -0.338,0.351 l 0.195,-3.367 3.445,0 0,-0.546 -3.939,0 -0.286,4.823 0.455,0.13 m 5.68771,49.667304 c -0.013,1.741998 0.312,2.847001 0.702,3.497 0.572,0.987999 1.456,1.209 1.885,1.209 0.273,0 0.936,-0.078 1.495,-0.624 0.689,-0.662999 1.222,-2.015002 1.222,-4.186 0,-0.299 0.026,-2.288001 -0.806,-3.51 -0.585,-0.883999 -1.391,-1.053 -1.794,-1.053 -0.416,0 -1.222,0.143001 -1.82,0.975 -0.897,1.260999 -0.884,3.432 -0.884,3.692 m 0.546,0.117 c -0.013,-1.507998 0.247,-2.548 0.52,-3.107 0.091,-0.182 0.598,-1.17 1.56,-1.17 0.286,0 0.897,0.091 1.339,0.715 0.26,0.338 0.403,0.819 0.442,0.936 0.338,1.065999 0.338,2.067 0.338,2.444 0,0.961999 -0.143,2.431001 -0.611,3.263 -0.442,0.766999 -1.118,0.975 -1.482,0.975 -0.377,0 -1.053,-0.169001 -1.495,-0.949 -0.325,-0.558999 -0.598,-1.573001 -0.611,-3.107 m -6.9617,1.495 0,0.468 3.588,0 0,2.496 0.572,0 0,-2.496 1.3,0 0,-0.494 -1.261,0 0,-6.24 -0.832,0 -3.367,6.266 m 3.692,-5.811 -0.078,5.785 -3.029,0 3.107,-5.785 m 2.76269,54.249751 c -0.013,1.741998 0.312,2.847 0.702,3.497 0.572,0.987999 1.456,1.209 1.885,1.209 0.273,0 0.936,-0.078 1.495,-0.624 0.689,-0.663 1.222,-2.015002 1.222,-4.186 0,-0.299 0.026,-2.288001 -0.806,-3.51 -0.585,-0.883999 -1.391,-1.053 -1.794,-1.053 -0.416,0 -1.222,0.143001 -1.82,0.975 -0.897,1.260999 -0.884,3.432 -0.884,3.692 m 0.546,0.117 c -0.013,-1.507999 0.247,-2.548001 0.52,-3.107 0.091,-0.182 0.598,-1.17 1.56,-1.17 0.286,0 0.897,0.091 1.339,0.715 0.26,0.337999 0.403,0.819 0.442,0.936 0.338,1.065999 0.338,2.067 0.338,2.444 0,0.961999 -0.143,2.431001 -0.611,3.263 -0.442,0.766999 -1.118,0.975 -1.482,0.975 -0.377,0 -1.053,-0.169001 -1.495,-0.949 -0.325,-0.559 -0.598,-1.573002 -0.611,-3.107 m -5.45371,-0.104 c 0.299,0 0.598,0.013 0.91,0.013 0.26,0 0.442,0 0.689,0.078 0.832,0.26 1.287,1.079001 1.287,1.963 0,1.182999 -0.793,2.132 -1.95,2.132 -0.88399,0 -1.417,-0.533 -1.612,-0.767 -0.117,-0.13 -0.208,-0.247 -0.377,-0.546 l -0.494,0.286 c 0.026,0.052 0.26,0.468 0.494,0.715 0.676,0.740999 1.612,0.832 1.95,0.832 0.468,0 1.79401,-0.143002 2.314,-1.482 0.195,-0.494 0.208,-0.936 0.208,-1.144 0,-1.104999 -0.507,-1.729 -0.858,-1.976 -0.26,-0.195 -0.741,-0.351 -0.78,-0.364 0.078,-0.039 0.455,-0.182 0.741,-0.403 0.507,-0.39 0.767,-1.079001 0.767,-1.742 0,-0.468 -0.143,-1.638001 -1.352,-2.106 -0.156,-0.052 -0.494,-0.169 -0.923,-0.169 -1.29999,0 -1.937,0.884 -2.21,1.222 l 0.416,0.286 c 0.377,-0.442 0.67601,-0.754 1.235,-0.923 0.247,-0.078 0.507,-0.091 0.598,-0.091 1.079,0 1.495,0.845 1.599,1.183 0.026,0.078 0.104,0.338 0.104,0.624 0,0.350999 -0.104,0.715 -0.26,1.014 -0.234,0.402999 -0.702,0.884 -1.807,0.884 -0.234,0 -0.455,-0.026 -0.689,-0.039 l 0,0.52 m 4.69972,50.050759 c -0.013,1.741998 0.312,2.847 0.702,3.497 0.57199,0.987999 1.456,1.209 1.885,1.209 0.27299,0 0.936,-0.078 1.495,-0.624 0.68899,-0.663 1.222,-2.015002 1.222,-4.186 0,-0.299 0.026,-2.288002 -0.806,-3.51 -0.585,-0.883999 -1.39101,-1.053 -1.794,-1.053 -0.416,0 -1.22201,0.143001 -1.82,0.975 -0.897,1.260998 -0.884,3.432 -0.884,3.692 m 0.546,0.117 c -0.013,-1.507999 0.247,-2.548001 0.52,-3.107 0.091,-0.182 0.598,-1.17 1.56,-1.17 0.28599,0 0.897,0.091 1.339,0.715 0.25999,0.337999 0.403,0.819 0.442,0.936 0.33799,1.065999 0.338,2.067 0.338,2.444 0,0.961999 -0.14301,2.431001 -0.611,3.263 -0.442,0.766999 -1.11801,0.975 -1.482,0.975 -0.377,0 -1.05301,-0.169001 -1.495,-0.949 -0.325,-0.559 -0.598,-1.573002 -0.611,-3.107 m -6.11671,-2.093 c 0.143,-0.507 0.299,-1.001001 0.65,-1.43 0.169,-0.195 0.585,-0.624 1.326,-0.624 1.066,0 1.716,0.910001 1.716,1.937 0,1.403998 -1.183,2.288001 -2.158,3.12 -0.52,0.454999 -0.767,0.702 -0.975,0.962 -0.507,0.610999 -0.871,1.339 -1.235,2.08 l 0,0.507 4.797,0.052 0,-0.572 -4.199,0 c 0.468,-0.948999 0.754,-1.469001 1.482,-2.21 0.286,-0.286 0.585,-0.559001 0.897,-0.819 0.832,-0.689 1.573,-1.261001 1.872,-2.327 0.091,-0.377 0.104,-0.676 0.104,-0.832 0,-1.052999 -0.52,-1.664001 -0.819,-1.924 -0.39,-0.338 -0.936,-0.52 -1.469,-0.533 -0.442,0 -0.858,0.13 -1.235,0.377 -0.767,0.506999 -1.014,1.274 -1.118,1.56 -0.052,0.156 -0.104,0.299 -0.143,0.455 l 0.507,0.221 m 4.7257,52.033258 c -0.013,1.741999 0.312,2.847001 0.702,3.497 0.572,0.987999 1.456,1.209 1.885,1.209 0.273,0 0.936,-0.078 1.495,-0.624 0.689,-0.662999 1.222,-2.015002 1.222,-4.186 0,-0.298999 0.026,-2.288001 -0.806,-3.51 -0.585,-0.883999 -1.391,-1.053 -1.794,-1.053 -0.416,0 -1.222,0.143001 -1.82,0.975 -0.897,1.260999 -0.884,3.432001 -0.884,3.692 m 0.546,0.117 c -0.013,-1.507998 0.247,-2.548 0.52,-3.107 0.091,-0.182 0.598,-1.17 1.56,-1.17 0.286,0 0.897,0.091 1.339,0.715 0.26,0.338 0.403,0.819 0.442,0.936 0.338,1.065999 0.338,2.067001 0.338,2.444 0,0.961999 -0.143,2.431001 -0.611,3.263 -0.442,0.767 -1.118,0.975 -1.482,0.975 -0.377,0 -1.053,-0.169001 -1.495,-0.949 -0.325,-0.558999 -0.598,-1.573001 -0.611,-3.107 m -4.1277,-4.719 c -0.221,0.195 -0.325,0.286 -0.455,0.364 -0.195,0.13 -0.403,0.234 -0.611,0.351 -0.247,0.143 -0.494,0.299 -0.754,0.455 l 0.26,0.481 1.417,-0.936 0,7.995 -1.417,0 0,0.52 3.367,0 0,-0.52 -1.339,0 0,-8.71 -0.468,0 m -1.092,30.300528 c 0.312,-0.533 0.585,-1.001 1.17,-1.261 0.208,-0.091 0.429,-0.13 0.663,-0.13 0.208,0 0.611,0.039 1.04,0.39 0.598,0.507 0.793,1.222 0.793,1.989 0,0.754 -0.156,1.677 -0.702,2.236 -0.455,0.481 -1.053,0.546 -1.287,0.546 -0.572,0 -1.144,-0.299 -1.495,-0.754 -0.104,-0.143 -0.234,-0.364 -0.403,-0.741 l -0.507,0.247 c 0.26,0.507 0.481,0.949 0.923,1.3 0.221,0.156 0.728,0.494 1.443,0.494 0.468,0 0.897,-0.117 1.274,-0.364 0.91,-0.572 1.339,-1.768 1.339,-2.808 0,-0.962 -0.364,-2.119 -1.131,-2.678 -0.481,-0.351 -1.014,-0.39 -1.235,-0.39 -0.26,0 -0.884,0.052 -1.417,0.533 -0.13,0.117 -0.234,0.234 -0.338,0.351 l 0.195,-3.367 3.445,0 0,-0.546 -3.939,0 -0.286,4.823 0.455,0.13 m -0.728,24.35875 c -0.013,1.74199 0.312,2.847 0.702,3.497 0.572,0.988 1.456,1.209 1.885,1.209 0.273,0 0.936,-0.078 1.495,-0.624 0.689,-0.663 1.222,-2.01501 1.222,-4.186 0,-0.299 0.026,-2.28801 -0.806,-3.51 -0.585,-0.884 -1.391,-1.053 -1.794,-1.053 -0.416,0 -1.222,0.143 -1.82,0.975 -0.897,1.26099 -0.884,3.432 -0.884,3.692 m 0.546,0.117 c -0.013,-1.508 0.247,-2.548 0.52,-3.107 0.091,-0.182 0.598,-1.17 1.56,-1.17 0.286,0 0.897,0.091 1.339,0.715 0.26,0.338 0.403,0.819 0.442,0.936 0.338,1.066 0.338,2.067 0.338,2.444 0,0.962 -0.143,2.431 -0.611,3.263 -0.442,0.767 -1.118,0.975 -1.482,0.975 -0.377,0 -1.053,-0.169 -1.495,-0.949 -0.325,-0.559 -0.598,-1.57301 -0.611,-3.107"
       id="alt-labels" />
    <path
       id="alt-ticks-minor"
       style="fill:#ff00ff;fill-opacity:1;fill-rule:evenodd;stroke:#ffffff;stroke-width:0.81296712;stroke-linecap:square;stroke-linejoin:miter;stroke-miterlimit:4;stroke-opacity:1;stroke-dasharray:none;stroke-dashoffset:0;marker:none;visibility:visible;display:inline;overflow:visible;enable-background:accumulate"
       d="m 249.38049,23.856483 3.00302,0 m -3.00302,4.915629 3.00302,0 m -3.00302,5.116267 3.00302,0 m -3.00302,5.015948 3.00302,0 m -3.00302,60.191359 3.00302,0 m -3.00302,4.915624 3.00302,0 m -3.00302,5.11628 3.00302,0 m -3.00302,5.01592 3.00302,0 m -3.00302,-65.207292 3.00302,0 m -3.00302,4.915631 3.00302,0 m -3.00302,5.116264 3.00302,0 m -3.00302,5.015948 3.00302,0 m -3.00302,10.031891 3.00302,0 m -3.00302,4.91563 3.00302,0 m -3.00302,5.116264 3.00302,0 m -3.00302,5.015949 3.00302,0"
       inkscape:connector-curvature="0" />
  </g>
  <g
     inkscape:groupmode="layer"
     id="layer1"
     inkscape:label="shadow">
    <rect
       style="fill:#406080;fill-opacity:0.7692308;stroke:none"
       id="rect3856"
       width="336.99997"
       height="27.707106"
       x="-6.9999995"
       y="-7.9999876" />
    <rect
       y="212.70711"
       x="-5.9999995"
       height="35.292892"
       width="336.99997"
       id="rect3858"
       style="fill:#403020;fill-opacity:0.7692308;stroke:none" />
  </g>
  <g
     inkscape:label="display"
     inkscape:groupmode="layer"
     id="display"
     transform="translate(-268.57144,-763.79074)"
     style="display:inline">
    <path
       style="font-size:27.20493698px;font-style:normal;font-variant:normal;font-weight:bold;font-stretch:normal;text-align:center;line-height:125%;writing-mode:lr-tb;text-anchor:middle;fill:#00ff00;fill-opacity:1;stroke:none;font-family:Letter Gothic Std;-inkscape-font-specification:Letter Gothic Std Bold"
       d="m 364.43769,984.56176 c -0.44658,-0.4209 -0.9455,-0.7699 -1.49677,-1.0471 -0.55128,-0.2772 -1.13643,-0.4209 -1.75546,-0.4312 -0.90888,0.01 -1.66171,0.2611 -2.2585,0.7658 -0.59679,0.5048 -0.90613,1.2241 -0.92803,2.1579 0.0181,0.7275 0.23645,1.3216 0.65496,1.7822 0.4185,0.4606 0.92838,0.8575 1.52962,1.1908 l 1.06765,0.6406 c 1.00229,0.592 1.62166,1.0506 1.85812,1.3756 0.23645,0.3251 0.33432,0.7098 0.29361,1.1539 -0.0168,0.6444 -0.23783,1.1666 -0.66318,1.5666 -0.42535,0.4 -0.95439,0.606 -1.5871,0.618 -0.56942,-0.011 -1.07724,-0.1697 -1.52346,-0.4763 -0.44623,-0.3066 -0.81443,-0.6954 -1.10461,-1.1662 l -0.95267,0.7555 c 0.45614,0.5975 0.97697,1.0656 1.56247,1.4044 0.58549,0.3388 1.25825,0.5112 2.01827,0.5174 1.05053,-0.01 1.8896,-0.3076 2.51719,-0.8972 0.62758,-0.5896 0.94924,-1.4184 0.965,-2.4864 0.0205,-0.6594 -0.16838,-1.2213 -0.56668,-1.6857 -0.39833,-0.4643 -1.12926,-1.0139 -2.1928,-1.6487 l -0.93625,-0.5749 c -0.76822,-0.4746 -1.25209,-0.8763 -1.45159,-1.2052 -0.1995,-0.3288 -0.28505,-0.6443 -0.25664,-0.9465 0.0137,-0.5496 0.19983,-0.9862 0.55846,-1.3099 0.35861,-0.3237 0.80757,-0.4894 1.34688,-0.4969 0.50713,0.015 0.97115,0.1571 1.39206,0.425 0.42089,0.268 0.81099,0.5698 1.1703,0.9055 l 0.73915,-0.887 z m 8.77317,-1.2483 -7.90062,0 0,1.0348 3.30151,0 0,10.7914 1.2319,0 0,-10.7914 3.36721,0 0,-1.0348 z m 1.08608,11.8262 2.82517,0 c 1.29452,0.038 2.28209,-0.3788 2.96273,-1.2503 0.68062,-0.8716 1.0235,-2.4259 1.02864,-4.6628 -0.0161,-2.2657 -0.36581,-3.8281 -1.04917,-4.6874 -0.68337,-0.8592 -1.60388,-1.2678 -2.76152,-1.2257 l -3.00585,0 0,11.8262 z m 1.2319,-10.7914 1.47829,0 c 0.5319,-0.024 1.01391,0.062 1.44605,0.2573 0.43212,0.1953 0.77665,0.6424 1.03358,1.3414 0.25692,0.699 0.38853,1.7922 0.39482,3.2796 -0.003,1.4461 -0.12249,2.5198 -0.3571,3.2212 -0.23463,0.7014 -0.56415,1.1583 -0.98857,1.3706 -0.42443,0.2123 -0.92307,0.3078 -1.49593,0.2865 l -1.51114,0 0,-9.7566 z"
       id="text3598"
       inkscape:connector-curvature="0" />
    <path
       id="alt-accel"
       style="fill:#ff00ff;fill-opacity:1;fill-rule:evenodd;stroke:#ffffff;stroke-width:0.84089172;stroke-linecap:square;stroke-linejoin:miter;stroke-miterlimit:4;stroke-opacity:1;stroke-dasharray:none;stroke-dashoffset:0;marker:none;visibility:visible;display:inline;overflow:visible;enable-background:accumulate"
       d="m 547.87289,956.96931 -1.79802,0 m 1.79802,-6.012 -1.79802,0 m 1.79802,-7.37502 -1.79802,0 m 1.79802,-8.7372 -1.79802,0 m 1.79802,-32.22372 -1.79802,0 m 1.79802,6.0124 -1.79802,0 m 1.79802,7.37475 -1.79802,0 m 1.79802,8.73703 -1.79802,0 m 1.79801,34.5489 -5.28615,0 m 5.28615,-4.64951 -5.28615,0 m 5.28615,-7.37526 -5.28615,0 m 5.28615,-7.37445 -5.28615,0 m 5.28615,-39.59888 -5.28615,0 m 5.28615,4.65 -5.28615,0 m 5.28615,7.37481 -5.28615,0 m 5.28615,7.37473 -5.28615,0 m 5.28615,10.09948 -5.28615,0"
       inkscape:connector-curvature="0" />
    <path
       style="font-size:20.09055901px;font-style:normal;font-variant:normal;font-weight:bold;font-stretch:normal;text-align:center;line-height:-793528.515625%;writing-mode:lr-tb;text-anchor:middle;fill:#00ff00;fill-opacity:1;stroke:none;font-family:Letter Gothic Std;-inkscape-font-specification:Letter Gothic Std Bold"
       d="m 410.97307,766.97729 -0.90974,0 0,8.73359 4.69431,0 0,-0.76419 -3.78457,0 0,-7.9694 z m 4.81609,8.73359 0.90975,0 0,-6.93835 0.0243,-0.0243 2.86268,7.04752 0.86122,0 0,-8.8185 -0.90975,0 0,6.52594 -0.0364,0 -2.65646,-6.52594 -1.05532,0 0,8.73359 z m 8.46722,-9.46139 -3.08102,9.46139 0.98253,0 0.77632,-2.57155 2.65647,0 0.77632,2.57155 0.98253,0 -3.09315,-9.46139 z m 0,2.59582 1.11596,3.52983 -2.21979,0 1.10383,-3.52983 z m 6.16252,5.5434 -0.0243,0 -1.5769,-7.41142 -0.99466,0 1.9408,8.8185 1.24939,0 1.97719,-8.8185 -1.00679,0 -1.56477,7.41142 z"
       id="text4016"
       inkscape:connector-curvature="0" />
    <path
       style="font-size:20.09055901px;font-style:normal;font-variant:normal;font-weight:bold;font-stretch:normal;text-align:center;line-height:-793528.515625%;writing-mode:lr-tb;text-anchor:middle;fill:#00ff00;fill-opacity:1;stroke:none;font-family:Letter Gothic Std;-inkscape-font-specification:Letter Gothic Std Bold"
       d="m 457.82448,774.38871 -0.0243,0 -1.5769,-7.41142 -0.99466,0 1.9408,8.8185 1.24939,0 1.97719,-8.8185 -1.00679,0 -1.56477,7.41142 z m 4.00338,1.32217 0.90975,0 0,-6.93835 0.0243,-0.0243 2.86268,7.04752 0.86122,0 0,-8.8185 -0.90974,0 0,6.52594 -0.0364,0 -2.65647,-6.52594 -1.05531,0 0,8.73359 z m 8.46722,-9.46139 -3.08102,9.46139 0.98253,0 0.77632,-2.57155 2.65647,0 0.77632,2.57155 0.98252,0 -3.09314,-9.46139 z m 0,2.59582 1.11596,3.52983 -2.21979,0 1.10383,-3.52983 z m 6.16252,5.5434 -0.0243,0 -1.5769,-7.41142 -0.99466,0 1.94079,8.8185 1.24939,0 1.97719,-8.8185 -1.00678,0 -1.56477,7.41142 z m 10.44489,1.32217 0.90974,0 0,-3.43278 0.76419,0 c 0.87007,0.006 1.57108,-0.20267 2.10304,-0.6247 0.53195,-0.42202 0.80538,-1.09118 0.82029,-2.00751 -0.006,-0.86476 -0.22492,-1.52483 -0.65805,-1.98022 -0.43315,-0.45538 -1.04672,-0.68483 -1.84073,-0.68838 l -2.09848,0 0,8.73359 z m 0.90974,-4.19697 0,-3.77243 1.06745,0 c 0.54357,-0.006 0.96356,0.14228 1.26,0.44426 0.29642,0.30199 0.44653,0.79275 0.45032,1.47228 -0.008,0.61333 -0.17109,1.07578 -0.48975,1.38737 -0.31866,0.31159 -0.74574,0.46776 -1.28123,0.46852 l -1.00679,0 z m 10.2382,-4.53662 -5.83452,0 0,0.76419 2.43812,0 0,7.9694 0.90975,0 0,-7.9694 2.48665,0 0,-0.76419 z m 1.77146,0 -0.90975,0 0,8.73359 0.90975,0 0,-4.14845 3.0325,0 0,4.14845 0.90975,0 0,-8.73359 -0.90975,0 0,3.82095 -3.0325,0 0,-3.82095 z"
       id="text4020"
       inkscape:connector-curvature="0" />
    <path
       sodipodi:nodetypes="cc"
       id="path4080"
       d="m 450.36945,767.06457 0,21.30977"
       style="fill:#808080;fill-opacity:1;fill-rule:evenodd;stroke:#ffffff;stroke-width:1.20754719;stroke-linecap:square;stroke-linejoin:miter;stroke-miterlimit:4;stroke-opacity:1;stroke-dasharray:none;stroke-dashoffset:0;marker:none;visibility:visible;display:inline;overflow:visible;enable-background:accumulate"
       inkscape:connector-curvature="0" />
    <path
       style="font-size:13.01408863px;font-style:normal;font-variant:normal;font-weight:bold;font-stretch:normal;text-align:center;line-height:82.44976997%;writing-mode:lr-tb;text-anchor:middle;fill:#00ff00;fill-opacity:1;stroke:none;font-family:Letter Gothic Std;-inkscape-font-specification:Letter Gothic Std Bold"
       d="m 478.37225,987.47538 c 0.49927,-0.013 0.88756,-0.1662 1.16487,-0.4607 0.2773,-0.2944 0.41807,-0.6543 0.42233,-1.0794 -9.9e-4,-0.3612 -0.0854,-0.6582 -0.2534,-0.8908 -0.16796,-0.2326 -0.4135,-0.4255 -0.73664,-0.5785 0.23392,-0.1303 0.41628,-0.2979 0.54708,-0.5029 0.13079,-0.2049 0.19725,-0.4433 0.19938,-0.715 -0.01,-0.4431 -0.115,-0.7669 -0.31546,-0.9714 -0.20047,-0.2045 -0.43716,-0.3339 -0.71008,-0.3883 -0.27293,-0.054 -0.52301,-0.078 -0.75024,-0.07 l -1.18648,0 0,5.6574 1.61864,0 z m -1.02933,-5.1624 0.63645,0 c 0.20593,-0.02 0.44231,0.015 0.70914,0.1051 0.26682,0.091 0.41284,0.3594 0.43805,0.8064 -0.0129,0.3398 -0.13047,0.6011 -0.3526,0.7838 -0.22214,0.1827 -0.47129,0.275 -0.74744,0.277 l -0.6836,0 0,-1.9723 z m 0,4.6674 0,-2.2001 0.7386,0 c 0.44558,0.01 0.77232,0.1293 0.98022,0.3575 0.20789,0.2282 0.31069,0.5045 0.3084,0.829 -0.0108,0.3516 -0.11885,0.6089 -0.32412,0.772 -0.20527,0.163 -0.44296,0.2435 -0.71306,0.2416 l -0.99004,0 z m 4.81758,-5.6338 -1.99579,6.1288 0.63645,0 0.50287,-1.6658 1.72079,0 0.50288,1.6658 0.63645,0 -2.00365,-6.1288 z m 0,1.6815 0.72289,2.2865 -1.43792,0 0.71503,-2.2865 z m 2.55463,4.4473 0.58931,0 0,-2.3415 c 0.14143,0 0.28287,-0.01 0.42431,-0.01 0.14142,0 0.28286,0 0.4243,-0.01 l 1.37505,2.3573 0.71503,0 -1.52435,-2.4908 c 0.38567,-0.2248 0.65151,-0.4687 0.79754,-0.7317 0.14601,-0.2631 0.21542,-0.5404 0.20822,-0.832 0.007,-0.1236 -0.0212,-0.3111 -0.085,-0.5622 -0.0638,-0.2512 -0.20623,-0.484 -0.42721,-0.6984 -0.22099,-0.2145 -0.56361,-0.3286 -1.02787,-0.3423 l -1.46935,0 0,5.6574 z m 0.58931,-2.8444 0,-2.318 0.58145,0 c 0.46113,0 0.78624,0.083 0.97531,0.2554 0.18907,0.1725 0.28041,0.4463 0.27403,0.8211 -0.003,0.4161 -0.11492,0.7272 -0.33591,0.9331 -0.22099,0.2059 -0.53332,0.3087 -0.937,0.3084 l -0.55788,0 z m 2.8925,0.016 c -0.0109,0.2886 0.01,0.6613 0.0626,1.1181 0.0526,0.4568 0.20207,0.8691 0.44846,1.2368 0.2464,0.3678 0.65488,0.5624 1.22547,0.5838 0.58543,-0.022 1.0009,-0.2204 1.24643,-0.5943 0.24552,-0.3738 0.39151,-0.7896 0.43798,-1.2473 0.0465,-0.4576 0.0638,-0.8233 0.0521,-1.0971 0.009,-0.3677 -0.0187,-0.7777 -0.0835,-1.2298 -0.0648,-0.4522 -0.22127,-0.8458 -0.46941,-1.181 -0.24815,-0.3351 -0.64266,-0.5111 -1.18357,-0.5279 -0.48831,-0.025 -0.89657,0.1688 -1.22478,0.5824 -0.32821,0.4137 -0.49878,1.1991 -0.51172,2.3563 l 0,0 z m 1.7365,2.4437 c -0.38521,-0.018 -0.65896,-0.1817 -0.82125,-0.4904 -0.16229,-0.3087 -0.2591,-0.6531 -0.29043,-1.0334 -0.0313,-0.3802 -0.0432,-0.6869 -0.0355,-0.9199 -0.009,-0.1341 -0.003,-0.3941 0.018,-0.7802 0.0211,-0.3861 0.11214,-0.7538 0.27297,-1.1033 0.16083,-0.3494 0.44622,-0.5361 0.85617,-0.5602 0.40005,0.021 0.68079,0.1934 0.84221,0.5183 0.16141,0.325 0.25473,0.6788 0.27996,1.0614 0.0252,0.3826 0.0335,0.6706 0.025,0.864 -0.003,0.6758 -0.0587,1.1908 -0.16646,1.545 -0.10773,0.3542 -0.24819,0.5945 -0.42139,0.7209 -0.17321,0.1263 -0.35966,0.1856 -0.55934,0.1778 l 0,0 z"
       id="text4082"
       inkscape:connector-curvature="0" />
    <path
       style="font-size:18.8019619px;font-style:normal;font-variant:normal;font-weight:bold;font-stretch:normal;text-align:center;line-height:82.44976997%;writing-mode:lr-tb;text-anchor:middle;fill:#00ff00;fill-opacity:1;stroke:none;font-family:Letter Gothic Std;-inkscape-font-specification:Letter Gothic Std Bold"
       d="m 477.11025,996.96808 c 0.0272,-0.5139 0.15442,-0.9562 0.3817,-1.3268 0.22728,-0.3706 0.52763,-0.7192 0.90107,-1.0458 l 0.5903,-0.5335 c 0.4387,-0.3652 0.8469,-0.7615 1.22459,-1.1891 0.37769,-0.4276 0.57871,-0.9432 0.60308,-1.5468 -0.0104,-0.6236 -0.20245,-1.1075 -0.57611,-1.4516 -0.37368,-0.3441 -0.86655,-0.5186 -1.4786,-0.5236 -0.73315,0.014 -1.29602,0.2441 -1.68861,0.6896 -0.39259,0.4456 -0.60922,1.0217 -0.6499,1.7284 l 0.8514,0 c 0.0189,-0.4584 0.14568,-0.8528 0.38029,-1.1835 0.23461,-0.3306 0.59976,-0.5037 1.09547,-0.5193 0.38832,0.01 0.68726,0.1223 0.8968,0.3505 0.20954,0.2282 0.31549,0.5352 0.31786,0.9209 -0.0296,0.4638 -0.2287,0.8928 -0.5974,1.287 -0.3687,0.3943 -0.7296,0.7296 -1.0827,1.0061 -0.6454,0.5234 -1.14253,1.0517 -1.49136,1.585 -0.34884,0.5333 -0.52527,1.2348 -0.52928,2.1044 l 0,0.3633 4.57484,0 0,-0.7152 -3.72344,0 z m 7.50503,-7.708 -2.45202,0.7719 0,0.6471 1.60062,-0.4882 0,6.7772 -1.53251,0 0,0.7152 3.84832,0 0,-0.7152 -1.46441,0 0,-7.708 z m 4.56488,4.4046 c 0.61632,-0.055 1.12621,0.074 1.52968,0.3873 0.40347,0.3129 0.61253,0.7968 0.6272,1.4517 -0.009,0.5096 -0.16958,0.9065 -0.48104,1.1905 -0.31147,0.2841 -0.71872,0.4283 -1.22176,0.4328 -0.438,-0.01 -0.79369,-0.1225 -1.06708,-0.3519 -0.2734,-0.2294 -0.49287,-0.5397 -0.65842,-0.9309 l -0.74923,0.4428 c 0.27836,0.477 0.61277,0.854 1.00323,1.1309 0.39046,0.2769 0.86961,0.4184 1.43745,0.4243 0.75348,-0.01 1.36933,-0.2278 1.84753,-0.6599 0.4782,-0.432 0.72511,-1.0294 0.74072,-1.7921 -0.004,-0.5066 -0.13244,-0.9408 -0.38597,-1.3027 -0.25353,-0.3618 -0.60922,-0.6428 -1.06708,-0.8429 0.32305,-0.1989 0.58225,-0.4453 0.77761,-0.7393 0.19534,-0.2939 0.29562,-0.634 0.30082,-1.0202 -0.0156,-0.6154 -0.22846,-1.1215 -0.63854,-1.5184 -0.4101,-0.3968 -0.92378,-0.6021 -1.54104,-0.6158 -0.5255,0 -0.98999,0.1374 -1.39345,0.3987 -0.40347,0.2614 -0.72606,0.6242 -0.96776,1.0884 l 0.71517,0.4087 c 0.14001,-0.3124 0.34529,-0.5844 0.61585,-0.8159 0.27055,-0.2316 0.58368,-0.3531 0.93938,-0.3647 0.39187,0.01 0.72345,0.1303 0.99472,0.3732 0.27125,0.2429 0.41268,0.5688 0.42427,0.9777 -0.0168,0.4938 -0.1989,0.8769 -0.54631,1.1494 -0.34742,0.2724 -0.7594,0.4001 -1.23595,0.3831 l 0,0.7152 z"
       id="text4090"
       inkscape:connector-curvature="0" />
    <text
       xml:space="preserve"
       x="274.67484"
       y="777.38025"
       id="ros-link"
       sodipodi:linespacing="125%"><tspan
         sodipodi:role="line"
         id="tspan3218"
         x="274.67484"
         y="777.38025">ROS</tspan></text>
    <text
       id="battery-label"
       y="795.06805"
       x="558.4201"
       xml:space="preserve"><tspan
         y="795.06805"
         x="558.4201"
         id="tspan4033"
         sodipodi:role="line">BAT</tspan></text>
    <rect
       style="fill:#808080;fill-opacity:1;fill-rule:evenodd;stroke:#ffffff;stroke-width:2;stroke-opacity:1;marker:none;visibility:visible;display:inline;overflow:visible;enable-background:accumulate"
       id="battery-bg"
       width="26.716129"
       height="82"
       x="556.58057"
       y="799.05676" />
    <rect
       y="799.8324"
       x="557.06464"
       height="80.5"
       width="25.946623"
       id="battery-bar"
       style="fill:#00ff00;fill-opacity:1;fill-rule:evenodd;stroke:none;stroke-width:2;marker:none;visibility:visible;display:inline;overflow:visible;enable-background:accumulate" />
    <rect
       style="fill:#000000;fill-opacity:0.50256413;fill-rule:evenodd;stroke:none;stroke-width:2;marker:none;visibility:visible;display:inline;overflow:visible;enable-background:accumulate"
       id="battery-shadow"
       width="25.946623"
       height="17.500006"
       x="557.06464"
       y="862.8324" />
    <text
       xml:space="preserve"
       x="556.33362"
       y="876.40564"
       id="battery-value"
       sodipodi:linespacing="125%"
       style="line-height:125%"><tspan
         sodipodi:role="line"
         id="tspan4029"
         x="556.33362"
         y="876.40564">12.3</tspan></text>
    <rect
       y="798.36823"
       x="274.42844"
       height="43"
       width="26"
       id="rc-bg"
       style="fill:#808080;fill-opacity:1;fill-rule:evenodd;stroke:none;stroke-width:2;marker:none;visibility:visible;display:inline;overflow:visible;enable-background:accumulate" />
    <rect
       style="fill:#808080;fill-opacity:1;fill-rule:evenodd;stroke:none;stroke-width:2;marker:none;visibility:visible;display:inline;overflow:visible;enable-background:accumulate"
       id="wifi-bg"
       width="26"
       height="43"
       x="273.56427"
       y="861.83167" />
    <text
       xml:space="preserve"
       x="279.59863"
       y="794.62756"
       id="rc-label"
       sodipodi:linespacing="125%"><tspan
         sodipodi:role="line"
         id="tspan4041"
         x="279.59863"
         y="794.62756">RC</tspan><tspan
         sodipodi:role="line"
         x="279.59863"
         y="809.62756"
         id="tspan4051" /></text>
    <text
       xml:space="preserve"
       x="522.4538"
       y="795.1073"
       id="label-altitude"
       sodipodi:linespacing="125%"><tspan
         sodipodi:role="line"
         x="522.4538"
         y="795.1073"
         id="tspan3974">AGL</tspan></text>
    <text
       sodipodi:linespacing="125%"
       id="label-speed"
       y="794.98553"
       x="312.85367"
       xml:space="preserve"><tspan
         id="tspan4117"
         y="794.98553"
         x="312.85367"
         sodipodi:role="line">SPD</tspan></text>
    <rect
       y="800.22388"
       x="517.92828"
       height="159.18742"
       width="30.969107"
       id="alt-bar"
       style="fill:#000000;fill-opacity:0.1179487;stroke:#ffffff;stroke-width:1.37682247;stroke-miterlimit:4;stroke-opacity:1;stroke-dasharray:none;marker:none;visibility:visible;display:inline;overflow:visible;enable-background:accumulate" />
    <rect
       style="fill:#1e1e1e;fill-opacity:0.1179487;stroke:#ffffff;stroke-width:1.37962902;stroke-miterlimit:4;stroke-opacity:1;stroke-dasharray:none;marker:none;visibility:visible;display:inline;overflow:visible;enable-background:accumulate"
       id="spd-bar"
       width="30.969107"
       height="159.83707"
       x="308.9176"
       y="799.42389" />
    <g
       transform="translate(7.96016,-289.58146)"
       style="display:inline"
       id="g4037">
      <path
         id="rect3407"
         style="fill:#ff0000;fill-opacity:1;fill-rule:evenodd;stroke:none;stroke-width:2;marker:none;visibility:visible;display:inline;overflow:visible;enable-background:accumulate"
         d="m 311.56744,888.0589 5.50666,0 0,5.50666 -5.50666,0 z m 0,-70.20868 5.50666,0 0,5.50666 -5.50666,0 z m 0,50.14905 5.50666,0 0,5.50665 -5.50666,0 z m 0,-10.02979 5.50666,0 0,5.50666 -5.50666,0 z m 0,-10.02978 5.50666,0 0,5.50665 -5.50666,0 z m 0,-10.02985 5.50666,0 0,5.50666 -5.50666,0 z m 0,-10.02978 5.50666,0 0,5.50665 -5.50666,0 z m 0,-20.05964 5.50666,0 0,5.50666 -5.50666,0 z m 0,70.20868 5.50666,0 0,5.50666 -5.50666,0 z"
         inkscape:connector-curvature="0" />
      <path
         inkscape:connector-curvature="0"
         sodipodi:nodetypes="cccc"
         id="path3413"
         d="m 312.17121,983.88241 3.98896,0 0,25.81089 0,15.7213"
         style="fill:none;stroke:#ffff00;stroke-width:1.20754719;stroke-linecap:square;stroke-linejoin:miter;stroke-miterlimit:4;stroke-opacity:1;stroke-dasharray:none;stroke-dashoffset:0;marker:none;visibility:visible;display:inline;overflow:visible;enable-background:accumulate" />
    </g>
    <path
       inkscape:connector-curvature="0"
       style="fill:#000000;fill-opacity:1;stroke:#ffffff;stroke-width:1.20754719;stroke-linecap:square;stroke-linejoin:miter;stroke-miterlimit:4;stroke-opacity:1;stroke-dashoffset:0;marker:none;visibility:visible;display:inline;overflow:visible;enable-background:accumulate"
       d="m 295.4935,171.1275 -8.45107,0 -6.66566,-5.1275 6.66566,-5.1275 8.45107,0 z"
       id="alt-accel-indicator"
       sodipodi:nodetypes="cccccc"
       transform="translate(268.57144,763.79074)" />
    <text
       xml:space="preserve"
       x="271.87576"
       y="858.15784"
       id="wifi-label"><tspan
         sodipodi:role="line"
         id="tspan3856"
         x="271.87576"
         y="858.15784">Wi-Fi</tspan></text>
    <rect
       y="922.75781"
       x="273.56427"
       height="43"
       width="26"
       id="cpu-bg"
       style="fill:#808080;fill-opacity:1;fill-rule:evenodd;stroke:#ffffff;stroke-width:2;stroke-opacity:1;marker:none;visibility:visible;display:inline;overflow:visible;enable-background:accumulate" />
    <text
       sodipodi:linespacing="125%"
       id="cpu-label"
       y="918.97217"
       x="273.85101"
       xml:space="preserve"><tspan
         sodipodi:role="line"
         id="tspan3865"
         x="273.85101"
         y="918.97217"
         style="stroke-width:1">CPU</tspan></text>
    <rect
       style="fill:#ff0000;fill-opacity:1;fill-rule:evenodd;stroke:none;stroke-width:2;marker:none;visibility:visible;display:inline;overflow:visible;enable-background:accumulate"
       id="cpu-bar"
       width="25"
       height="42"
       x="273.86444"
       y="923.45776" />
    <rect
       y="947.85773"
       x="273.86444"
       height="17.356012"
       width="25"
       id="cpu-shadow"
       style="fill:#000000;fill-opacity:0.50256413;fill-rule:evenodd;stroke:none;stroke-width:2;marker:none;visibility:visible;display:inline;overflow:visible;enable-background:accumulate" />
    <text
       sodipodi:linespacing="125%"
       id="cpu-value"
       y="960.47845"
       x="274.23148"
       xml:space="preserve"
       style="line-height:125%"><tspan
         sodipodi:role="line"
         id="tspan3877"
         x="274.23148"
         y="960.47845">100</tspan></text>
  </g>
  <g
     inkscape:groupmode="layer"
     id="origin"
     inkscape:label="origin"
     style="display:inline">
    <path
       id="rect3175"
       style="fill:#000000;fill-opacity:1;fill-rule:evenodd;stroke:#ffffff;stroke-width:0.63879246;stroke-linecap:butt;stroke-linejoin:miter;stroke-miterlimit:4;stroke-opacity:1;stroke-dasharray:none;stroke-dashoffset:0;marker:none;visibility:visible;display:inline;overflow:visible;enable-background:accumulate"
       d="m 90.246396,116.75504 0,6.41509 39.339624,0 0,6.07547 6.41509,0 0,-12.49056 -45.754714,0 z"
       inkscape:connector-curvature="0" />
    <use
       x="0"
       y="0"
       xlink:href="#rect3175"
       id="use3180"
       transform="matrix(-1,0,0,1,319.38851,-4.5272402e-5)"
       width="500"
       height="500" />
    <rect
       y="116.79817"
       x="156.79817"
       height="6.4036593"
       width="6.4036593"
       id="zero"
       style="fill:none;stroke:#ffffff;stroke-width:0.63879246;stroke-linecap:butt;stroke-linejoin:miter;stroke-miterlimit:4;stroke-opacity:1;stroke-dasharray:none;stroke-dashoffset:0;marker:none;visibility:visible;display:inline;overflow:visible;enable-background:accumulate" />
    <path
       style="fill:#ff00ff;fill-opacity:1;fill-rule:evenodd;stroke:none;stroke-width:2;marker:none;visibility:visible;display:inline;overflow:visible;enable-background:accumulate"
       d="m 160,42.7321 -5.22641,5.24528 10.45283,0 L 160,42.7321 z m -6.39623,6.41509 -2.16981,2.16981 17.13208,0 -2.16981,-2.16981 -12.79246,0 z"
       id="path3241"
       inkscape:connector-curvature="0" />
    <path
       sodipodi:nodetypes="cccccccc"
       id="path3425"
       d="m 284.38408,106.73528 -29.65013,0 0,8.13722 -5.95335,5.1275 5.95335,5.1275 0,8.13722 29.65013,0 0,-26.52944 z"
       style="fill:#000000;fill-opacity:1;fill-rule:evenodd;stroke:#ffffff;stroke-width:1.14120209;stroke-linecap:square;stroke-linejoin:miter;stroke-miterlimit:4;stroke-opacity:1;stroke-dashoffset:0;marker:none;visibility:visible;display:inline;overflow:visible;enable-background:accumulate"
       inkscape:connector-curvature="0" />
    <text
       xml:space="preserve"
       x="256.16025"
       y="124.17377"
       id="agl-value"
       sodipodi:linespacing="125%"
       style="line-height:125%;fill:#ffffff"><tspan
         sodipodi:role="line"
         id="tspan4037"
         x="256.16025"
         y="124.17377">10.3</tspan></text>
    <text
       xml:space="preserve"
       x="283.44424"
       y="231.05339"
       id="text3978"
       class="pfd"><tspan
         sodipodi:role="line"
         id="tspan3980"
         x="283.44424"
         y="231.05339">MAG</tspan></text>
    <path
       style="fill:#000000;fill-opacity:1;fill-rule:evenodd;stroke:#ffffff;stroke-width:1.20952797;stroke-linecap:square;stroke-linejoin:miter;stroke-miterlimit:4;stroke-opacity:1;stroke-dashoffset:0;marker:none;visibility:visible;display:inline;overflow:visible;enable-background:accumulate"
       d="m 35.062764,106.73528 27.522898,0 0,8.13722 6.687545,5.1275 -6.687545,5.1275 0,8.13722 -27.522898,0 z"
       id="rect3314"
       sodipodi:nodetypes="cccccccc"
       inkscape:connector-curvature="0" />
    <rect
       style="fill:#ffffff;fill-opacity:1;fill-rule:evenodd;stroke:none;stroke-width:2;marker:none;visibility:visible;display:inline;overflow:visible;enable-background:accumulate"
       id="rect3446"
       width="5.2578144"
       height="2.7340298"
       x="242.76527"
       y="118.19336" />
    <text
       sodipodi:linespacing="125%"
       id="speed-value"
       y="123.75937"
       x="36.238251"
       xml:space="preserve"
       style="line-height:125%;fill:#ffffff"><tspan
         y="123.75937"
         x="36.238251"
         id="tspan4113"
         sodipodi:role="line">10.3</tspan></text>
    <text
       sodipodi:linespacing="125%"
       id="gps-status"
       y="231.17476"
       x="241.16722"
       xml:space="preserve"
       class="pfd-text"><tspan
         y="231.17476"
         x="241.16722"
         id="tspan3219"
         sodipodi:role="line">GPS</tspan></text>
  </g>
  <g
     inkscape:groupmode="layer"
     id="targets"
     inkscape:label="targets"
     style="display:inline">
    <path
       sodipodi:nodetypes="cccccc"
       id="target-spd"
       d="m 85.993504,125.1275 -8.45107,0 -6.66566,-5.1275 6.66566,-5.1275 8.45107,0 z"
       style="fill:none;stroke:#ff00ff;stroke-width:1.20754719;stroke-linecap:square;stroke-linejoin:miter;stroke-miterlimit:4;stroke-opacity:1;stroke-dashoffset:0;marker:none;visibility:visible;display:inline;overflow:visible;enable-background:accumulate"
       inkscape:connector-curvature="0" />
    <path
       style="fill:none;stroke:#ffffff;stroke-width:1.20754719;stroke-linecap:square;stroke-linejoin:miter;stroke-miterlimit:4;stroke-opacity:1;stroke-dasharray:none;stroke-dashoffset:0;marker:none;visibility:visible;display:inline;overflow:visible;enable-background:accumulate"
       d="m 367.54584,253.25364 5.98603,9.597 5.98605,-9.597 -11.97208,0 z"
       id="path3728"
       sodipodi:nodetypes="ccc"
       inkscape:connector-curvature="0" />
    <path
       style="fill:none;stroke:#ff00ff;stroke-width:1.20754719;stroke-linecap:square;stroke-linejoin:miter;stroke-miterlimit:4;stroke-opacity:1;stroke-dashoffset:0;marker:none;visibility:visible;display:inline;overflow:visible;enable-background:accumulate"
       d="m 248.44955,106.36028 -11.82959,0.25 0,8.13722 6.66566,5.1275 -6.66566,5.1275 0,8.13722 11.82959,-0.25 z"
       id="target-agl"
       sodipodi:nodetypes="cccccccc"
       inkscape:connector-curvature="0" />
    <path
       inkscape:connector-curvature="0"
       d="m 154.34315,-315.45395 0,39.3504 m -55.825194,-19.67521 111.650384,0"
       style="fill:#ffffff;fill-opacity:1;fill-rule:evenodd;stroke:#ff00ff;stroke-width:2;stroke-linecap:square;stroke-linejoin:miter;stroke-miterlimit:4;stroke-opacity:1;stroke-dasharray:none;stroke-dashoffset:0;marker:none;visibility:visible;display:inline;overflow:visible;enable-background:accumulate"
       id="orientation-cross" />
    <path
       style="fill:#ff00ff;fill-opacity:1;stroke:none"
       d="m 88.388337,150.19745 71.417783,-31.11269 71.41778,31.11269 -18.97056,0 -52.44722,-30.40559 -52.56854,30.40559 z"
       id="control-arrow"
       inkscape:connector-curvature="0"
       sodipodi:nodetypes="ccccccc" />
  </g>
  <g
     inkscape:groupmode="layer"
     id="labels"
     inkscape:label="labels"
     style="display:inline">
    <text
       sodipodi:linespacing="125%"
       id="alt-value"
       y="206.88351"
       x="265.15179"
       xml:space="preserve"
       style="line-height:125%"><tspan
         id="tspan4042"
         y="206.88351"
         x="265.15179"
         sodipodi:role="line">300</tspan></text>
    <text
       sodipodi:linespacing="125%"
       id="text4044"
       y="207.27313"
       x="238.91748"
       xml:space="preserve"><tspan
         id="tspan4046"
         y="207.27313"
         x="238.91748"
         sodipodi:role="line">ALT</tspan></text>
    <text
       xml:space="preserve"
       x="63.226997"
       y="205.76657"
       id="text3973"
       sodipodi:linespacing="125%"
       style="line-height:125%"><tspan
         sodipodi:role="line"
         x="63.226997"
         y="205.76657"
         id="tspan3975">300</tspan></text>
    <text
       xml:space="preserve"
       x="33.056587"
       y="206.15163"
       id="text3977"
       sodipodi:linespacing="125%"><tspan
         sodipodi:role="line"
         x="33.056587"
         y="206.15163"
         id="tspan3979">GND</tspan></text>
  </g>
  <g
     inkscape:groupmode="layer"
     id="frame"
     inkscape:label="frame"
     style="display:none">
    <rect
       style="fill:none;stroke:#aa0000;stroke-width:1.99829686;stroke-miterlimit:4;stroke-opacity:1;stroke-dasharray:none;display:inline"
       id="rect3915"
       width="323.49289"
       height="241.96362"
       x="-1"
       y="-1"
       rx="24.260643"
       ry="0" />
  </g>
</svg>
