<?xml version="1.0" encoding="UTF-8" standalone="no"?>
<!-- Created with Inkscape (http://www.inkscape.org/) -->

<svg
   xmlns:dc="http://purl.org/dc/elements/1.1/"
   xmlns:cc="http://creativecommons.org/ns#"
   xmlns:rdf="http://www.w3.org/1999/02/22-rdf-syntax-ns#"
   xmlns:svg="http://www.w3.org/2000/svg"
   xmlns="http://www.w3.org/2000/svg"
   xmlns:xlink="http://www.w3.org/1999/xlink"
   xmlns:sodipodi="http://sodipodi.sourceforge.net/DTD/sodipodi-0.dtd"
   xmlns:inkscape="http://www.inkscape.org/namespaces/inkscape"
   width="320"
   height="240"
   id="svg2"
   sodipodi:version="0.32"
   inkscape:version="0.48.0 r9654"
   version="1.0"
   sodipodi:docname="topokite.pfd.compass.svg"
   inkscape:output_extension="org.inkscape.output.svg.inkscape">
  <defs
     id="defs4">
    <linearGradient
       id="linearGradient3159">
      <stop
         style="stop-color:#0080ff;stop-opacity:1;"
         offset="0"
         id="stop3161" />
      <stop
         id="stop3169"
         offset="0.5"
         style="stop-color:#0080ff;stop-opacity:1;" />
      <stop
         style="stop-color:#804000;stop-opacity:1;"
         offset="0.5"
         id="stop3171" />
      <stop
         style="stop-color:#804000;stop-opacity:1;"
         offset="1"
         id="stop3163" />
    </linearGradient>
    <inkscape:perspective
       sodipodi:type="inkscape:persp3d"
       inkscape:vp_x="0 : 526.18109 : 1"
       inkscape:vp_y="0 : 1000 : 0"
       inkscape:vp_z="744.09448 : 526.18109 : 1"
       inkscape:persp3d-origin="372.04724 : 350.78739 : 1"
       id="perspective10" />
    <linearGradient
       inkscape:collect="always"
       xlink:href="#linearGradient3159"
       id="linearGradient4252"
       gradientUnits="userSpaceOnUse"
       gradientTransform="matrix(0.80495611,0,0,0.80495611,326.49544,390.81394)"
       x1="518.57141"
       y1="617.80591"
       x2="518.57141"
       y2="892.86505" />
    <linearGradient
       inkscape:collect="always"
       xlink:href="#linearGradient3159"
       id="linearGradient6584"
       gradientUnits="userSpaceOnUse"
       gradientTransform="matrix(0.80495611,0,0,1.0705035,-276.64704,-678.32595)"
       x1="518.57141"
       y1="617.80591"
       x2="518.57141"
       y2="892.86505" />
    <filter
       inkscape:collect="always"
       id="filter4062"
       color-interpolation-filters="sRGB">
      <feGaussianBlur
         inkscape:collect="always"
         stdDeviation="1.18"
         id="feGaussianBlur4064" />
    </filter>
  </defs>
  <sodipodi:namedview
     id="base"
     pagecolor="#ffffff"
     bordercolor="#666666"
     borderopacity="1.0"
     gridtolerance="10000"
     guidetolerance="10"
     objecttolerance="10"
     inkscape:pageopacity="0.0"
     inkscape:pageshadow="2"
     inkscape:zoom="2.0000001"
     inkscape:cx="136.23354"
     inkscape:cy="146.23743"
     inkscape:document-units="px"
     inkscape:current-layer="compass"
     showgrid="false"
     inkscape:window-width="1517"
     inkscape:window-height="1156"
     inkscape:window-x="251"
     inkscape:window-y="1"
     inkscape:window-maximized="0" />
  <metadata
     id="metadata7">
    <rdf:RDF>
      <cc:Work
         rdf:about="">
        <dc:format>image/svg+xml</dc:format>
        <dc:type
           rdf:resource="http://purl.org/dc/dcmitype/StillImage" />
        <dc:title />
      </cc:Work>
    </rdf:RDF>
  </metadata>
  <g
     inkscape:groupmode="layer"
     id="layer1"
     inkscape:label="shadow"
     style="display:none">
    <path
       sodipodi:open="true"
       sodipodi:end="6.2830573"
       sodipodi:start="0"
       d="m 259.75,301 a 118,118 0 1 1 0,-0.0151"
       sodipodi:ry="118"
       sodipodi:rx="118"
       sodipodi:cy="301"
       sodipodi:cx="141.75"
       id="compass-disk-shadow"
       style="opacity:0.66399997;fill:#000000;fill-opacity:1;fill-rule:evenodd;stroke:none;stroke-width:5;marker:none;visibility:visible;display:inline;overflow:visible;filter:url(#filter4062);enable-background:accumulate"
       sodipodi:type="arc"
       transform="translate(15.999999,-180.49999)" />
  </g>
  <g
     inkscape:groupmode="layer"
     id="compass"
     inkscape:label="compass"
     style="display:inline">
    <path
       sodipodi:type="arc"
       style="fill:#808080;fill-opacity:1;fill-rule:evenodd;stroke:none;stroke-width:5;marker:none;visibility:visible;display:inline;overflow:visible;enable-background:accumulate"
       id="compass-disk"
       sodipodi:cx="158"
       sodipodi:cy="120"
       sodipodi:rx="118"
       sodipodi:ry="118"
       d="m 276,120 a 118,118 0 1 1 0,-0.0151"
       sodipodi:start="0"
       sodipodi:end="6.2830573"
       sodipodi:open="true" />
    <path
       style="fill:#808080;fill-opacity:1;fill-rule:evenodd;stroke:#ffffff;stroke-width:1.20754719;stroke-linecap:square;stroke-linejoin:miter;stroke-miterlimit:4;stroke-opacity:1;stroke-dasharray:none;stroke-dashoffset:0;marker:none;visibility:visible;display:inline;overflow:visible;enable-background:accumulate"
       d="m 158.07713,29.619869 0,92.515901"
       id="path3720"
       sodipodi:nodetypes="cc"
       inkscape:connector-curvature="0" />
    <g
       id="compass-scale">
      <path
         inkscape:connector-curvature="0"
         d="m 127.68986,6.619869 1.04876,3.91405 m 8.93143,-6.1266 1.60391,9.09627 m -30.83607,0.0354 1.71249,3.67247 m 7.73187,-7.58445 3.1591,8.67956 m -30.361454,5.38947 2.32419,3.3193 m 6.29738,-8.81185 4.618304,7.99913 m -28.964324,10.57981 2.86528,2.86529 m 4.67154,-9.77151 5.93717,7.07565 m -26.68713,15.44866 3.3193,2.32421 m 2.90377,-10.43426 7.07564,5.93717 m -23.59906,19.84815 3.67246,1.71251 m 1.04776,-10.77998 7.99913,4.6183 m -19.79393,23.64454 3.91404,1.04877 m -0.84008,-10.79814 8.67957,3.1591 m -15.38739,26.722511 4.0367,0.35317 m -2.7024,-10.488221 9.09628,1.603921 m -10.51332,28.98852 4.0367,-0.35316 m -4.4826,-9.85961 9.2366,0 m -5.31978,30.37374 3.91404,-1.04876 m -6.1266,-8.93142 9.09628,-1.60392 m 0.0354,30.83605 3.67247,-1.7125 m -7.58445,-7.73186 8.67956,-3.1591 m 5.38947,30.36148 3.3193,-2.32419 m -8.81185,-6.29738 7.99913,-4.6183 m 10.5798,28.96428 2.86529,-2.86528 m -9.77151,-4.67154 7.07565,-5.93717 m 15.44867,26.68713 2.32421,-3.3193 m -10.43426,-2.90377 5.93717,-7.07564 m 19.848144,23.59909 1.71251,-3.67246 m -10.779984,-1.04776 4.618304,-7.99913 m 23.64454,19.79392 1.04877,-3.91404 m -10.79814,0.84008 3.1591,-8.67957 m 26.72251,15.38739 0.35317,-4.0367 m -10.48822,2.7024 1.60392,-9.09628 m 28.98853,10.51337 -0.35316,-4.0367 m -9.85961,4.4826 0,-9.2366 m 30.37374,5.31972 -1.04876,-3.91405 m -8.93142,6.1266 -1.60392,-9.09627 m 30.83603,-0.0354 -1.7125,-3.67247 m -7.73186,7.58445 -3.1591,-8.67956 m 30.36148,-5.38942 -2.32419,-3.3193 m -6.29738,8.81185 -4.6183,-7.99913 m 28.96438,-10.57981 -2.86528,-2.86529 m -4.67154,9.77151 -5.93717,-7.07565 m 26.68703,-15.44866 -3.3193,-2.32421 m -2.90377,10.43426 -7.07564,-5.93717 m 23.59909,-19.84815 -3.67246,-1.71251 m -1.04776,10.77998 -7.99913,-4.6183 m 19.79392,-23.64454 -3.91404,-1.04877 m 0.84008,10.79814 -8.67957,-3.1591 m 15.38739,-26.72251 -4.0367,-0.35317 m 2.7024,10.48822 -9.09628,-1.60392 m 10.51337,-28.98852 -4.0367,0.35316 m 4.4826,9.85961 -9.2366,0 m 5.31976,-30.373741 -3.91405,1.04876 m 6.1266,8.931421 -9.09627,1.60392 m -0.0354,-30.836071 -3.67247,1.7125 m 7.58445,7.73186 -8.67956,3.1591 m -5.38947,-30.36145 -3.3193,2.3242 m 8.81185,6.29737 -7.99913,4.6183 m -10.5798,-28.96433 -2.86529,2.86528 m 9.77151,4.67154 -7.07565,5.93717 m -15.44867,-26.68713 -2.32421,3.3193 m 10.43426,2.90377 -5.93717,7.07564 m -19.84815,-23.59905 -1.71251,3.67246 m 10.77998,1.04776 -4.6183,7.99913 m -23.64454,-19.79393 -1.04877,3.91404 m 10.79814,-0.84008 -3.1591,8.67957 m -26.72251,-15.3874 -0.35317,4.0367 m 10.48822,-2.7024 -1.60392,9.09628 m -28.98852,-10.51331 0.35316,4.0367 m 9.85961,-4.4826 0,9.2366"
         style="fill:#ffffff;fill-opacity:1;stroke:#ffffff;stroke-width:1.20799994;stroke-linecap:square;stroke-linejoin:miter;stroke-miterlimit:4;stroke-opacity:1;stroke-dasharray:none;stroke-dashoffset:0;marker:none;visibility:visible;display:inline;overflow:visible;enable-background:accumulate"
         id="compass-ticks" />
      <path
         id="compass-labels-major"
         style="font-size:14px;font-style:normal;font-variant:normal;font-weight:bold;font-stretch:normal;text-align:start;line-height:125%;letter-spacing:0px;word-spacing:0px;writing-mode:lr-tb;text-anchor:start;fill:#ffffff;fill-opacity:1;stroke:#ffffff;stroke-width:0.30000001;stroke-miterlimit:4;stroke-opacity:1;stroke-dasharray:none;font-family:Lightline Gothic BQ;-inkscape-font-specification:Lightline Gothic BQ Bold"
         d="m 109.47281,31.344069 c 0.27885,-0.16099 0.56472,-0.30987 0.85571,-0.47787 0.24247,-0.14 0.41222,-0.238 0.68459,-0.29826 0.91595,-0.2055 1.78131,0.31333 2.25731,1.13778 0.63699,1.10331 0.4084,2.4154 -0.67066,3.0384 -0.82445,0.476 -1.60855,0.2659 -1.91642,0.15266 -0.17912,-0.0582 -0.32699,-0.11836 -0.6456,-0.30622 l -0.30673,0.53273 c 0.0523,0.0345 0.49449,0.29648 0.84573,0.40084 1.02945,0.32709 1.95142,-0.092 2.26665,-0.27404 0.43647,-0.25199 1.59616,-1.09938 1.36014,-2.62818 -0.0841,-0.56572 -0.31001,-0.98495 -0.42201,-1.17894 -0.595,-1.03057 -1.40386,-1.33953 -1.86421,-1.3809 -0.34749,-0.0419 -0.88009,0.0716 -0.92346,0.0805 0.0517,-0.0784 0.32635,-0.41474 0.47409,-0.77486 0.26284,-0.63672 0.13433,-1.41932 -0.22267,-2.03766 -0.252,-0.43648 -1.01537,-1.45067 -2.39493,-1.23615 -0.17349,0.0355 -0.55173,0.10839 -0.95183,0.33939 -1.21244,0.7 -1.33054,1.86746 -1.40314,2.32969 l 0.54198,0.0427 c 0.1136,-0.61522 0.22447,-1.06721 0.65481,-1.52583 0.18836,-0.20574 0.42385,-0.35787 0.50872,-0.40687 1.00632,-0.58099 1.8493,-0.0169 2.1283,0.24232 0.0663,0.0587 0.27899,0.25923 0.43299,0.52597 0.189,0.32735 0.28801,0.72284 0.30352,1.0857 -0.001,0.50185 -0.17873,1.20246 -1.20929,1.79745 -0.21824,0.126 -0.43836,0.22076 -0.66359,0.33463 l 0.28,0.48497 m -5.80169,3.34961 c 0.27886,-0.161 0.56472,-0.30987 0.8557,-0.47787 0.24249,-0.14 0.41223,-0.238 0.68459,-0.29826 0.91596,-0.20551 1.78131,0.31333 2.25731,1.13778 0.637,1.10331 0.40842,2.4154 -0.67065,3.0384 -0.82446,0.476 -1.60856,0.2659 -1.91642,0.15266 -0.17912,-0.0582 -0.32699,-0.11836 -0.64561,-0.30622 l -0.30672,0.53273 c 0.0523,0.0345 0.49448,0.29648 0.84572,0.40084 1.02946,0.32708 1.95142,-0.092 2.26666,-0.27404 0.43647,-0.252 1.59615,-1.09938 1.36013,-2.62818 -0.0841,-0.56572 -0.31001,-0.98495 -0.42201,-1.17894 -0.595,-1.03057 -1.40385,-1.33954 -1.86421,-1.3809 -0.34748,-0.0419 -0.88008,0.0716 -0.92346,0.0805 0.0517,-0.0784 0.32635,-0.41474 0.47409,-0.77486 0.26285,-0.63673 0.13434,-1.41932 -0.22266,-2.03766 -0.252,-0.43648 -1.01537,-1.45067 -2.39494,-1.23615 -0.17349,0.0355 -0.55172,0.10839 -0.95182,0.33939 -1.21244,0.7 -1.33053,1.86745 -1.40315,2.32969 l 0.54198,0.0427 c 0.11361,-0.61523 0.22447,-1.06721 0.65482,-1.52583 0.18836,-0.20574 0.42385,-0.35787 0.50872,-0.40687 1.00632,-0.581 1.8493,-0.0169 2.12829,0.24232 0.0662,0.0587 0.279,0.25923 0.433,0.52597 0.189,0.32735 0.288,0.72284 0.30351,1.0857 -0.001,0.50185 -0.17871,1.20245 -1.20928,1.79745 -0.21824,0.126 -0.43836,0.22075 -0.66359,0.33463 l 0.28,0.48497 m -33.161453,34.64965 c 1.617652,0.95012 2.823236,1.24201 3.639455,1.22828 1.229449,-0.001 1.911556,-0.70693 2.142561,-1.10703 0.146999,-0.25461 0.431254,-0.91495 0.223035,-1.7303 -0.247347,-0.99959 -1.221274,-2.2247 -3.246046,-3.39369 -0.27886,-0.161 -2.119896,-1.25625 -3.707573,-1.13829 -1.139462,0.0696 -1.73108,0.7303 -1.948086,1.10614 -0.224,0.38798 -0.524631,1.21669 -0.07067,2.22241 0.693048,1.51558 2.724826,2.67246 2.967315,2.81246 m 0.403117,-0.44622 c -1.413424,-0.79988 -2.243371,-1.60237 -2.617716,-2.15797 -0.120715,-0.18289 -0.769213,-1.18772 -0.251198,-2.08493 0.154004,-0.26674 0.56787,-0.78758 1.387821,-0.86385 0.455239,-0.0605 0.980842,0.0651 1.110958,0.0918 1.176191,0.25876 2.109769,0.79777 2.461377,1.00077 0.897201,0.518 2.190251,1.44237 2.714216,2.32684 0.477337,0.82523 0.307323,1.5677 0.111325,1.90718 -0.203003,0.35161 -0.724616,0.89107 -1.690088,0.88328 -0.69635,0.002 -1.789062,-0.28928 -3.226725,-1.10315 m -3.033601,5.03035 c 0.161,-0.27886 0.334127,-0.55072 0.502123,-0.8417 0.140003,-0.24249 0.238002,-0.41223 0.443742,-0.60059 0.69049,-0.63596 1.69932,-0.61932 2.523778,-0.14331 1.103313,0.63699 1.561397,1.88758 0.938395,2.96665 -0.476003,0.82445 -1.26009,1.03456 -1.583333,1.09042 -0.184273,0.0391 -0.342362,0.061 -0.71223,0.0576 l 7.43e-4,0.61473 c 0.06246,0.004 0.576481,0.01 0.932835,-0.0757 1.055092,-0.23147 1.643979,-1.05539 1.825965,-1.37066 0.251994,-0.43647 0.832617,-1.75016 -0.136183,-2.95613 -0.355693,-0.44788 -0.760951,-0.69799 -0.954941,-0.80999 -1.03057,-0.595 -1.88554,-0.45815 -2.304895,-0.26379 -0.321885,0.13745 -0.72638,0.50205 -0.759498,0.53145 0.0056,-0.0937 0.07526,-0.52237 0.02314,-0.9081 -0.09073,-0.68285 -0.593318,-1.29634 -1.211659,-1.65333 -0.436479,-0.25201 -1.604672,-0.74864 -2.692146,0.12692 -0.132505,0.1175 -0.423622,0.36973 -0.654619,0.76983 -0.700003,1.21244 -0.218542,2.28253 -0.05031,2.71914 l 0.490719,-0.23401 c -0.209235,-0.5896 -0.339217,-1.03646 -0.195833,-1.64881 0.06025,-0.27237 0.18813,-0.52185 0.237129,-0.60672 0.580999,-1.00632 1.593091,-0.93929 1.964322,-0.8543 0.08668,0.0177 0.371228,0.085 0.637966,0.23901 0.327353,0.189 0.610839,0.48199 0.805692,0.78848 0.250064,0.43513 0.446463,1.13072 -0.148537,2.16129 -0.126002,0.21824 -0.269247,0.41035 -0.407371,0.62159 l 0.484972,0.28 m -16.041579,50.183041 -10e-7,0.686 9.800002,-2.198 2e-6,-0.588 -8.42801,-2.072 8.428009,-2.002 -4e-6,-0.58801 -9.786,-2.30999 -3e-6,0.658 c 0.560007,0.154 1.106008,0.308 1.666004,0.434 0.853995,0.19601 1.722,0.34999 2.590004,0.546 0.657992,0.154 1.287997,0.336 1.945994,0.49 0.756003,0.168 1.511997,0.308 2.282001,0.448 -0.602002,0.12601 -1.203999,0.238 -1.805998,0.378 -0.644003,0.154 -1.288001,0.336 -1.932,0.49 -0.672,0.154 -1.330006,0.294 -2.001997,0.448 -0.924003,0.196 -1.834011,0.434 -2.758001,0.672 l -4e-6,0.602 8.428001,2.072 -8.427999,1.834 m 19.981258,44.76231 0.436477,-0.252 -1.932,-3.34632 2.327876,-1.344 -0.308,-0.53347 -2.327876,1.344 -0.7,-1.21244 -0.460725,0.266 0.679,1.17607 -5.819691,3.36 0.448,0.77596 7.656939,-0.2338 m -7.407587,-0.31431 5.437339,-3.04226 1.631,2.82498 -7.068339,0.21728 m 6.95587,7.25992 c -0.54985,0.13963 -1.094575,0.26014 -1.683679,0.16378 -0.272865,-0.0526 -0.896969,-0.2096 -1.295969,-0.90069 -0.573995,-0.99418 -0.07529,-2.09041 0.882529,-2.64341 1.309422,-0.756 2.770892,-0.12868 4.071845,0.33264 0.704353,0.23998 1.067716,0.33734 1.422203,0.39133 0.842844,0.14385 1.717813,0.0913 2.604897,0.0318 l 0.472849,-0.273 -2.534502,-4.50188 -0.533472,0.308 2.261,3.91616 c -1.137073,0.0745 -1.776052,0.0878 -2.85914,-0.19217 -0.420736,-0.11274 -0.836348,-0.2446 -1.246835,-0.39558 -1.090585,-0.40495 -2.023071,-0.78805 -3.178259,-0.49291 -0.400607,0.11813 -0.686467,0.267 -0.831959,0.351 -0.982073,0.567 -1.271913,1.38099 -1.353405,1.79984 -0.105233,0.54573 0.01903,1.15296 0.293902,1.65705 0.238,0.41223 0.583248,0.73022 1.016606,0.94881 0.88585,0.44234 1.734187,0.2597 2.056923,0.2027 0.173492,-0.0355 0.33486,-0.064 0.501352,-0.11163 l -0.06689,-0.59185 m 29.794252,33.9896 c 0.31112,-0.0629 0.45712,-0.0917 0.62035,-0.0945 0.25187,-0.0162 0.50186,-0.001 0.75885,0.002 0.30736,-3.6e-4 0.62173,-0.0129 0.94821,-0.0184 l 0.0165,-0.58861 -1.82555,0.10996 4.305,-7.45647 1.32155,0.76299 0.28,-0.48498 -3.1402,-1.81299 -0.28001,0.48498 1.24881,0.721 -4.69,8.12332 0.43648,0.25199 m 9.07072,1.97149 c -0.40637,0.39586 -0.81786,0.77259 -1.37622,0.98369 -0.2626,0.0909 -0.8816,0.26696 -1.57269,-0.13204 -0.99419,-0.574 -1.11041,-1.7727 -0.55741,-2.73052 0.756,-1.30943 2.33532,-1.4969 3.69265,-1.74785 0.72996,-0.14434 1.09333,-0.24171 1.42732,-0.3722 0.80185,-0.29684 1.53332,-0.77984 2.27181,-1.27491 l 0.273,-0.47285 -4.44588,-2.6315 -0.30801,0.53347 3.91617,2.26101 c -0.94748,0.63305 -1.49421,0.96406 -2.57218,1.26313 -0.42073,0.11274 -0.84659,0.20636 -1.27758,0.28084 -1.14695,0.19458 -2.14605,0.32907 -2.9989,1.16226 -0.28788,0.3026 -0.461,0.57448 -0.545,0.71996 -0.567,0.98207 -0.41103,1.83193 -0.27216,2.2354 0.18173,0.52524 0.59293,0.98899 1.08305,1.2881 0.41223,0.238 0.8702,0.34075 1.35481,0.31339 0.98833,-0.0598 1.6317,-0.64218 1.8827,-0.85292 0.13249,-0.11748 0.258,-0.22285 0.37837,-0.34736 l -0.35387,-0.4791 m 44.25863,11.418 c 0.224,0.602 0.35,0.854 0.53197,1.12001 0.81201,1.10601 2.128,1.134 2.548,1.134 1.652,0 2.324,-0.994 2.576,-1.638 0.154,-0.42 0.168,-0.72799 0.168,-0.91 0,-0.40599 -0.126,-1.386 -1.06396,-2.00202 -0.71399,-0.476 -2.05799,-0.84 -2.114,-0.868 -0.714,-0.21 -1.358,-0.378 -1.834,-1.022 -0.13996,-0.19602 -0.34999,-0.532 -0.35,-1.092 0,-0.672 0.35,-1.33 0.868,-1.708 0.56001,-0.406 1.19,-0.434 1.428,-0.43401 0.364,1e-5 1.526,0.098 2.198,1.00801 0.29399,0.39201 0.53198,1.00801 0.574,1.106 l 0.644,-0.252 c -0.39201,-0.868 -0.71399,-1.526 -1.55399,-2.002 -0.7,-0.42 -1.35801,-0.42 -1.68001,-0.42 -0.644,0 -1.11999,0.098 -1.358,0.182 -0.44798,0.15403 -0.75599,0.40599 -0.89601,0.53198 -0.574,0.518 -0.88199,1.246 -0.882,2.03 1e-5,0.406 0.098,1.484 1.13403,2.11399 0.434,0.26599 1.162,0.532 2.254,0.882 0.49,0.15399 0.938,0.266 1.358,0.62999 0.56,0.49 0.63001,1.064 0.63,1.358 0,0.448 -0.168,0.78401 -0.252,0.93801 -0.532,0.95199 -1.498,1.02199 -1.84798,1.02202 -0.322,0 -1.358,-0.098 -1.97401,-0.92399 -0.15403,-0.20999 -0.26568,-0.44818 -0.47597,-0.98002 l -0.63001,0.196 m 51.52248,-14.80236 c -0.004,0.6651 -0.007,1.24858 -0.4122,1.80607 -0.14499,0.19687 -0.3301,0.35224 -0.54834,0.47824 -0.19399,0.112 -0.59085,0.29263 -1.17995,0.19627 -0.83072,-0.15085 -1.39759,-0.7127 -1.81058,-1.42803 -0.406,-0.70321 -0.75751,-1.64804 -0.54929,-2.46339 0.16535,-0.69359 0.68808,-1.07622 0.90631,-1.20222 0.53347,-0.308 1.22795,-0.33714 1.8003,-0.10179 0.174,0.0774 0.41424,0.21348 0.77486,0.47409 l 0.33985,-0.50336 c -0.51549,-0.33285 -0.95961,-0.62608 -1.56083,-0.71544 -0.29011,-0.0265 -0.94497,-0.0687 -1.6118,0.31628 -0.43648,0.252 -0.77359,0.59212 -0.99219,1.02548 -0.5407,1.02347 -0.29681,2.36991 0.26319,3.33986 0.518,0.89719 1.48048,1.78027 2.49682,1.88862 0.63759,0.0684 1.1557,-0.18227 1.36181,-0.30127 0.24249,-0.14 0.79646,-0.5245 1.03456,-1.2601 0.0582,-0.17912 0.0922,-0.34424 0.12623,-0.50936 l 1.63114,3.24521 -3.21296,1.855 0.294,0.50922 3.67368,-2.121 -2.33026,-4.65213 -0.49435,0.12375 m 6.82865,2.26515 c 0.10111,-0.30087 0.1491,-0.44174 0.22835,-0.58448 0.11186,-0.22625 0.24985,-0.43524 0.38084,-0.65636 0.15336,-0.26637 0.29973,-0.54486 0.45821,-0.83035 l -0.50148,-0.3086 -0.81756,1.63595 -4.305,-7.45648 1.32156,-0.763 -0.28,-0.48497 -3.14021,1.813 0.28,0.48497 1.24881,-0.721 4.69,8.12332 0.43648,-0.252 m 32.34526,-37.29056 c 0.39585,0.40637 0.77257,0.81786 0.98368,1.37622 0.0909,0.2626 0.26697,0.88159 -0.13204,1.57267 -0.574,0.9942 -1.7727,1.11043 -2.73052,0.55743 -1.30943,-0.756 -1.49689,-2.33532 -1.74785,-3.69265 -0.14435,-0.72997 -0.24172,-1.09334 -0.3722,-1.42732 -0.29685,-0.80186 -0.77984,-1.53332 -1.27491,-2.27181 l -0.47285,-0.273 -2.6315,4.44588 0.53347,0.30801 2.261,-3.91617 c 0.63306,0.94749 0.96407,1.49421 1.26314,2.57218 0.11273,0.42073 0.20634,0.84659 0.28083,1.27758 0.19459,1.14696 0.32906,2.14604 1.16226,2.99891 0.30261,0.28787 0.57447,0.46099 0.71997,0.54499 0.98207,0.567 1.83191,0.41103 2.23539,0.27216 0.52524,-0.18172 0.989,-0.59293 1.2881,-1.08305 0.238,-0.41222 0.34076,-0.8702 0.3134,-1.35481 -0.0598,-0.98834 -0.64218,-1.6317 -0.85293,-1.8827 -0.11749,-0.13249 -0.22285,-0.25799 -0.34735,-0.37836 l -0.4791,0.35386 m 4.72772,-2.53266 c -0.0629,-0.31111 -0.0917,-0.45711 -0.0945,-0.62035 -0.0162,-0.25187 -0.001,-0.50186 0.002,-0.75885 -3.7e-4,-0.30737 -0.0129,-0.62173 -0.0183,-0.94821 l -0.5886,-0.0165 0.10995,1.82555 -7.45648,-4.30501 0.763,-1.32155 -0.48497,-0.27999 -1.813,3.1402 0.48497,0.28 0.721,-1.24881 8.12332,4.69 0.252,-0.43647 m 7.77904,-49.14477 0.588,0 0,-3.542 3.822,0 0,5.054 0.616,0 0,-5.74 -9.8,0 -1e-5,5.894 0.58801,0 0,-5.23599 4.186,-1e-5 0,3.57 m -7.93266,-51.312031 c 0.14247,-0.76123 0.13772,-1.04946 0.0196,-1.45007 -0.0724,-0.26536 -0.16338,-0.42298 -0.22638,-0.5321 -0.35,-0.60622 -1.19449,-1.50891 -2.96354,-1.409 -0.41836,0.0314 -0.83996,0.11314 -1.22845,0.22427 -1.07169,0.32776 -2.23751,0.96851 -2.49212,1.11551 -0.23036,0.133 -1.84478,1.03276 -2.40173,2.30809 -0.34397,0.74823 -0.3227,1.62507 0.0973,2.35253 0.189,0.32736 0.69575,1.03707 1.74009,1.19391 1.15208,0.17547 2.14115,-0.37941 2.48064,-0.57541 0.36372,-0.21 1.53279,-0.90112 1.5925,-2.30969 0.0422,-0.65485 -0.21351,-1.15383 -0.32551,-1.34782 -0.525,-0.90932 -1.40473,-1.14504 -1.75921,-1.19903 -0.31624,-0.0437 -0.64785,-0.0301 -0.96034,-0.0113 1.08094,-0.59175 1.73241,-0.91938 2.96273,-1.1124 1.26157,-0.1949 1.86893,0.10107 2.31167,0.47592 0.265,0.23499 0.40312,0.44623 0.48012,0.5796 0.308,0.53347 0.21626,0.99058 0.10591,1.55543 l 0.56673,0.14161 m -7.36586,-1.08204 c 0.15437,-0.0406 0.49948,-0.14288 0.90571,-0.16726 0.56948,-0.0216 1.31858,0.12784 1.77344,0.49569 0.17775,0.13986 0.33312,0.32497 0.44512,0.51896 0.259,0.44861 0.27126,0.86184 0.26527,1.07546 -0.0212,0.69122 -0.34896,1.18758 -0.89406,1.61545 -0.22148,0.17637 -0.46397,0.31638 -0.54884,0.36537 -1.11544,0.644 -2.59626,0.73916 -3.30326,-0.4854 -0.63,-1.09119 0.0203,-2.06479 0.24644,-2.37316 0.23311,-0.29624 0.51147,-0.57012 1.11018,-1.04511 m -35.34068,-36.76216 c 0.27885,0.16099 0.55072,0.33412 0.8417,0.50212 0.24248,0.13999 0.41223,0.238 0.6006,0.44375 0.63595,0.69047 0.61931,1.69932 0.14331,2.52378 -0.637,1.1033 -1.8876,1.56138 -2.96666,0.93838 -0.82445,-0.47599 -1.03456,-1.26011 -1.09042,-1.58333 -0.0391,-0.18424 -0.061,-0.34238 -0.0576,-0.71222 l -0.61473,7.3e-4 c -0.004,0.0626 -0.01,0.57648 0.0757,0.93285 0.23147,1.05507 1.05547,1.64393 1.37066,1.82595 0.43647,0.252 1.75017,0.83263 2.95614,-0.13617 0.44783,-0.35578 0.69799,-0.76097 0.80998,-0.95495 0.595,-1.03057 0.45815,-1.88555 0.2638,-2.3049 -0.13749,-0.32187 -0.5021,-0.72636 -0.53146,-0.75948 0.0937,0.006 0.52235,0.0752 0.90808,0.0231 0.68285,-0.0907 1.29635,-0.59332 1.65334,-1.21166 0.252,-0.43648 0.74863,-1.60468 -0.12693,-2.69214 -0.11749,-0.1325 -0.36974,-0.42363 -0.76983,-0.65462 -1.21244,-0.70001 -2.28254,-0.21855 -2.71914,-0.0503 l 0.23397,0.49074 c 0.5896,-0.20923 1.03647,-0.33922 1.64882,-0.19584 0.27235,0.0603 0.52184,0.18813 0.60671,0.23713 1.00632,0.581 0.93931,1.59308 0.8543,1.96432 -0.0177,0.0868 -0.085,0.37123 -0.239,0.63797 -0.189,0.32735 -0.48201,0.61084 -0.78849,0.8057 -0.43511,0.25006 -1.13073,0.44645 -2.16129,-0.14854 -0.21824,-0.12601 -0.41036,-0.26926 -0.62159,-0.40738 l -0.28,0.48498 m -52.26594,-18.16289 -10e-6,9.78599 0.70001,0 0,-9.21199 4.82999,9.23999 0.70001,0 0,-9.78599 -0.65801,0 0,8.53999 -4.47999,-8.56799 -1.092,0"
         inkscape:connector-curvature="0" />
      <path
         style="font-size:10px;font-style:normal;font-variant:normal;font-weight:500;font-stretch:normal;text-align:start;line-height:125%;letter-spacing:0px;word-spacing:0px;writing-mode:lr-tb;text-anchor:start;fill:#ffffff;fill-opacity:1;stroke:#ffffff;stroke-width:0.2;stroke-miterlimit:4;stroke-opacity:1;font-family:Lightline Gothic BQ;-inkscape-font-specification:Lightline Gothic BQ Medium"
         inkscape:connector-curvature="0"
         d="m 141.52464,19.113309 c 0.16515,-0.44545 0.30945,-0.83645 0.71788,-1.11155 0.14542,-0.0967 0.30763,-0.15579 0.48489,-0.18704 0.15757,-0.0278 0.46807,-0.0521 0.83994,0.15652 0.52074,0.3042 0.76396,0.81979 0.86642,1.40083 0.10071,0.57119 0.10583,1.29124 -0.23312,1.78764 -0.28044,0.42516 -0.72477,0.55428 -0.90203,0.58553 -0.43332,0.0764 -0.90657,-0.0737 -1.23325,-0.37149 -0.0979,-0.0944 -0.22588,-0.24449 -0.40427,-0.50751 l -0.35108,0.25484 c 0.26469,0.34934 0.49114,0.65466 0.87286,0.86151 0.18826,0.0887 0.61748,0.27699 1.15913,0.18148 0.35453,-0.0625 0.66389,-0.20845 0.91649,-0.44592 0.61296,-0.55487 0.77819,-1.5182 0.63927,-2.30604 -0.1285,-0.72876 -0.55879,-1.55662 -1.2145,-1.87763 -0.41126,-0.20165 -0.82024,-0.16 -0.98766,-0.13048 -0.19696,0.0347 -0.66272,0.15747 -1.00225,0.59305 -0.0828,0.106 -0.146,0.20852 -0.20916,0.31104 l -0.30203,-2.57669 2.60974,-0.46017 -0.0729,-0.41362 -2.98397,0.52615 0.42758,3.69184 0.36205,0.0377 m -4.41814,0.48456 c 0.22651,-0.0399 0.45475,-0.07 0.6911,-0.11171 0.19697,-0.0347 0.33484,-0.059 0.53237,-0.0329 0.66501,0.0858 1.11909,0.64548 1.23717,1.31515 0.15802,0.89617 -0.31595,1.72101 -1.19243,1.87555 -0.66967,0.11808 -1.14463,-0.21449 -1.32361,-0.36571 -0.106,-0.0829 -0.19056,-0.15933 -0.35853,-0.36326 l -0.33602,0.28264 c 0.0266,0.0359 0.25947,0.3198 0.46973,0.47566 0.61108,0.47104 1.3323,0.41495 1.58835,0.3698 0.35453,-0.0625 1.33993,-0.34796 1.555,-1.43177 0.0817,-0.40027 0.0325,-0.73685 0.005,-0.89441 -0.1476,-0.83709 -0.61502,-1.24208 -0.91391,-1.3823 -0.22301,-0.113 -0.60823,-0.16692 -0.63951,-0.17156 0.0539,-0.04 0.32037,-0.19865 0.50751,-0.40427 0.33198,-0.36317 0.43691,-0.91984 0.34835,-1.4221 -0.0625,-0.35453 -0.32713,-1.22175 -1.30551,-1.41479 -0.12513,-0.0186 -0.3968,-0.062 -0.72179,-0.005 -0.98481,0.17365 -1.34928,0.92841 -1.51094,1.22093 l 0.35334,0.16109 c 0.22655,-0.3852 0.41138,-0.66149 0.81227,-0.86418 0.1767,-0.0921 0.37192,-0.13666 0.44086,-0.14882 0.81739,-0.14413 1.2454,0.44043 1.36933,0.68259 0.0301,0.0556 0.12394,0.24216 0.16214,0.45882 0.0469,0.26589 0.0167,0.55553 -0.0615,0.80288 -0.12343,0.33654 -0.41371,0.76343 -1.2508,0.91104 -0.17726,0.0312 -0.34815,0.0411 -0.52716,0.0625 l 0.0695,0.39393 m -13.54528,4.94795 0.12312,0.33829 2.59355,-0.94397 0.65668,1.8042 0.41346,-0.15048 -0.65668,-1.80422 0.9397,-0.34201 -0.12997,-0.35709 -0.91151,0.33177 -1.64169,-4.51053 -0.6014,0.2189 -0.78527,5.41514 m 1.1399,-5.17176 1.4656,4.20215 -2.18948,0.79691 0.72388,-4.99906 m -4.96712,5.25582 c 0.21614,-0.0786 0.43569,-0.1479 0.66121,-0.23002 0.18794,-0.0684 0.3195,-0.11625 0.51856,-0.12485 0.6698,-0.031 1.21417,0.44134 1.44675,1.08033 0.31124,0.85513 -0.0123,1.74973 -0.84863,2.05413 -0.63899,0.23257 -1.16449,-0.0125 -1.36701,-0.13031 -0.11878,-0.0632 -0.21533,-0.12382 -0.41616,-0.29548 l -0.28184,0.33669 c 0.0325,0.0307 0.31107,0.26989 0.5452,0.38687 0.68359,0.35777 1.38411,0.17729 1.62843,0.0884 0.33829,-0.12312 1.25915,-0.57535 1.28275,-1.68004 0.011,-0.4084 -0.0959,-0.73131 -0.15059,-0.88167 -0.29071,-0.79873 -0.82137,-1.1164 -1.14007,-1.2026 -0.23924,-0.0726 -0.62797,-0.0588 -0.65958,-0.0579 0.0461,-0.0487 0.28101,-0.25127 0.4296,-0.48626 0.26387,-0.4153 0.27054,-0.98174 0.0961,-1.46099 -0.12312,-0.33828 -0.53431,-1.14638 -1.53135,-1.16659 -0.12645,0.003 -0.40154,0.008 -0.71169,0.12041 -0.93969,0.34202 -1.16757,1.14861 -1.27598,1.46475 l 0.37595,0.0973 c 0.15622,-0.41868 0.29027,-0.72287 0.64987,-0.9921 0.15802,-0.12138 0.34254,-0.19916 0.40832,-0.2231 0.77994,-0.28388 1.30296,0.21747 1.46706,0.43443 0.0393,0.0495 0.1641,0.21696 0.23934,0.42369 0.0923,0.25372 0.11294,0.5442 0.0788,0.80136 -0.0631,0.35288 -0.27486,0.82369 -1.0736,1.1144 -0.16914,0.0616 -0.33573,0.10094 -0.5083,0.15309 l 0.13681,0.37589 m -27.695399,14.38999 c -0.166425,-0.36946 -0.318756,-0.7377 -0.324045,-1.16405 0.0032,-0.19846 0.03618,-0.65695 0.472827,-1.02334 0.628157,-0.52708 1.461128,-0.31226 1.968933,0.29293 0.69421,0.82732 0.434208,1.93317 0.271057,2.90553 -0.08144,0.52524 -0.104862,0.79291 -0.09887,1.04897 0.0034,0.61072 0.148817,1.21969 0.300712,1.83632 l 0.250687,0.29876 2.852415,-2.34125 -0.282826,-0.33706 -2.474323,2.07621 c -0.193459,-0.79062 -0.28205,-1.23845 -0.21945,-2.03506 0.02712,-0.30994 0.06832,-0.61866 0.123616,-0.92613 0.14959,-0.81739 0.303408,-1.52084 -0.04749,-2.29684 -0.132788,-0.26715 -0.272966,-0.44976 -0.3501,-0.54168 -0.520657,-0.6205 -1.129187,-0.72343 -1.433934,-0.7288 -0.396943,-0.006 -0.808665,0.1564 -1.129172,0.41228 -0.260455,0.21854 -0.441311,0.50084 -0.541334,0.8328 -0.201279,0.678 0.03242,1.25209 0.112548,1.47205 0.04649,0.11763 0.08656,0.22761 0.140711,0.33881 l 0.408028,-0.12048 m -2.291498,3.92007 c 0.17619,-0.14784 0.358808,-0.28802 0.542659,-0.44229 0.153208,-0.12856 0.260455,-0.21855 0.444571,-0.29472 0.618825,-0.25818 1.291897,-5.4e-4 1.728993,0.52037 0.584936,0.6971 0.586884,1.64841 -0.0949,2.22049 -0.52091,0.4371 -1.098532,0.38656 -1.329141,0.34509 -0.133222,-0.0188 -0.244689,-0.0427 -0.492123,-0.13533 l -0.149684,0.41279 c 0.04102,0.0178 0.384613,0.14722 0.64463,0.17706 0.764733,0.10241 1.361286,-0.30674 1.560451,-0.47391 0.275776,-0.2314 0.986436,-0.9713 0.630781,-2.01745 -0.129356,-0.38751 -0.34024,-0.6544 -0.443085,-0.77696 -0.54637,-0.65114 -1.153666,-0.76816 -1.482626,-0.74015 -0.249627,0.0137 -0.610194,0.15958 -0.639611,0.17117 0.02667,-0.0616 0.178126,-0.33222 0.237382,-0.60387 0.105922,-0.48049 -0.08154,-1.01506 -0.409369,-1.40574 -0.231403,-0.27578 -0.894177,-0.89451 -1.838002,-0.57249 -0.11763,0.0465 -0.374662,0.14466 -0.627454,0.3568 -0.766044,0.64278 -0.704311,1.47865 -0.698055,1.81281 l 0.386543,-0.0372 c 0.0036,-0.44687 0.02553,-0.77856 0.271362,-1.15455 0.106982,-0.16809 0.253763,-0.3043 0.307386,-0.3493 0.635817,-0.53351 1.29876,-0.24129 1.527171,-0.0935 0.05389,0.0331 0.228409,0.14775 0.369821,0.31628 0.173553,0.20683 0.292251,0.47275 0.348165,0.72607 0.06138,0.35318 0.02343,0.86802 -0.627705,1.41439 -0.137888,0.1157 -0.280971,0.20965 -0.425287,0.31769 l 0.257116,0.30642 m -11.387646,6.18574 c 0.0056,0.22664 0.0078,0.33293 -0.01048,0.4481 -0.01982,0.17918 -0.06138,0.35317 -0.09528,0.53359 -0.03786,0.21625 -0.06807,0.43894 -0.104702,0.66928 l 0.411994,0.0846 0.149087,-1.2978 4.711172,3.95315 -0.700638,0.83499 0.306418,0.25711 1.66482,-1.98405 -0.306418,-0.25712 -0.662072,0.78902 -5.132496,-4.30666 -0.231404,0.27577 m -1.012022,6.72889 c 0.147842,-0.17619 0.303344,-0.34595 0.457612,-0.5298 0.128559,-0.1532 0.218549,-0.26045 0.386641,-0.36743 0.564592,-0.36172 1.272177,-0.22487 1.793087,0.21222 0.697101,0.58494 0.864212,1.52146 0.292126,2.20324 -0.437095,0.52091 -1.014717,0.57144 -1.249022,0.57065 -0.134447,0.005 -0.248395,4.4e-4 -0.508148,-0.0478 l -0.07573,0.43251 c 0.0435,0.0104 0.404334,0.0782 0.665584,0.0624 0.770894,-0.032 1.287326,-0.53851 1.454449,-0.73769 0.231404,-0.27577 0.802783,-1.12784 0.270872,-2.09633 -0.194679,-0.35917 -0.448707,-0.58538 -0.571274,-0.68822 -0.651136,-0.54637 -1.269526,-0.55615 -1.588626,-0.47145 -0.243473,0.0567 -0.573222,0.26309 -0.600165,0.27965 0.01558,-0.0653 0.11773,-0.3581 0.128914,-0.63592 0.02087,-0.49159 -0.256574,-0.98547 -0.647254,-1.31329 -0.275777,-0.23141 -1.035924,-0.72565 -1.909491,-0.24463 -0.107775,0.0662 -0.343846,0.20753 -0.555965,0.46033 -0.642788,0.76604 -0.436844,1.57849 -0.372658,1.90649 l 0.374216,-0.10376 c -0.07405,-0.44069 -0.110054,-0.77116 0.06676,-1.18412 0.07617,-0.18411 0.197064,-0.34375 0.242058,-0.39738 0.533515,-0.63581 1.237136,-0.46313 1.487735,-0.35727 0.05882,0.0232 0.250593,0.10583 0.419122,0.24725 0.206834,0.17356 0.369903,0.41482 0.468959,0.65459 0.121775,0.33714 0.173803,0.85075 -0.372566,1.50189 -0.115702,0.13789 -0.240295,0.25527 -0.363658,0.38672 l 0.306417,0.25711 m -12.998975,29.09714 c 0.485358,-0.28094 0.640891,-0.41588 0.811832,-0.65163 0.08889,-0.12727 0.155567,-0.252 0.210291,-0.40234 0.133388,-0.36648 0.250641,-1.06873 -0.318974,-1.87199 -0.475686,-0.65203 -1.169296,-1.08539 -1.874894,-1.42734 -0.277624,-0.14361 -0.580883,-0.27527 -0.881584,-0.38472 -0.601403,-0.21889 -1.336955,-0.39083 -1.962368,-0.30985 -0.320402,0.0323 -1.249064,0.21618 -1.601416,1.18366 -0.04788,0.13156 -0.134251,0.3981 -0.11556,0.75608 0.01357,0.31354 0.09636,0.52461 0.150178,0.63995 0.355184,0.77843 1.278639,1.13582 1.510142,1.23073 1.005471,0.36596 1.738602,0.0475 2.09154,-0.24972 0.323883,-0.27586 0.455545,-0.57911 0.510267,-0.72947 0.246254,-0.67658 -0.0039,-1.24651 -0.124302,-1.47124 -0.135777,-0.24097 -0.424451,-0.55887 -0.455198,-0.59135 0.762844,0.33086 1.600863,0.68909 2.197879,1.30013 0.157156,0.15297 0.562849,0.58796 0.576321,1.25265 0.0059,0.24692 -0.05738,0.47929 -0.08132,0.54506 -0.153909,0.42287 -0.43675,0.58597 -0.844343,0.79943 l 0.201517,0.38196 m -2.787295,-4.50499 c 0.233196,0.14872 0.351071,0.23419 0.433916,0.32819 0.298941,0.28972 0.594391,0.82293 0.611354,1.24413 0.0093,0.23751 -0.05223,0.40666 -0.08644,0.50063 -0.136808,0.37588 -0.392321,0.58085 -0.51196,0.67564 -0.525537,0.36209 -1.111593,0.27653 -1.697629,0.0738 -0.24432,-0.0889 -0.421998,-0.18552 -0.49973,-0.2351 -0.407454,-0.25472 -0.746503,-0.69737 -0.822406,-1.16132 -0.04009,-0.26998 0.03945,-0.51773 0.07366,-0.61169 0.04788,-0.13156 0.206042,-0.47838 0.557252,-0.71237 0.624653,-0.40052 1.391809,-0.22775 1.590022,-0.18746 0.119607,0.0223 0.235783,0.0539 0.35197,0.0856 m -3.035139,7.16944 c -0.328858,-0.23675 -0.644898,-0.47948 -0.862652,-0.84606 -0.09649,-0.17346 -0.297143,-0.58703 -0.102188,-1.12265 0.280456,-0.77055 1.109249,-1.00099 1.851606,-0.7308 1.014869,0.36939 1.342622,1.45709 1.687509,2.38074 0.192084,0.49558 0.305643,0.73912 0.438858,0.95787 0.308267,0.52723 0.73873,0.98187 1.17859,1.43994 l 0.36648,0.13339 1.299641,-3.45379 -0.413464,-0.15049 -1.104724,3.03521 c -0.562849,-0.58796 -0.863482,-0.9315 -1.207576,-1.65268 -0.131493,-0.28198 -0.250158,-0.56993 -0.356013,-0.86386 -0.279144,-0.78268 -0.497656,-1.46879 -1.18954,-1.96538 -0.248569,-0.16496 -0.461278,-0.25302 -0.574041,-0.29407 -0.761152,-0.27703 -1.339616,-0.0619 -1.606218,0.0858 -0.346928,0.19298 -0.622131,0.53978 -0.771756,0.92163 -0.116288,0.31949 -0.131766,0.65439 -0.05241,0.99189 0.164687,0.6878 0.654123,1.06814 0.833493,1.21856 0.09907,0.0786 0.188767,0.15384 0.291269,0.22307 l 0.293137,-0.30834 m -1.730208,12.05635 c 0.138539,0.653991 0.273591,1.155061 0.861615,1.563381 0.316898,0.21833 0.628563,0.2936 0.766437,0.31791 0.630277,0.11114 1.094249,-0.10155 1.287681,-0.21994 0.681181,-0.40791 0.877452,-1.1755 0.919128,-1.411841 0.06946,-0.39393 0.04622,-0.89559 -0.07838,-1.28312 -0.196454,-0.61342 -0.705113,-0.89605 -0.911351,-0.99333 -0.140777,-0.0654 -0.334264,-0.11987 -0.491835,-0.14766 -0.472696,-0.0833 -0.974935,7.2e-4 -1.353726,0.24885 -0.322622,0.21728 -0.573995,0.54866 -0.815508,0.88179 -0.185437,-0.56073 -0.330913,-1.0027 -0.852314,-1.32818 -0.284442,-0.172 -0.538766,-0.22701 -0.656942,-0.24784 -0.403763,-0.0712 -0.702093,0.008 -0.852113,0.0529 -0.903635,0.28745 -1.102223,1.1257 -1.154317,1.42114 -0.05209,0.29545 -0.173028,1.26924 0.618933,1.845511 0.307051,0.21662 0.636677,0.3052 0.774549,0.32951 0.364379,0.0642 0.651115,-0.007 0.779712,-0.0453 0.57695,-0.16225 0.831782,-0.51336 1.158432,-0.983791 m 0.250769,-0.44319 c 0.106567,-0.14367 0.203288,-0.28909 0.309856,-0.43277 0.123363,-0.18132 0.223555,-0.34644 0.394422,-0.50924 0.339995,-0.31576 0.846277,-0.48035 1.318975,-0.39699 0.344684,0.0608 1.060726,0.31904 1.221307,1.25109 0.04344,0.27168 0.01513,0.49006 -0.004,0.5984 -0.07467,0.423461 -0.303436,0.799441 -0.394946,0.915311 -0.426263,0.57471 -1.149227,0.52847 -1.365883,0.49028 -0.374218,-0.066 -0.645359,-0.25596 -0.743269,-0.33415 -0.52546,-0.41759 -0.625759,-0.942991 -0.736491,-1.581931 m -0.334265,-0.11986 c -0.273936,0.45942 -0.542664,0.88928 -1.079052,1.109481 -0.22939,0.0915 -0.458192,0.12232 -0.704392,0.0789 -0.817382,-0.14413 -1.250803,-0.911041 -1.113621,-1.689041 0.0903,-0.5121 0.396691,-0.92517 0.881521,-1.08338 0.225917,-0.0718 0.48427,-0.0974 0.720626,-0.0557 0.31514,0.0556 0.54224,0.20731 0.632037,0.27391 0.448993,0.33303 0.545214,0.76631 0.592742,0.95747 0.02664,0.13671 0.04344,0.27169 0.07018,0.40838 m -2.273744,6.042121 c -0.364963,-0.17605 -0.718364,-0.36022 -0.996465,-0.68342 -0.125145,-0.15407 -0.394565,-0.52652 -0.295587,-1.08786 0.142393,-0.80754 0.918592,-1.17839 1.69658,-1.04121 1.063592,0.18754 1.575251,1.2018 2.075283,2.05154 0.275222,0.4547 0.429344,0.67481 0.59852,0.8671 0.395138,0.46569 0.898019,0.83868 1.410727,1.21341 l 0.384075,0.0677 0.680156,-3.62699 -0.433316,-0.0764 -0.560885,3.18093 c -0.656386,-0.4813 -1.012116,-0.76741 -1.476214,-1.41788 -0.178455,-0.25487 -0.345326,-0.51783 -0.500611,-0.78892 -0.410803,-0.72231 -0.74515,-1.36006 -1.512752,-1.72895 -0.273428,-0.11929 -0.498209,-0.16908 -0.616385,-0.18992 -0.797684,-0.14065 -1.330011,0.17166 -1.566916,0.36341 -0.308144,0.25031 -0.518949,0.63962 -0.599993,1.04165 -0.05904,0.33483 -0.01613,0.66734 0.120626,0.98592 0.281623,0.64876 0.829666,0.93832 1.032431,1.05531 0.111224,0.0602 0.212614,0.11873 0.325583,0.16911 l 0.235139,-0.35455 m -1.373623,28.47727 c -0.281597,0.47613 -0.348822,0.67076 -0.367401,0.96851 -0.01625,0.1958 0.0063,0.32382 0.02196,0.41245 0.08682,0.49241 0.433124,1.30461 1.644936,1.66973 0.288472,0.0811 0.591432,0.12926 0.879333,0.14958 0.799406,0.0418 1.738447,-0.10345 1.945256,-0.13992 0.187114,-0.033 1.490534,-0.24251 2.175927,-0.96247 0.413667,-0.41818 0.613603,-1.01192 0.509414,-1.60281 -0.04689,-0.26589 -0.213635,-0.86606 -0.876287,-1.22646 -0.730421,-0.39923 -1.529852,-0.26842 -1.805599,-0.2198 -0.295441,0.0521 -1.248969,0.23038 -1.633164,1.16124 -0.188326,0.42922 -0.138564,0.82661 -0.110781,0.98418 0.130237,0.73861 0.663126,1.11174 0.887872,1.23458 0.201576,0.10662 0.427487,0.17848 0.641813,0.24223 -0.870103,0.13312 -1.387414,0.19387 -2.260371,0.0229 -0.89439,-0.17739 -1.229748,-0.52442 -1.435344,-0.88419 -0.12046,-0.22246 -0.161565,-0.39799 -0.180666,-0.50632 -0.0764,-0.43331 0.09684,-0.71772 0.308908,-1.06989 l -0.345801,-0.2335 m 4.679688,2.52575 c -0.113539,-0.0104 -0.37016,-0.0261 -0.648784,-0.109 -0.387523,-0.1246 -0.853808,-0.40793 -1.069252,-0.76596 -0.08514,-0.1373 -0.1442,-0.29951 -0.171984,-0.45708 -0.06425,-0.36438 0.02847,-0.64474 0.08468,-0.78666 0.183118,-0.45876 0.524353,-0.71186 0.994752,-0.86589 0.191752,-0.0643 0.388714,-0.099 0.45765,-0.11116 0.906022,-0.15975 1.923205,0.13814 2.09859,1.1328 0.156283,0.88632 -0.518073,1.38094 -0.745173,1.53268 -0.228836,0.14189 -0.48258,0.25771 -1.000484,0.43027 m -1.840797,5.22418 c -0.403176,-0.0406 -0.798241,-0.0928 -1.170113,-0.30139 -0.170295,-0.10198 -0.550849,-0.35982 -0.649829,-0.92116 -0.142391,-0.80754 0.460151,-1.4215 1.238148,-1.55868 1.063592,-0.18754 1.891283,0.59056 2.651795,1.21803 0.414142,0.33314 0.634248,0.48726 0.858994,0.6101 0.530582,0.30246 1.130697,0.48097 1.740658,0.65773 l 0.384075,-0.0677 -0.60137,-3.64089 -0.433315,0.0764 0.560884,3.18093 c -0.781422,-0.22777 -1.213549,-0.37497 -1.872133,-0.82748 -0.254859,-0.17846 -0.501609,-0.3685 -0.740246,-0.57012 -0.633082,-0.53824 -1.165378,-1.02318 -2.012859,-1.10729 -0.297749,-0.0186 -0.525992,0.0115 -0.644169,0.0324 -0.797693,0.14065 -1.191094,0.61619 -1.348117,0.87743 -0.203954,0.34059 -0.268896,0.77852 -0.207549,1.18402 0.05904,0.33484 0.213089,0.63261 0.45056,0.88521 0.486528,0.51332 1.100559,0.59798 1.331107,0.63856 0.125123,0.0186 0.240398,0.0388 0.363784,0.0476 l 0.0997,-0.41359 m 5.205765,11.45386 c -0.46736,-0.0853 -0.877474,-0.15952 -1.219321,-0.51397 -0.120502,-0.12642 -0.206836,-0.27589 -0.2684,-0.44504 -0.05472,-0.15036 -0.132559,-0.45192 0.0083,-0.85436 0.209151,-0.56565 0.674679,-0.89471 1.229098,-1.0965 0.545021,-0.19838 1.253245,-0.32845 1.800962,-0.0808 0.467393,0.20234 0.671706,0.6175 0.733271,0.78665 0.150483,0.41346 0.08484,0.90559 -0.151699,1.27901 -0.076,0.11281 -0.20155,0.26491 -0.429599,0.48626 l 0.31193,0.30149 c 0.298076,-0.32132 0.559427,-0.59736 0.696858,-1.0092 0.05462,-0.20079 0.165552,-0.6562 -0.02256,-1.17302 -0.123124,-0.33829 -0.320567,-0.61761 -0.598295,-0.82514 -0.652878,-0.50729 -1.630262,-0.50273 -2.382016,-0.22912 -0.695374,0.25309 -1.435933,0.82061 -1.63821,1.52209 -0.12717,0.44004 -0.01513,0.83557 0.04301,0.99531 0.06841,0.18795 0.270163,0.62532 0.758077,0.88405 0.118783,0.0632 0.230709,0.10758 0.342642,0.15196 l -2.485107,0.74489 -0.906353,-2.49019 -0.394677,0.14362 1.036322,2.84727 3.561504,-1.06217 -0.02574,-0.36308 m -0.0189,5.26939 c -0.404102,0.03 -0.802228,0.0472 -1.204672,-0.0936 -0.185416,-0.0709 -0.604961,-0.25869 -0.799914,-0.79432 -0.280456,-0.77055 0.20632,-1.4798 0.948676,-1.75001 1.014868,-0.36938 1.965098,0.25317 2.823017,0.73905 0.465699,0.25616 0.709224,0.36972 0.951886,0.45167 0.575043,0.20573 1.197038,0.27732 1.828427,0.34547 l 0.366484,-0.13336 -1.224466,-3.48114 -0.413465,0.15048 1.104725,3.03521 c -0.809102,-0.0886 -1.260225,-0.15854 -1.987381,-0.48982 -0.281975,-0.13148 -0.557976,-0.27578 -0.828,-0.43291 -0.716929,-0.42013 -1.325346,-0.80527 -2.174558,-0.74094 -0.296456,0.0334 -0.516004,0.10266 -0.628774,0.14367 -0.761151,0.27703 -1.065998,0.81366 -1.175272,1.09819 -0.141713,0.37084 -0.129622,0.81339 0.0012,1.20209 0.116286,0.31949 0.319702,0.58598 0.597428,0.79351 0.568274,0.42104 1.187677,0.39779 1.42177,0.39771 0.126452,-0.003 0.2435,-0.003 0.366523,-0.0163 l 0.02636,-0.42462 m 16.674308,26.02579 c -0.147842,-0.17619 -0.288022,-0.35882 -0.44229,-0.54266 -0.128559,-0.15321 -0.218548,-0.26046 -0.294715,-0.44457 -0.258176,-0.61883 -5.37e-4,-1.29191 0.520366,-1.729 0.697102,-0.58493 1.648415,-0.58688 2.220495,0.0949 0.437096,0.52091 0.386561,1.09853 0.34509,1.32914 -0.01875,0.13322 -0.0427,0.24469 -0.13533,0.49213 l 0.41279,0.14968 c 0.01779,-0.041 0.147217,-0.38462 0.177065,-0.64463 0.102394,-0.76474 -0.306784,-1.36128 -0.473914,-1.56045 -0.231403,-0.27578 -0.971313,-0.98644 -2.017453,-0.63079 -0.387514,0.12936 -0.654397,0.34024 -0.776964,0.44309 -0.651131,0.54636 -0.768152,1.15366 -0.740148,1.48263 0.01365,0.24962 0.159553,0.61019 0.171177,0.6396 -0.06156,-0.0267 -0.332222,-0.17812 -0.603863,-0.23737 -0.480499,-0.10593 -1.015069,0.0815 -1.405745,0.40936 -0.275775,0.2314 -0.894509,0.89417 -0.572492,1.83801 0.04649,0.11763 0.144677,0.37465 0.356794,0.62745 0.642787,0.76604 1.478663,0.7043 1.812821,0.69805 l -0.03717,-0.38655 c -0.446855,-0.004 -0.778554,-0.0255 -1.154539,-0.27135 -0.168093,-0.10699 -0.30431,-0.25377 -0.349305,-0.30739 -0.533515,-0.63582 -0.241273,-1.29876 -0.09353,-1.52718 0.03311,-0.0539 0.147749,-0.2284 0.316279,-0.36982 0.206832,-0.17355 0.472747,-0.29225 0.726073,-0.34816 0.353175,-0.0614 0.868015,-0.0234 1.414384,0.6277 0.115702,0.1379 0.209654,0.28098 0.317697,0.4253 l 0.306417,-0.25712 m 2.231615,5.03979 c -0.36947,0.16639 -0.737696,0.31875 -1.164042,0.32405 -0.198471,-0.003 -0.656956,-0.0362 -1.023346,-0.47283 -0.527085,-0.62816 -0.312237,-1.46114 0.292928,-1.96893 0.827328,-0.69421 1.933187,-0.43419 2.905534,-0.27106 0.52523,0.0814 0.792908,0.10486 1.048963,0.0989 0.610729,-0.003 1.219687,-0.14886 1.836316,-0.30074 l 0.298756,-0.25069 -2.341243,-2.85241 -0.33706,0.28283 2.076204,2.47432 c -0.790613,0.19343 -1.238447,0.28204 -2.035054,0.21945 -0.309938,-0.0271 -0.618653,-0.0683 -0.926132,-0.12362 -0.817386,-0.14959 -1.520836,-0.30341 -2.296832,0.0475 -0.267144,0.13281 -0.449766,0.27297 -0.541691,0.3501 -0.62049,0.52065 -0.723422,1.12919 -0.72879,1.43393 -0.0063,0.39694 0.156389,0.80867 0.412271,1.12918 0.218548,0.26045 0.500845,0.44131 0.832801,0.54133 0.678003,0.20128 1.252098,-0.0324 1.472052,-0.11254 0.117629,-0.0465 0.227616,-0.0865 0.338828,-0.14068 l -0.120464,-0.40803 m 9.677226,9.27275 c -0.334953,0.22805 -0.671137,0.44202 -1.090088,0.52126 -0.195975,0.0315 -0.653262,0.0784 -1.089904,-0.28794 -0.628157,-0.52709 -0.561227,-1.38471 -0.05343,-1.98988 0.694211,-0.82733 1.828406,-0.76331 2.814324,-0.77149 0.531386,-0.011 0.799071,-0.0344 1.050201,-0.0848 0.600929,-0.10901 1.175321,-0.35836 1.756202,-0.61503 l 0.250688,-0.29875 -2.800993,-2.40253 -0.282826,0.33707 2.474323,2.0762 c -0.745011,0.32781 -1.170657,0.4928 -1.966029,0.5695 -0.30994,0.0271 -0.621115,0.0402 -0.933528,0.0391 -0.830945,-0.005 -1.550418,-0.0347 -2.253691,0.44562 -0.240031,0.17717 -0.395532,0.34693 -0.472668,0.43885 -0.520658,0.6205 -0.51635,1.23765 -0.468718,1.5387 0.06272,0.392 0.294437,0.76922 0.602088,1.04043 0.260454,0.21854 0.569868,0.34764 0.914151,0.38849 0.702653,0.0805 1.227449,-0.24933 1.430142,-0.36646 0.107775,-0.0662 0.209118,-0.1248 0.30924,-0.1974 l -0.189482,-0.38092 m 3.665637,3.07584 c -0.334952,0.22805 -0.671135,0.44202 -1.090089,0.52125 -0.195975,0.0315 -0.653261,0.0784 -1.089902,-0.28793 -0.628157,-0.52709 -0.561227,-1.38471 -0.05343,-1.9899 0.694211,-0.82732 1.828408,-0.76329 2.814326,-0.77147 0.531386,-0.011 0.799072,-0.0344 1.050202,-0.0847 0.600928,-0.10901 1.17532,-0.35836 1.756201,-0.61503 l 0.250688,-0.29876 -2.800992,-2.40252 -0.282828,0.33705 2.474324,2.07621 c -0.745011,0.32781 -1.170656,0.49281 -1.966029,0.5695 -0.30994,0.0271 -0.621114,0.0402 -0.933527,0.0391 -0.830947,-0.005 -1.550419,-0.0347 -2.253692,0.44562 -0.240033,0.17715 -0.395534,0.34691 -0.472668,0.43885 -0.520658,0.62049 -0.516351,1.23764 -0.468718,1.53869 0.06272,0.39201 0.294437,0.76923 0.602087,1.04043 0.260455,0.21855 0.569869,0.34764 0.914151,0.3885 0.702654,0.0805 1.22745,-0.24933 1.430143,-0.36646 0.107775,-0.0662 0.209118,-0.12481 0.309241,-0.19741 L 93.33977,201.5161 m 28.49371,14.25059 c 0.46771,-1.25577 0.5235,-2.14001 0.4126,-2.71247 -0.15347,-0.86465 -0.73437,-1.25697 -1.04447,-1.36984 -0.19733,-0.0718 -0.6971,-0.18987 -1.24482,0.0577 -0.67246,0.29798 -1.41344,1.13502 -1.98462,2.70431 -0.0787,0.21613 -0.62074,1.64702 -0.34084,2.74922 0.19029,0.79291 0.72844,1.12712 1.01974,1.23314 0.3007,0.10945 0.92094,0.21814 1.57209,-0.22592 0.98015,-0.6755 1.54192,-2.24821 1.61033,-2.43615 m -0.36389,-0.22822 c -0.38735,1.09346 -0.8489,1.77681 -1.19331,2.10906 -0.11367,0.10757 -0.74008,0.68839 -1.43545,0.43529 -0.20672,-0.0752 -0.62444,-0.30177 -0.77977,-0.86911 -0.099,-0.31271 -0.0758,-0.69803 -0.0732,-0.79286 0.0361,-0.85947 0.29949,-1.58304 0.39868,-1.85555 0.25309,-0.69538 0.74295,-1.7196 1.30012,-2.19788 0.52129,-0.43813 1.06466,-0.41062 1.32777,-0.31485 0.27251,0.0992 0.7167,0.39921 0.83097,1.0793 0.0879,0.48958 0.0184,1.29436 -0.37577,2.40662 m 3.87075,3.12216 c -0.23675,0.32886 -0.47948,0.6449 -0.84607,0.86266 -0.17346,0.0965 -0.58703,0.29714 -1.12265,0.1022 -0.77055,-0.28046 -1.00098,-1.10926 -0.73079,-1.85161 0.36939,-1.01487 1.45708,-1.34262 2.38074,-1.68751 0.49559,-0.19209 0.73911,-0.30564 0.95787,-0.43886 0.52723,-0.30827 0.98187,-0.73873 1.43994,-1.17859 l 0.13338,-0.36648 -3.45378,-1.29964 -0.15049,0.41346 3.03521,1.10473 c -0.58797,0.56285 -0.93151,0.86348 -1.65269,1.20758 -0.28198,0.13146 -0.56993,0.25016 -0.86386,0.35601 -0.78267,0.27915 -1.46878,0.49766 -1.96537,1.18954 -0.16496,0.24857 -0.25303,0.46128 -0.29407,0.57404 -0.27704,0.76115 -0.0619,1.33962 0.0858,1.60622 0.19298,0.34693 0.53977,0.62213 0.92162,0.77175 0.3195,0.11629 0.6544,0.13177 0.9919,0.0524 0.68781,-0.16464 1.06814,-0.65412 1.21856,-0.8335 0.0786,-0.099 0.15384,-0.18876 0.22307,-0.29126 l -0.30834,-0.29314 m 14.07723,-1.53763 c -0.36096,-0.4292 -0.52086,-0.55893 -0.78271,-0.68635 -0.14078,-0.0654 -0.27518,-0.10944 -0.43275,-0.13723 -0.38407,-0.0677 -1.09601,-0.0612 -1.78816,0.6392 -0.55951,0.58169 -0.86584,1.34001 -1.08007,2.09427 -0.0932,0.29834 -0.17023,0.61986 -0.2258,0.93499 -0.11113,0.63028 -0.15273,1.38451 0.0356,1.98637 0.0875,0.3099 0.42941,1.19268 1.44377,1.37154 0.13787,0.0243 0.41535,0.0631 0.76465,-0.0175 0.30643,-0.0678 0.49989,-0.18603 0.60416,-0.25902 0.70492,-0.48496 0.89653,-1.45644 0.94979,-1.70091 0.1858,-1.05375 -0.25513,-1.72044 -0.60911,-2.01641 -0.32792,-0.27105 -0.64943,-0.34805 -0.807,-0.37583 -0.70906,-0.12504 -1.22687,0.22039 -1.4273,0.37789 -0.21373,0.17555 -0.47668,0.51504 -0.50332,0.55097 0.19336,-0.80872 0.40062,-1.69621 0.89871,-2.39026 0.12336,-0.18133 0.4813,-0.6564 1.13355,-0.78508 0.24212,-0.0488 0.48197,-0.0267 0.5509,-0.0146 0.44316,0.0781 0.6529,0.32837 0.9339,0.6927 l 0.34116,-0.26478 m -3.95255,3.52723 c 0.10598,-0.25547 0.16968,-0.3864 0.24787,-0.48432 0.2334,-0.34471 0.70721,-0.72826 1.11907,-0.8181 0.23234,-0.0501 0.40954,-0.0192 0.50802,-0.002 0.39392,0.0695 0.64015,0.2855 0.75428,0.38686 0.44785,0.45468 0.46531,1.0467 0.3675,1.65902 -0.0452,0.25605 -0.10942,0.4478 -0.14475,0.53296 -0.18009,0.44549 -0.55715,0.85626 -1.00086,1.01157 -0.25892,0.0864 -0.5167,0.0511 -0.6152,0.0336 -0.13788,-0.0243 -0.50689,-0.11984 -0.79831,-0.42508 -0.5029,-0.54563 -0.46594,-1.33114 -0.46075,-1.53331 0.001,-0.12165 0.0121,-0.24157 0.0231,-0.36148 m 5.73004,3.46769 c 0.19347,-0.11819 0.28441,-0.17324 0.39331,-0.21496 0.16508,-0.0725 0.33655,-0.12342 0.50974,-0.18432 0.20621,-0.0754 0.41416,-0.16055 0.63196,-0.24396 l -0.13271,-0.39911 -1.19846,0.51979 1.06793,-6.05657 1.07344,0.18927 0.0695,-0.39392 -2.55065,-0.44975 -0.0695,0.39393 1.01435,0.17885 -1.16344,6.59822 0.35453,0.0625 m 30.4778,0.52666 3.62409,-0.63903 -0.0747,-0.42346 -3.17108,0.55914 1.39473,-6.94774 -0.50225,0.0886 -1.32639,7.04739 0.0556,0.31514 m 6.45093,-1.10701 c 0.14137,-0.17724 0.208,-0.26007 0.29606,-0.33652 0.13036,-0.12453 0.27404,-0.2311 0.41598,-0.34752 0.16801,-0.14132 0.33428,-0.29249 0.51041,-0.4454 l -0.26121,-0.32964 -0.94842,0.89833 -1.06793,-6.05656 1.07344,-0.18928 -0.0695,-0.39392 -2.55065,0.44974 0.0694,0.39393 1.01436,-0.17886 1.16344,6.59821 0.35453,-0.0625 m 11.27031,-3.30036 c 0.5178,0.19464 0.72114,0.22704 1.0176,0.19364 0.19565,-0.0179 0.31786,-0.0621 0.40239,-0.0932 0.46985,-0.17099 1.20958,-0.6531 1.35871,-1.9099 0.0298,-0.29817 0.0246,-0.60489 -0.005,-0.89194 -0.0976,-0.79452 -0.40375,-1.69408 -0.47558,-1.89141 -0.065,-0.17854 -0.49765,-1.42578 -1.32568,-1.97573 -0.48367,-0.33477 -1.10311,-0.42857 -1.66692,-0.22336 -0.25372,0.0924 -0.81581,0.36078 -1.05567,1.07595 -0.26633,0.78865 0.001,1.55322 0.0971,1.81634 0.10262,0.2819 0.44377,1.18999 1.4272,1.4067 0.4554,0.11093 0.83812,-0.007 0.98847,-0.0618 0.70477,-0.2565 0.9797,-0.84609 1.06165,-1.08876 0.07,-0.21703 0.10154,-0.45199 0.1271,-0.67412 0.28218,0.83376 0.43184,1.33267 0.41506,2.22205 -0.0194,0.91161 -0.30292,1.30213 -0.62151,1.56707 -0.19816,0.15726 -0.36389,0.22823 -0.46726,0.26585 -0.41347,0.15048 -0.72362,0.0293 -1.10728,-0.11843 l -0.16991,0.38109 m 1.67477,-5.04719 c 0.009,0.11362 0.0386,0.36907 0.005,0.65786 -0.0554,0.40327 -0.25347,0.91168 -0.56865,1.18602 -0.12044,0.10765 -0.26992,0.19402 -0.42028,0.24874 -0.34767,0.12659 -0.63989,0.0839 -0.78941,0.0532 -0.48359,-0.10067 -0.79211,-0.39276 -1.02547,-0.82927 -0.0966,-0.17768 -0.165,-0.36563 -0.18895,-0.4314 -0.31465,-0.86452 -0.19792,-1.91798 0.75117,-2.26341 0.84572,-0.30783 1.44993,0.2704 1.6388,0.4677 0.17947,0.20072 0.3376,0.4305 0.59747,0.91056 m 4.71761,3.32714 c 0.10844,-0.1991 0.15967,-0.29224 0.23312,-0.38282 0.10675,-0.14528 0.22974,-0.27517 0.34931,-0.41447 0.14092,-0.16834 0.27842,-0.34609 0.42531,-0.52726 l -0.31448,-0.27928 -0.77801,1.04938 -2.10343,-5.77911 1.02427,-0.37281 -0.13685,-0.37587 -2.4338,0.88584 0.13685,0.37586 0.96788,-0.35227 2.29153,6.29594 0.3383,-0.12311 m 26.69389,-20.78366 -0.23141,-0.27578 -2.11428,1.7741 -1.23415,-1.47081 -0.33706,0.28283 1.23415,1.4708 -0.76604,0.64279 0.24426,0.2911 0.74306,-0.62351 3.08538,3.67702 0.49027,-0.41139 -1.11418,-5.35715 m 0.69769,5.24973 -2.81444,-3.44746 1.78488,-1.4977 1.02956,4.94516 m 4.37051,-3.2626 c 0.0338,-0.22418 0.0501,-0.32923 0.0881,-0.43948 0.0506,-0.17302 0.12177,-0.33714 0.18649,-0.50893 0.0748,-0.2064 0.14325,-0.42045 0.21932,-0.64093 l -0.39103,-0.15488 -0.37219,1.25219 -3.95314,-4.71118 0.83499,-0.70064 -0.25711,-0.30641 -1.98406,1.66482 0.25711,0.30641 0.78903,-0.66207 4.30668,5.1325 0.27578,-0.2314 m 7.6465,-12.62406 c -0.14784,0.17619 -0.30334,0.34595 -0.45762,0.5298 -0.12854,0.15321 -0.21854,0.26046 -0.38663,0.36744 -0.5646,0.36171 -1.27218,0.22487 -1.79309,-0.21223 -0.69709,-0.58493 -0.86421,-1.52145 -0.29212,-2.20323 0.43709,-0.52092 1.01471,-0.57145 1.24902,-0.57065 0.13444,-0.005 0.24839,-4.4e-4 0.50814,0.0478 l 0.0757,-0.43252 c -0.0435,-0.0104 -0.40433,-0.0782 -0.66559,-0.0624 -0.77089,0.032 -1.28732,0.53852 -1.45444,0.73769 -0.2314,0.27577 -0.80278,1.12786 -0.27087,2.09634 0.19467,0.35916 0.4487,0.58537 0.57127,0.68821 0.65114,0.54637 1.26953,0.55616 1.58862,0.47145 0.24348,-0.0567 0.57323,-0.26309 0.60017,-0.27964 -0.0156,0.0653 -0.11772,0.3581 -0.12891,0.6359 -0.0209,0.4916 0.25652,0.9855 0.64725,1.31331 0.27578,0.2314 1.03593,0.72565 1.90949,0.24463 0.10778,-0.0662 0.34385,-0.20753 0.55596,-0.46033 0.6428,-0.76605 0.43686,-1.57851 0.37267,-1.90649 l -0.37422,0.10375 c 0.0737,0.44077 0.11008,0.77115 -0.0668,1.18413 -0.0762,0.18411 -0.19706,0.34375 -0.24206,0.39737 -0.53351,0.63582 -1.23713,0.46314 -1.48773,0.35727 -0.0588,-0.0232 -0.2506,-0.10585 -0.41913,-0.24726 -0.20683,-0.17355 -0.3699,-0.41481 -0.46895,-0.65458 -0.12179,-0.33714 -0.17377,-0.85076 0.37256,-1.50189 0.11571,-0.13789 0.2403,-0.25527 0.36366,-0.38673 l -0.30642,-0.25711 m 5.13965,-0.60238 c -0.006,-0.22664 -0.008,-0.33292 0.0104,-0.44809 0.0198,-0.17918 0.0614,-0.35317 0.0953,-0.53359 0.0378,-0.21625 0.0681,-0.43894 0.1047,-0.66928 l -0.41199,-0.0846 -0.1491,1.29779 -4.71117,-3.95315 0.70064,-0.83498 -0.30642,-0.25711 -1.66481,1.98405 0.30641,0.25712 0.66207,-0.78904 5.1325,4.30668 0.2314,-0.27577 m 16.31882,-27.84591 c -0.0828,-0.21106 -0.1212,-0.31018 -0.14342,-0.42466 -0.0427,-0.17516 -0.0631,-0.35287 -0.0931,-0.53397 -0.0384,-0.21617 -0.086,-0.43578 -0.13051,-0.66474 l -0.41609,0.0614 0.30373,1.27052 -5.7791,-2.10343 0.3728,-1.02425 -0.37587,-0.13681 -0.88584,2.4338 0.37588,0.1368 0.35228,-0.96787 6.29594,2.29153 0.12313,-0.33829 m 1.63662,-4.49658 c -0.0828,-0.21105 -0.1212,-0.31017 -0.14342,-0.42465 -0.0427,-0.17517 -0.0631,-0.35287 -0.0931,-0.53397 -0.0384,-0.21617 -0.086,-0.43578 -0.13051,-0.66474 l -0.41609,0.0614 0.30374,1.27052 -5.77911,-2.10343 0.37281,-1.02426 -0.37588,-0.1368 -0.88583,2.43379 0.37587,0.13681 0.35229,-0.96788 6.29594,2.29154 0.12312,-0.33829 m 0.29476,-16.06147 c -1.31791,-0.24254 -2.19841,-0.14394 -2.7429,0.0647 -0.82487,0.30134 -1.11036,0.94149 -1.16766,1.26648 -0.0364,0.2068 -0.0659,0.71948 0.27298,1.21588 0.41023,0.61051 1.36323,1.19488 3.00786,1.48487 0.22652,0.04 1.72978,0.32532 2.76664,-0.14174 0.74781,-0.32507 0.9835,-0.91308 1.03733,-1.21837 0.0556,-0.31514 0.0549,-0.94482 -0.49549,-1.50897 -0.83545,-0.84796 -2.48182,-1.12809 -2.67878,-1.16283 m -0.16157,0.39799 c 1.14412,0.19159 1.89724,0.52746 2.28424,0.80895 0.12571,0.0933 0.80644,0.60929 0.67795,1.33805 -0.0383,0.21667 -0.18876,0.66736 -0.7205,0.91884 -0.29079,0.15181 -0.67428,0.19587 -0.76812,0.20977 -0.85268,0.1137 -1.61099,-0.0201 -1.89659,-0.0704 -0.72875,-0.12849 -1.82248,-0.43305 -2.39025,-0.89871 -0.522,-0.43729 -0.58927,-0.97718 -0.54064,-1.25292 0.0504,-0.2856 0.26867,-0.77512 0.9186,-1.00577 0.46687,-0.17157 1.2715,-0.24288 2.4353,-0.0478 m 4.12622,-2.49658 c -0.1182,-0.19346 -0.17324,-0.2844 -0.21497,-0.3933 -0.0725,-0.16508 -0.12341,-0.33655 -0.18431,-0.50974 -0.0754,-0.20621 -0.16056,-0.41416 -0.24397,-0.63197 l -0.39911,0.13272 0.51979,1.19847 -6.05656,-1.06793 0.18927,-1.07345 -0.39393,-0.0695 -0.44974,2.55065 0.39392,0.0695 0.17886,-1.01436 6.59821,1.16345 0.0625,-0.35453 m -4.0074,-34.19065 c -0.35386,-0.56716 -0.65213,-0.99182 -1.34435,-1.17439 -0.37247,-0.0968 -0.69108,-0.0609 -0.82895,-0.0366 -0.63028,0.11113 -0.99354,0.46966 -1.13491,0.6469 -0.50059,0.61629 -0.4225,1.40471 -0.38082,1.64106 0.0695,0.39392 0.26287,0.85738 0.5125,1.17891 0.39442,0.50925 0.96906,0.60086 1.19614,0.62174 0.15466,0.0134 0.3551,-0.002 0.51267,-0.0295 0.47271,-0.0834 0.91589,-0.33412 1.18705,-0.69671 0.22886,-0.31452 0.35172,-0.71189 0.46474,-1.10753 0.36604,0.46348 0.6539,0.82905 1.25518,0.95657 0.32612,0.0644 0.58391,0.0291 0.70209,0.008 0.40377,-0.0712 0.65694,-0.24784 0.78266,-0.34109 0.75083,-0.57918 0.65073,-1.4348 0.59864,-1.73024 -0.0521,-0.29544 -0.27151,-1.25187 -1.21281,-1.52253 -0.36262,-0.0985 -0.70266,-0.069 -0.84054,-0.0447 -0.36437,0.0643 -0.60943,0.22931 -0.71719,0.30924 -0.48665,0.34982 -0.60604,0.76689 -0.7521,1.32066 m -0.0841,0.50223 c -0.051,0.17146 -0.0922,0.34119 -0.14316,0.51265 -0.0539,0.21259 -0.0916,0.40201 -0.19646,0.61343 -0.2115,0.413 -0.63095,0.74082 -1.10365,0.82417 -0.34469,0.0608 -1.10587,0.063 -1.57555,-0.75792 -0.13378,-0.24042 -0.18183,-0.45534 -0.20093,-0.56367 -0.0747,-0.42347 0.0117,-0.85503 0.0581,-0.99521 0.20401,-0.68584 0.89918,-0.88965 1.11583,-0.92785 0.37423,-0.066 0.69398,0.0198 0.81273,0.0598 0.63661,0.21268 0.91054,0.67209 1.23313,1.23462 m 0.3551,-0.002 c 0.10029,-0.52539 0.20579,-1.02125 0.63451,-1.41162 0.18424,-0.1645 0.38874,-0.27163 0.63494,-0.31505 0.81739,-0.14412 1.48696,0.4283 1.62415,1.2063 0.0903,0.5121 -0.0563,1.00505 -0.45782,1.31955 -0.18771,0.14479 -0.42176,0.25714 -0.65811,0.29882 -0.31514,0.0556 -0.58044,-0.009 -0.68761,-0.0412 -0.53581,-0.15938 -0.77442,-0.53363 -0.88447,-0.697 -0.0718,-0.11934 -0.13378,-0.24042 -0.20559,-0.35977 m -0.93707,-16.762341 -1.25864,-3.45807 -0.40406,0.1471 1.1013,3.02581 -7.08438,-0.16708 0.17447,0.47924 7.17065,0.0825 0.3007,-0.10948 m -22.66218,-31.83056 c 0.46838,-0.0795 0.87916,-0.14995 1.32157,0.0659 0.15647,0.0776 0.28873,0.18852 0.40443,0.3264 0.10285,0.12257 0.27912,0.37934 0.28442,0.80567 -0.003,0.60308 -0.32799,1.07152 -0.77995,1.45076 -0.44431,0.37282 -1.06533,0.73727 -1.6647,0.69193 -0.50841,-0.0303 -0.84241,-0.35053 -0.95811,-0.48841 -0.28282,-0.33706 -0.38946,-0.82196 -0.29489,-1.25377 0.0329,-0.132 0.0988,-0.31787 0.23737,-0.60387 l -0.39623,-0.17663 c -0.1702,0.40391 -0.32138,0.75268 -0.30967,1.18669 0.0174,0.20736 0.0689,0.67325 0.4224,1.09457 0.2314,0.27577 0.51248,0.47072 0.84443,0.57073 0.78701,0.25341 1.70389,-0.0852 2.31673,-0.59939 0.56686,-0.47566 1.06867,-1.26224 1.01882,-1.9906 -0.031,-0.45698 -0.27155,-0.79035 -0.38083,-0.92058 -0.12856,-0.1532 -0.46773,-0.49519 -1.01471,-0.57144 -0.13323,-0.0188 -0.2536,-0.0222 -0.37397,-0.0257 l 2.08047,-1.54992 1.70338,2.03002 0.32175,-0.26997 -1.94764,-2.32112 -2.98345,2.21622 0.14838,0.3324 m -14.50029,-12.82847 -0.23139,0.27578 2.11428,1.7741 -1.23416,1.4708 0.33706,0.28283 1.23416,-1.47081 0.76604,0.64279 0.24426,-0.29109 -0.74306,-0.62351 3.08538,-3.67702 -0.49027,-0.41138 -5.0823,2.02751 m 5.04884,-1.5987 -2.90638,3.37033 -1.78487,-1.49769 4.69125,-1.87264 m -34.06986,-17.06529 c 0.23675,-0.32886 0.47948,-0.6449 0.84607,-0.86264 0.17346,-0.0965 0.58703,-0.29715 1.12266,-0.1022 0.77054,0.28046 1.00098,1.10925 0.73078,1.85161 -0.36938,1.01487 -1.45708,1.34262 -2.38074,1.68751 -0.49558,0.19208 -0.73911,0.30565 -0.95786,0.43886 -0.52723,0.30826 -0.98188,0.73873 -1.43995,1.17859 l -0.13339,0.36648 3.4538,1.29964 0.15048,-0.41347 -3.0352,-1.10472 c 0.58795,-0.56285 0.9315,-0.86349 1.65268,-1.20758 0.28198,-0.13146 0.56993,-0.25015 0.86386,-0.35601 0.78266,-0.27915 1.46878,-0.49765 1.96537,-1.18954 0.16497,-0.24857 0.25303,-0.46128 0.29407,-0.57404 0.27704,-0.76115 0.0619,-1.33961 -0.0858,-1.60622 -0.19298,-0.34692 -0.53978,-0.62213 -0.92163,-0.77176 -0.31949,-0.11629 -0.6544,-0.13175 -0.9919,-0.0524 -0.68781,0.16464 -1.06813,0.65412 -1.21855,0.83349 -0.0786,0.0991 -0.15384,0.18877 -0.22307,0.29127 l 0.30833,0.29313 m -15.50114,-5.98785 c -0.19347,0.11819 -0.28441,0.17325 -0.39331,0.21496 -0.16508,0.0725 -0.33655,0.12342 -0.50974,0.18432 -0.20621,0.0753 -0.41416,0.16055 -0.63197,0.24396 l 0.13272,0.39911 1.19847,-0.51978 -1.06793,6.05657 -1.07345,-0.18928 -0.0694,0.39392 2.55065,0.44975 0.0695,-0.39392 -1.01436,-0.17886 1.16345,-6.59821 -0.35453,-0.0625"
         id="compass-labels-minor" />
    </g>
  </g>
  <g
     inkscape:groupmode="layer"
     id="origin"
     inkscape:label="origin"
     style="display:inline">
    <path
       style="fill:#808080;fill-opacity:1;fill-rule:evenodd;stroke:#ffffff;stroke-width:1.20754719;stroke-linecap:square;stroke-linejoin:miter;stroke-miterlimit:4;stroke-opacity:1;stroke-dasharray:none;stroke-dashoffset:0;marker:none;visibility:visible;display:inline;overflow:visible;enable-background:accumulate"
       d="m 154.0452,43.859269 8.06385,0"
       id="path3724"
       sodipodi:nodetypes="cc"
       inkscape:connector-curvature="0" />
    <path
       inkscape:connector-curvature="0"
       style="fill:#000000;fill-opacity:1;fill-rule:evenodd;stroke:#ffffff;stroke-width:1.15031052;stroke-linecap:square;stroke-linejoin:miter;stroke-miterlimit:4;stroke-opacity:1;stroke-dashoffset:0;marker:none;visibility:visible;display:inline;overflow:visible;enable-background:accumulate"
       d="m 173.31132,32.580259 0,-17.37532 -10.38722,0 -5.1275,-6.0487601 -5.1275,6.0487601 -10.38722,0 0.25,17.62532 z"
       id="path3960"
       sodipodi:nodetypes="cccccccc" />
    <text
       xml:space="preserve"
       style="font-size:13.62171936px;font-style:normal;font-variant:normal;font-weight:500;font-stretch:normal;text-align:center;line-height:125%;letter-spacing:0px;word-spacing:0px;writing-mode:lr-tb;text-anchor:middle;fill:#ff00ff;fill-opacity:1;stroke:none;display:inline;font-family:Lightline Gothic BQ;-inkscape-font-specification:Lightline Gothic BQ Medium"
       x="179.63643"
       y="25.723427"
       id="compass-value"
       sodipodi:linespacing="125%"
       transform="scale(0.88094605,1.1351433)"><tspan
         sodipodi:role="line"
         id="tspan6866"
         x="179.63643"
         y="25.723427"
         style="font-size:13.62171936px;font-style:normal;font-variant:normal;font-weight:500;font-stretch:normal;text-align:center;line-height:125%;writing-mode:lr-tb;text-anchor:middle;fill:#ffffff;fill-opacity:1;font-family:Lightline Gothic BQ;-inkscape-font-specification:Lightline Gothic BQ Medium">230</tspan></text>
    <rect
       style="fill:none;stroke:#aa0000;stroke-width:1.99212217;stroke-miterlimit:4;stroke-opacity:1;stroke-dasharray:none;display:inline"
       id="rect6862"
       width="321.49683"
       height="241.96362"
       x="-0.99684024"
       y="-1"
       rx="24.110947"
       ry="0" />
  </g>
  <g
     inkscape:groupmode="layer"
     id="targets"
     inkscape:label="targets"
     style="display:inline">
    <path
       sodipodi:nodetypes="cccccc"
       id="target-spd"
       d="m 318.40825,-48.473811 -8.45107,0 -6.66566,-5.1275 6.66566,-5.1275 8.45107,0 z"
       style="fill:none;stroke:#ff00ff;stroke-width:1.20754719;stroke-linecap:square;stroke-linejoin:miter;stroke-miterlimit:4;stroke-opacity:1;stroke-dashoffset:0;marker:none;visibility:visible;display:inline;overflow:visible;enable-background:accumulate"
       inkscape:connector-curvature="0" />
    <path
       style="fill:none;stroke:#ffffff;stroke-width:1.20754719;stroke-linecap:square;stroke-linejoin:miter;stroke-miterlimit:4;stroke-opacity:1;stroke-dasharray:none;stroke-dashoffset:0;marker:none;visibility:visible;display:inline;overflow:visible;enable-background:accumulate"
       d="m 359.06056,255.37496 5.98603,9.597 5.98605,-9.597 -11.97208,0 z"
       id="path3728"
       sodipodi:nodetypes="ccc"
       inkscape:connector-curvature="0" />
    <path
       sodipodi:nodetypes="cccccccc"
       id="target-yaw"
       d="m 172.21628,12.904588 0,-11.5542992 -8.6769,0 -5.47044,7.2277999 -5.22044,-7.1027999 -8.5519,0 -0.25,11.4292992 z"
       style="fill:none;stroke:#ff00ff;stroke-width:1.20754719;stroke-linecap:square;stroke-linejoin:miter;stroke-miterlimit:4;stroke-opacity:1;stroke-dasharray:none;stroke-dashoffset:0;marker:none;visibility:visible;display:inline;overflow:visible;enable-background:accumulate"
       inkscape:connector-curvature="0" />
  </g>
  <g
     inkscape:groupmode="layer"
     id="layer5"
     inkscape:label="labels"
     style="display:inline">
    <text
       xml:space="preserve"
       style="font-size:12px;font-style:normal;font-variant:normal;font-weight:normal;font-stretch:normal;text-align:start;line-height:125%;letter-spacing:0px;word-spacing:0px;writing-mode:lr-tb;text-anchor:start;fill:#00ff00;fill-opacity:1;stroke:none;display:inline;font-family:Sans;-inkscape-font-specification:Sans"
       x="206.38779"
       y="38.9356"
       id="text3978"
       sodipodi:linespacing="125%"
       transform="scale(0.82879725,1.2065677)"><tspan
         sodipodi:role="line"
         id="tspan3980"
         x="206.38779"
         y="38.9356"
         style="font-size:12px;font-style:normal;font-variant:normal;font-weight:500;font-stretch:normal;text-align:start;line-height:125%;writing-mode:lr-tb;text-anchor:start;fill:#00ff00;fill-opacity:1;font-family:Lightline Gothic BQ;-inkscape-font-specification:Lightline Gothic BQ Medium">MAG</tspan></text>
    <text
       transform="scale(0.82879725,1.2065677)"
       sodipodi:linespacing="125%"
       id="gps-indicator"
       y="39.056969"
       x="154.93349"
       style="font-size:12px;font-style:normal;font-variant:normal;font-weight:normal;font-stretch:normal;text-align:start;line-height:125%;letter-spacing:0px;word-spacing:0px;writing-mode:lr-tb;text-anchor:start;fill:#00ff00;fill-opacity:1;stroke:none;display:inline;font-family:Sans;-inkscape-font-specification:Sans"
       xml:space="preserve"><tspan
         style="font-size:12px;font-style:normal;font-variant:normal;font-weight:500;font-stretch:normal;text-align:start;line-height:125%;writing-mode:lr-tb;text-anchor:start;fill:#00ff00;fill-opacity:1;font-family:Lightline Gothic BQ;-inkscape-font-specification:Lightline Gothic BQ Medium"
         y="39.056969"
         x="154.93349"
         id="tspan3219"
         sodipodi:role="line">GPS</tspan></text>
  </g>
</svg>
